<svg xmlns="http://www.w3.org/2000/svg" xmlns:xlink="http://www.w3.org/1999/xlink" width="2849.525" height="3505.099" viewBox="0 0 2849.525 3505.099">
  <defs>
    <style>
      .cls-1 {
        clip-path: url(#clip-Artboard_25);
      }

      .cls-2, .cls-7, .cls-8 {
        fill: #fff;
      }

      .cls-2 {
        stroke: #000;
        stroke-width: 2px;
        fill-rule: evenodd;
      }

      .cls-3, .cls-4 {
        font-size: 64px;
      }

      .cls-3 {
        font-family: Helvetica-Bold, Helvetica;
        font-weight: 700;
        letter-spacing: 0.1em;
      }

      .cls-4 {
        fill: #797777;
        font-family: PingFangSC-Regular, PingFang SC;
        letter-spacing: 0.05em;
      }

      .cls-5, .cls-7 {
        font-family: Helvetica;
      }

      .cls-6 {
        fill: #ca3136;
      }

      .cls-7 {
        font-size: 71px;
      }
    </style>
    <clipPath id="clip-Artboard_25">
      <rect width="2849.526" height="3505.099"/>
    </clipPath>
  </defs>
  <g id="Artboard_25" data-name="Artboard – 25" class="cls-1">
    <rect class="cls-8" width="2849.526" height="3505.099"/>
    <path id="path2427" class="cls-2" d="M-32.705,436.919C400.671,165.76,770.636,193.2,1137.011-40.432c196.537,50.319,342.849,30.2,478.1-5.425,414.964,223.263,779.818,259.059,1169.711,488.2-32.406,239.264-103.771,446.008-222.794,612.963-144.416-90.452-281.057-126.392-413.115-130.187l-9.291,1627.336c-568.927,123.832-1051.144,70.328-1522.482-5.42L612.5,930.545c-165.972-5.635-292.253,66.039-422.4,130.187C64.929,861.294,6.445,650.72-32.706,436.919h0Z" transform="translate(43.705 168.857)"/>
    <g id="组_33" data-name="组 33">
      <g id="组_4" data-name="组 4" transform="translate(1218.365 628.533)">
        <text id="Processing" class="cls-3" transform="translate(206.445 625.003)"><tspan x="-201.316" y="0">Processing</tspan></text>
        <text id="休息_·_休息一会儿" data-name="休息 · 休息一会儿" class="cls-4" transform="translate(206 747.008)"><tspan x="-265.072" y="0">休息</tspan><tspan class="cls-5" y="0" xml:space="preserve"> · </tspan><tspan y="0">休息一会儿</tspan></text>
        <g id="icon" transform="translate(489.4 0)">
          <rect id="矩形_1" data-name="矩形 1" class="cls-6" width="69.914" height="204.365" rx="10" transform="translate(0 13.445)"/>
          <text id="_1_0_2" data-name="1
0
2" class="cls-7" transform="translate(34.756 75)"><tspan x="-19.743" y="0">1</tspan><tspan x="-19.743" y="61">0</tspan><tspan x="-19.743" y="122">2</tspan></text>
        </g>
      </g>
      <path id="np_waiting-area_55269_000000" d="M191.416,200.856a79.317,79.317,0,0,0,11.974-2.166c.221.013.48.026.726.026H325.3c4.255,0,6.811-1.6,6.811-6.811v-.947c0-5.228-2.556-6.811-6.811-6.811H228.025c9.3-10.365,13.855-24.986,13.855-44.486v-6.525c0-21.833-5.682-37.545-17.384-48.026a48.441,48.441,0,0,0-15.412-9.2c4.5-6.175,6.772-14.3,6.772-24.259V48.5c0-12.662-3.671-22.352-10.91-28.852-6.447-5.76-15.126-8.575-26.517-8.575H175.29c-11.4,0-20.082,2.8-26.5,8.562-7.252,6.5-10.923,16.19-10.923,28.852V51.64c0,9.95,2.283,18.084,6.772,24.259a48.449,48.449,0,0,0-15.412,9.2c-11.7,10.482-17.384,26.192-17.384,48.026v6.525c0,.869.013,1.738.026,2.595l-11.714,6.045.078-.052c-8.3,4.216-13.5,10.054-15.451,17.358-1.557,5.838-.882,11.935,2.05,18.538l-80.018.013c-4.255,0-6.811,1.583-6.811,6.811v.947c0,5.215,2.556,6.811,6.811,6.811h90.15a23.459,23.459,0,0,0,15.23,5.449,31.6,31.6,0,0,0,14.465-3.827l.039-.026.052-.026,6.486-3.347V241.6a32.823,32.823,0,0,0,2.646,13.453H0V269.61H160.774c.182,0,.35.013.532.013h.208l1.868-.013H332.108V255.055H188.785a32.7,32.7,0,0,0,2.633-13.712ZM152.42,48.5c0-17.539,8.562-22.858,22.858-22.858h3.139c14.3,0,22.871,5.319,22.871,22.858v3.152c0,17.526-8.575,22.858-22.871,22.858h-3.139c-14.3,0-22.858-5.319-22.858-22.858Zm-26.036,84.634c0-36.22,17.708-47.209,47.222-47.209h6.486c29.513,0,47.222,10.988,47.222,47.209v6.525c0,9.042-1.116,16.515-3.217,22.625a39.031,39.031,0,0,0-2.076-4.813l-.013-.026-.013-.039L205.689,125.6l-.052-.1c-6.889-13.219-16.553-16-23.455-16a31.383,31.383,0,0,0-14.685,4.021l.065-.039-41.188,21.249ZM176.848,241.41c.052,10.417-5.033,13.6-13.518,13.648h-2.75c-7.965-.182-12.739-3.451-12.778-13.518v-52.1l19.745-10.184,2.387,4.657a34.006,34.006,0,0,0,6.914,9.509Zm6.071-64.087L173.851,159.6l-53.785,27.749c-9.366,4.761-14.543,1.609-18.422-6.019l-.856-1.686c-3.866-7.628-3.36-13.673,6.019-18.422l67.434-34.795c7.589-3.957,13.635-3.516,18.486,5.8l16.294,31.809c4.761,9.379,1.622,14.543-6.019,18.435l-1.686.856c-7.615,3.879-13.635,3.36-18.4-6.006Z" transform="translate(1258.604 779.414)"/>
    </g>
  </g>
</svg>
