<svg xmlns="http://www.w3.org/2000/svg" xmlns:xlink="http://www.w3.org/1999/xlink" width="2849.526" height="3505.099" viewBox="0 0 2849.526 3505.099">
  <defs>
    <style>
      .cls-1 {
        clip-path: url(#clip-Artboard_26);
      }

      .cls-2, .cls-6, .cls-7 {
        fill: #fff;
      }

      .cls-2 {
        stroke: #000;
        stroke-width: 2px;
        fill-rule: evenodd;
      }

      .cls-3, .cls-4 {
        font-size: 64px;
      }

      .cls-3 {
        font-family: Helvetica-Bold, Helvetica;
        font-weight: 700;
        letter-spacing: 0.1em;
      }

      .cls-4 {
        fill: #797777;
        font-family: PingFangSC-Regular, PingFang SC;
        letter-spacing: 0.05em;
      }

      .cls-5 {
        fill: #ca3136;
      }

      .cls-6 {
        font-size: 71px;
        font-family: Helvetica;
      }
    </style>
    <clipPath id="clip-Artboard_26">
      <rect width="2849.526" height="3505.099"/>
    </clipPath>
  </defs>
  <g id="Artboard_26" data-name="Artboard – 26" class="cls-1">
    <rect class="cls-7" width="2849.526" height="3505.099"/>
    <path id="path2427" class="cls-2" d="M-32.705,436.919C400.671,165.76,770.636,193.2,1137.011-40.432c196.537,50.319,342.849,30.2,478.1-5.425,414.964,223.263,779.818,259.059,1169.711,488.2-32.406,239.264-103.771,446.008-222.794,612.963-144.416-90.452-281.057-126.392-413.115-130.187l-9.291,1627.336c-568.927,123.832-1051.144,70.328-1522.482-5.42L612.5,930.545c-165.972-5.635-292.253,66.039-422.4,130.187C64.929,861.294,6.445,650.72-32.706,436.919h0Z" transform="translate(43.705 168.857)"/>
    <g id="组_34" data-name="组 34">
      <g id="组_4" data-name="组 4" transform="translate(1218.365 628.533)">
        <text id="Created" class="cls-3" transform="translate(206.445 625.003)"><tspan x="-138.356" y="0">Created</tspan></text>
        <text id="美好的事情已经发生" class="cls-4" transform="translate(206 747.008)"><tspan x="-300.8" y="0">美好的事情已经发生</tspan></text>
        <g id="icon" transform="translate(489.4 0)">
          <rect id="矩形_1" data-name="矩形 1" class="cls-5" width="69.914" height="204.365" rx="10" transform="translate(0 13.445)"/>
          <text id="_2_0_1" data-name="2
0
1" class="cls-6" transform="translate(34.756 75)"><tspan x="-19.743" y="0">2</tspan><tspan x="-19.743" y="61">0</tspan><tspan x="-19.743" y="122">1</tspan></text>
        </g>
      </g>
      <g id="np_party_2033861_000000" transform="translate(1275.988 766.722)">
        <path id="路径_1079" data-name="路径 1079" d="M80.045,32.859l-6.719,3.657a3.64,3.64,0,0,0,0,6.378l6.719,3.671a36.036,36.036,0,0,1,14.4,14.372l3.671,6.7a3.616,3.616,0,0,0,6.35,0l3.671-6.7a36.12,36.12,0,0,1,14.4-14.372l6.719-3.671a3.64,3.64,0,0,0,0-6.378l-6.719-3.657a36.036,36.036,0,0,1-14.4-14.372l-3.671-6.7a3.776,3.776,0,0,0-6.364,0l-3.657,6.7a36.209,36.209,0,0,1-14.4,14.372Zm20.765-10.885.482-.893.482.893a43.331,43.331,0,0,0,17.278,17.249l.879.482-.879.482a43.329,43.329,0,0,0-17.278,17.249l-.482.893-.482-.893A43.331,43.331,0,0,0,83.531,40.187l-.879-.482.879-.482A43.329,43.329,0,0,0,100.809,21.973Z" transform="translate(161.066 0.102)"/>
        <path id="路径_1080" data-name="路径 1080" d="M60.131,20.319l-4.621-8.433A3.633,3.633,0,0,0,52.322,10a3.594,3.594,0,0,0-3.175,1.885l-4.621,8.433A46.4,46.4,0,0,1,26.043,38.773L17.6,43.379a3.64,3.64,0,0,0,0,6.378l8.447,4.621A46.23,46.23,0,0,1,44.526,72.832l4.621,8.433a3.616,3.616,0,0,0,6.35,0l4.621-8.433A46.4,46.4,0,0,1,78.6,54.378l8.447-4.606a3.64,3.64,0,0,0,0-6.378L78.6,38.787A46.584,46.584,0,0,1,60.132,20.319Zm15,27.667A53.646,53.646,0,0,0,53.753,69.318L52.322,71.94l-1.446-2.622A53.646,53.646,0,0,0,29.5,47.986l-2.608-1.432L29.5,45.123A53.647,53.647,0,0,0,50.876,23.791l1.446-2.622,1.432,2.622A53.557,53.557,0,0,0,75.127,45.123l2.608,1.432Z" transform="translate(14.58)"/>
        <path id="路径_1081" data-name="路径 1081" d="M150.71,106.274l12.3-6.719a3.6,3.6,0,0,0,1.9-3.175,3.633,3.633,0,0,0-1.885-3.189l-12.3-6.719a69.2,69.2,0,0,1-27.6-27.554L116.4,46.63a3.776,3.776,0,0,0-6.364,0L103.3,58.919A69.2,69.2,0,0,1,75.7,86.473L63.4,93.191a3.634,3.634,0,0,0-.014,6.378l12.3,6.719a69.2,69.2,0,0,1,27.6,27.554l6.733,12.289a3.616,3.616,0,0,0,6.35,0l6.733-12.289a69.453,69.453,0,0,1,27.611-27.568Zm-37.5,30.545-3.543-6.478A76.5,76.5,0,0,0,79.189,99.91l-6.478-3.543,6.478-3.529a76.319,76.319,0,0,0,30.474-30.431l3.543-6.478,3.543,6.478a76.5,76.5,0,0,0,30.474,30.431l6.478,3.543-6.478,3.529a76.319,76.319,0,0,0-30.474,30.431Z" transform="translate(134.936 91.699)"/>
        <path id="路径_1082" data-name="路径 1082" d="M17.6,116.26l12.3,6.719a69.2,69.2,0,0,1,27.6,27.554l6.733,12.289a3.633,3.633,0,0,0,3.189,1.885,3.594,3.594,0,0,0,3.175-1.885l6.733-12.289a69.205,69.205,0,0,1,27.6-27.554l12.3-6.719a3.64,3.64,0,0,0,0-6.378l-12.3-6.719a69.2,69.2,0,0,1-27.6-27.554L70.592,63.321a3.776,3.776,0,0,0-6.364,0L57.495,75.61a69.294,69.294,0,0,1-27.6,27.554l-12.3,6.719a3.633,3.633,0,0,0-1.885,3.189A3.588,3.588,0,0,0,17.6,116.26Zm15.776-6.718A76.531,76.531,0,0,0,63.859,79.111L67.4,72.633l3.558,6.478a76.5,76.5,0,0,0,30.474,30.431l6.478,3.543-6.478,3.529A76.319,76.319,0,0,0,70.96,147.046l-3.543,6.478-3.543-6.478a76.534,76.534,0,0,0-30.488-30.431l-6.478-3.543Z" transform="translate(14.579 135.571)"/>
        <path id="路径_1083" data-name="路径 1083" d="M91.287,149.113a3.594,3.594,0,0,0,3.175-1.885l8.164-14.9a84.624,84.624,0,0,1,33.762-33.705l14.911-8.15a3.634,3.634,0,0,0,.014-6.378L136.4,75.947A84.624,84.624,0,0,1,102.64,42.242l-8.164-14.9a3.776,3.776,0,0,0-6.364,0l-8.164,14.9A84.624,84.624,0,0,1,46.186,75.947L31.275,84.1a3.634,3.634,0,0,0-.014,6.378l14.911,8.15a84.624,84.624,0,0,1,33.762,33.705l8.164,14.9a3.633,3.633,0,0,0,3.189,1.885ZM49.657,92.262,40.572,87.3l9.085-4.961A91.969,91.969,0,0,0,86.312,45.757l4.975-9.1,4.975,9.085a91.857,91.857,0,0,0,36.655,36.582L142,87.287l-9.085,4.961A91.969,91.969,0,0,0,96.262,128.83l-4.975,9.1-4.975-9.085A91.857,91.857,0,0,0,49.657,92.262Z" transform="translate(50.497 41.008)"/>
        <path id="路径_1084" data-name="路径 1084" d="M30.432,85.863A20.283,20.283,0,1,0,10.164,65.58,20.3,20.3,0,0,0,30.432,85.863Zm0-33.308A13.026,13.026,0,1,1,17.421,65.58,13.033,13.033,0,0,1,30.432,52.554Z" transform="translate(0 92.778)"/>
        <path id="路径_1085" data-name="路径 1085" d="M100.615,43.849A20.268,20.268,0,1,0,80.347,64.131,20.3,20.3,0,0,0,100.615,43.849Zm-33.28,0A13.011,13.011,0,1,1,80.346,56.874,13.042,13.042,0,0,1,67.335,43.849Z" transform="translate(131.199 35.658)"/>
        <path id="路径_1086" data-name="路径 1086" d="M87.128,78.824A20.275,20.275,0,1,0,107.4,99.092,20.3,20.3,0,0,0,87.128,78.824Zm0,33.294a13.026,13.026,0,1,1,13.011-13.026A13.033,13.033,0,0,1,87.128,112.118Z" transform="translate(149.022 180.903)"/>
        <path id="路径_1087" data-name="路径 1087" d="M71.714,104.019A20.283,20.283,0,1,0,51.445,83.736,20.3,20.3,0,0,0,71.714,104.019Zm0-33.294A13.026,13.026,0,1,1,58.7,83.75,13.033,13.033,0,0,1,71.714,70.724Z" transform="translate(108.507 140.501)"/>
      </g>
    </g>
  </g>
</svg>
