<svg xmlns="http://www.w3.org/2000/svg" xmlns:xlink="http://www.w3.org/1999/xlink" width="2849.526" height="3505.099" viewBox="0 0 2849.526 3505.099">
  <defs>
    <style>
      .cls-1 {
        clip-path: url(#clip-Artboard_27);
      }

      .cls-2, .cls-6, .cls-8 {
        fill: #fff;
      }

      .cls-2, .cls-7 {
        stroke: #000;
      }

      .cls-2 {
        stroke-width: 2px;
        fill-rule: evenodd;
      }

      .cls-3, .cls-4 {
        font-size: 64px;
      }

      .cls-3 {
        font-family: Helvetica-Bold, Helvetica;
        font-weight: 700;
        letter-spacing: 0.1em;
      }

      .cls-4 {
        fill: #797777;
        font-family: PingFangSC-Regular, PingFang SC;
        letter-spacing: 0.05em;
      }

      .cls-5 {
        fill: #ca3136;
      }

      .cls-6 {
        font-size: 71px;
        font-family: Helvetica;
      }

      .cls-7 {
        fill: none;
        stroke-linecap: round;
        stroke-linejoin: round;
        stroke-width: 6px;
      }
    </style>
    <clipPath id="clip-Artboard_27">
      <rect width="2849.526" height="3505.099"/>
    </clipPath>
  </defs>
  <g id="Artboard_27" data-name="Artboard – 27" class="cls-1">
    <rect class="cls-8" width="2849.526" height="3505.099"/>
    <path id="path2427" class="cls-2" d="M-32.705,436.919C400.671,165.76,770.636,193.2,1137.011-40.432c196.537,50.319,342.849,30.2,478.1-5.425,414.964,223.263,779.818,259.059,1169.711,488.2-32.406,239.264-103.771,446.008-222.794,612.963-144.416-90.452-281.057-126.392-413.115-130.187l-9.291,1627.336c-568.927,123.832-1051.144,70.328-1522.482-5.42L612.5,930.545c-165.972-5.635-292.253,66.039-422.4,130.187C64.929,861.294,6.445,650.72-32.706,436.919h0Z" transform="translate(43.705 168.857)"/>
    <g id="组_35" data-name="组 35">
      <g id="组_4" data-name="组 4" transform="translate(1218.365 628.533)">
        <text id="Accepted" class="cls-3" transform="translate(206.445 625.003)"><tspan x="-166.447" y="0">Accepted</tspan></text>
        <text id="心想事成" class="cls-4" transform="translate(206 747.008)"><tspan x="-132.8" y="0">心想事成</tspan></text>
        <g id="icon" transform="translate(489.4 0)">
          <rect id="矩形_1" data-name="矩形 1" class="cls-5" width="69.914" height="204.365" rx="10" transform="translate(0 13.445)"/>
          <text id="_2_0_2" data-name="2
0
2" class="cls-6" transform="translate(34.756 75)"><tspan x="-19.743" y="0">2</tspan><tspan x="-19.743" y="61">0</tspan><tspan x="-19.743" y="122">2</tspan></text>
        </g>
      </g>
      <g id="np_accept-schedule_1571278_000000" transform="translate(1294.075 754.541)">
        <path id="路径_1088" data-name="路径 1088" class="cls-7" d="M133.309,75.524,63.78,118.764,32.176,60.64l12.655-7.206L63.78,89.762l56.89-36.033Z" transform="translate(37.705 126.932)"/>
        <path id="路径_1089" data-name="路径 1089" class="cls-7" d="M37.662,20.695,16.7,8.59V201.048L219.451,318.109V125.638l-20.976-12.1" transform="translate(0.012 17.715)"/>
        <path id="路径_1090" data-name="路径 1090" class="cls-7" d="M147.767,84.266,28.907,15.637" transform="translate(29.742 34.878)"/>
        <path id="路径_1091" data-name="路径 1091" class="cls-7" d="M219.459,140.824,16.695,23.762" transform="translate(0 54.667)"/>
        <path id="路径_1092" data-name="路径 1092" class="cls-7" d="M63.5,76.721l20.976,12.1V40.714L63.5,28.609Z" transform="translate(113.996 66.473)"/>
        <path id="路径_1093" data-name="路径 1093" class="cls-7" d="M22.8,53.22,43.777,65.339V17.214L22.8,5.109Z" transform="translate(14.873 9.238)"/>
        <path id="路径_1094" data-name="路径 1094" class="cls-7" d="M98.172,239.92V47.462L77.2,35.344" transform="translate(147.352 82.875)"/>
        <path id="路径_1095" data-name="路径 1095" class="cls-7" d="M24.29,20.009v-.04" transform="translate(18.497 45.428)"/>
        <path id="路径_1096" data-name="路径 1096" class="cls-7" d="M133.018,67.541,36.488,11.849" transform="translate(48.207 25.652)"/>
        <path id="路径_1097" data-name="路径 1097" class="cls-7" d="M84.489,54.746,63.5,42.614" transform="translate(113.995 100.58)"/>
        <path id="路径_1098" data-name="路径 1098" class="cls-7" d="M40.139,29.135,24.29,19.969" transform="translate(18.497 45.429)"/>
        <path id="路径_1099" data-name="路径 1099" class="cls-7" d="M75.715,107.923,101.79,94.892" transform="translate(143.744 227.905)"/>
        <path id="路径_1100" data-name="路径 1100" class="cls-7" d="M75.715,51.889,101.79,38.872" transform="translate(143.744 91.467)"/>
        <path id="路径_1101" data-name="路径 1101" class="cls-7" d="M74.682,24.809,95.671,36.941V61L69.61,74.035" transform="translate(128.874 57.218)"/>
        <path id="路径_1102" data-name="路径 1102" class="cls-7" d="M69.606,41.371,95.681,28.34" transform="translate(128.865 65.817)"/>
        <path id="路径_1103" data-name="路径 1103" class="cls-7" d="M63.5,37.857,89.553,24.813" transform="translate(114.005 57.225)"/>
        <path id="路径_1104" data-name="路径 1104" class="cls-7" d="M28.9,50.542,54.965,37.5V13.435L33.989,1.317" transform="translate(29.733 0.001)"/>
        <path id="路径_1105" data-name="路径 1105" class="cls-7" d="M28.907,17.861,54.955,4.844" transform="translate(29.742 8.591)"/>
        <path id="路径_1106" data-name="路径 1106" class="cls-7" d="M22.8,14.347,48.85,1.316" transform="translate(14.873)"/>
        <path id="路径_1107" data-name="路径 1107" class="cls-7" d="M39.03,5.336,16.7,16.5" transform="translate(0.01 9.79)"/>
      </g>
    </g>
  </g>
</svg>
