<svg xmlns="http://www.w3.org/2000/svg" xmlns:xlink="http://www.w3.org/1999/xlink" width="2849.525" height="3505.1" viewBox="0 0 2849.525 3505.1">
  <defs>
    <style>
      .cls-1 {
        clip-path: url(#clip-Artboard_50);
      }

      .cls-2, .cls-6, .cls-7 {
        fill: #fff;
      }

      .cls-2 {
        stroke: #000;
        stroke-width: 2px;
        fill-rule: evenodd;
      }

      .cls-3, .cls-4 {
        font-size: 64px;
      }

      .cls-3 {
        font-family: Helvetica-Bold, Helvetica;
        font-weight: 700;
        letter-spacing: 0.1em;
      }

      .cls-4 {
        fill: #797777;
        font-family: PingFangSC-Regular, PingFang SC;
        letter-spacing: 0.05em;
      }

      .cls-5 {
        fill: #ca3136;
      }

      .cls-6 {
        font-size: 71px;
        font-family: Helvetica;
      }
    </style>
    <clipPath id="clip-Artboard_50">
      <rect width="2849.526" height="3505.099"/>
    </clipPath>
  </defs>
  <g id="Artboard_50" data-name="Artboard – 50" class="cls-1">
    <rect class="cls-7" width="2849.526" height="3505.099"/>
    <path id="path2427" class="cls-2" d="M-32.705,436.919C400.671,165.76,770.636,193.2,1137.011-40.432c196.537,50.319,342.849,30.2,478.1-5.425,414.964,223.263,779.818,259.059,1169.711,488.2-32.406,239.264-103.771,446.008-222.794,612.963-144.416-90.452-281.057-126.392-413.115-130.187l-9.291,1627.336c-568.927,123.832-1051.144,70.328-1522.482-5.42L612.5,930.545c-165.972-5.635-292.253,66.039-422.4,130.187C64.929,861.294,6.445,650.72-32.706,436.919h0Z" transform="translate(64.336 222.846)"/>
    <g id="组_6" data-name="组 6" transform="translate(1205.996 719.521)">
      <text id="No_Content" data-name="No Content" class="cls-3" transform="translate(234.445 625.003)"><tspan x="-201.206" y="0">No Content</tspan></text>
      <text id="聪明人才看得见" class="cls-4" transform="translate(234 747.008)"><tspan x="-233.6" y="0">聪明人才看得见</tspan></text>
      <g id="icon" transform="translate(489.4 0)">
        <rect id="矩形_1" data-name="矩形 1" class="cls-5" width="69.914" height="204.365" rx="10" transform="translate(0 13.445)"/>
        <text id="_2_0_4" data-name="2
0
4" class="cls-6" transform="translate(34.756 75)"><tspan x="-19.743" y="0">2</tspan><tspan x="-19.743" y="61">0</tspan><tspan x="-19.743" y="122">4</tspan></text>
      </g>
    </g>
  </g>
</svg>
