<svg xmlns="http://www.w3.org/2000/svg" xmlns:xlink="http://www.w3.org/1999/xlink" width="2849.526" height="3505.099" viewBox="0 0 2849.526 3505.099">
  <defs>
    <style>
      .cls-1 {
        clip-path: url(#clip-Artboard_28);
      }

      .cls-2, .cls-7, .cls-8 {
        fill: #fff;
      }

      .cls-2 {
        stroke: #000;
        stroke-width: 2px;
        fill-rule: evenodd;
      }

      .cls-3, .cls-4 {
        font-size: 64px;
      }

      .cls-3 {
        font-family: Helvetica-Bold, Helvetica;
        font-weight: 700;
        letter-spacing: 0.1em;
      }

      .cls-4 {
        fill: #797777;
        font-family: PingFangSC-Regular, PingFang SC;
        letter-spacing: 0.05em;
      }

      .cls-5, .cls-7 {
        font-family: Helvetica;
      }

      .cls-6 {
        fill: #ca3136;
      }

      .cls-7 {
        font-size: 71px;
      }
    </style>
    <clipPath id="clip-Artboard_28">
      <rect width="2849.526" height="3505.099"/>
    </clipPath>
  </defs>
  <g id="Artboard_28" data-name="Artboard – 28" class="cls-1">
    <rect class="cls-8" width="2849.526" height="3505.099"/>
    <path id="path2427" class="cls-2" d="M-32.705,436.919C400.671,165.76,770.636,193.2,1137.011-40.432c196.537,50.319,342.849,30.2,478.1-5.425,414.964,223.263,779.818,259.059,1169.711,488.2-32.406,239.264-103.771,446.008-222.794,612.963-144.416-90.452-281.057-126.392-413.115-130.187l-9.291,1627.336c-568.927,123.832-1051.144,70.328-1522.482-5.42L612.5,930.545c-165.972-5.635-292.253,66.039-422.4,130.187C64.929,861.294,6.445,650.72-32.706,436.919h0Z" transform="translate(43.705 168.857)"/>
    <g id="组_42" data-name="组 42">
      <g id="组_4" data-name="组 4" transform="translate(1218.365 628.533)">
        <text id="Partial_Content" data-name="Partial Content" class="cls-3" transform="translate(206.445 625.003)"><tspan x="-272.378" y="0">Partial Content</tspan></text>
        <text id="不完美_·_但精彩" data-name="不完美 · 但精彩" class="cls-4" transform="translate(206 747.008)"><tspan x="-231.472" y="0">不完美</tspan><tspan class="cls-5" y="0" xml:space="preserve"> · </tspan><tspan y="0">但精彩</tspan></text>
        <g id="icon" transform="translate(489.4 0)">
          <rect id="矩形_1" data-name="矩形 1" class="cls-6" width="69.914" height="204.365" rx="10" transform="translate(0 13.445)"/>
          <text id="_2_0_6" data-name="2
0
6" class="cls-7" transform="translate(34.756 75)"><tspan x="-19.743" y="0">2</tspan><tspan x="-19.743" y="61">0</tspan><tspan x="-19.743" y="122">6</tspan></text>
        </g>
      </g>
      <path id="np_partial-neural-network_961659_000000" d="M144.182,58.761a23.482,23.482,0,0,0,6.253.936,23.946,23.946,0,1,0-23.946-23.946,23.676,23.676,0,0,0,.34,3.346L52.678,76.172a23.94,23.94,0,1,0-16.928,40.86A23.312,23.312,0,0,0,42,116.1l22.883,34.338L42,184.759a23.482,23.482,0,0,0-6.253-.936A23.946,23.946,0,1,0,52.679,224.7l74.15,37.075a23.675,23.675,0,0,0-.34,3.346,23.946,23.946,0,1,0,23.946-23.946,23.4,23.4,0,0,0-6.253.936l-40.037-60.057,29.362-14.688a23.953,23.953,0,1,0,0-33.842l-29.376-14.688Zm6.253-31.829a8.819,8.819,0,1,1-8.819,8.819,8.828,8.828,0,0,1,8.819-8.819ZM128.36,55.245,90.5,112.014,59.357,96.433a23.673,23.673,0,0,0,.34-3.346,23.672,23.672,0,0,0-.34-3.346ZM26.934,93.086a8.819,8.819,0,1,1,8.819,8.819,8.828,8.828,0,0,1-8.819-8.819Zm30.907,19.494,24.216,12.108L73.99,136.8ZM73.99,164.061l8.067,12.108L57.842,188.277ZM35.753,216.605a8.819,8.819,0,1,1,8.819-8.833,8.828,8.828,0,0,1-8.819,8.833Zm123.5,48.515a8.819,8.819,0,1,1-8.819-8.819A8.828,8.828,0,0,1,159.254,265.121Zm-30.907-19.494L59.357,211.132a16.691,16.691,0,0,0,0-6.706l31.148-15.567ZM150.435,141.62a8.819,8.819,0,1,1-8.819,8.819A8.828,8.828,0,0,1,150.435,141.62Zm-23.606,5.473a16.621,16.621,0,0,0,0,6.692L95.681,169.351,83.063,150.439l12.618-18.927ZM265.12,183.826a23.946,23.946,0,1,0,23.946,23.946A23.979,23.979,0,0,0,265.12,183.826Zm0,32.779a8.826,8.826,0,1,1,8.819-8.833A8.831,8.831,0,0,1,265.12,216.6Zm0-99.571a23.946,23.946,0,1,0-23.946-23.946A23.979,23.979,0,0,0,265.12,117.034Zm0-32.764a8.819,8.819,0,1,1-8.819,8.819A8.828,8.828,0,0,1,265.12,84.269Z" transform="translate(1290.325 773.326)"/>
    </g>
  </g>
</svg>
