<svg xmlns="http://www.w3.org/2000/svg" xmlns:xlink="http://www.w3.org/1999/xlink" width="2849.525" height="3505.099" viewBox="0 0 2849.525 3505.099">
  <defs>
    <style>
      .cls-1 {
        clip-path: url(#clip-Artboard_29);
      }

      .cls-2, .cls-7, .cls-8 {
        fill: #fff;
      }

      .cls-2 {
        stroke: #000;
        stroke-width: 2px;
        fill-rule: evenodd;
      }

      .cls-3, .cls-4 {
        font-size: 64px;
      }

      .cls-3 {
        font-family: Helvetica-Bold, Helvetica;
        font-weight: 700;
        letter-spacing: 0.1em;
      }

      .cls-4 {
        fill: #797777;
        font-family: PingFangSC-Regular, PingFang SC;
        letter-spacing: 0.05em;
      }

      .cls-5, .cls-7 {
        font-family: Helvetica;
      }

      .cls-6 {
        fill: #ca3136;
      }

      .cls-7 {
        font-size: 71px;
      }
    </style>
    <clipPath id="clip-Artboard_29">
      <rect width="2849.526" height="3505.099"/>
    </clipPath>
  </defs>
  <g id="Artboard_29" data-name="Artboard – 29" class="cls-1">
    <rect class="cls-8" width="2849.526" height="3505.099"/>
    <path id="path2427" class="cls-2" d="M-32.705,436.919C400.671,165.76,770.636,193.2,1137.011-40.432c196.537,50.319,342.849,30.2,478.1-5.425,414.964,223.263,779.818,259.059,1169.711,488.2-32.406,239.264-103.771,446.008-222.794,612.963-144.416-90.452-281.057-126.392-413.115-130.187l-9.291,1627.336c-568.927,123.832-1051.144,70.328-1522.482-5.42L612.5,930.545c-165.972-5.635-292.253,66.039-422.4,130.187C64.929,861.294,6.445,650.72-32.706,436.919h0Z" transform="translate(43.705 168.857)"/>
    <g id="组_41" data-name="组 41">
      <g id="组_4" data-name="组 4" transform="translate(1218.365 628.533)">
        <text id="Already_Reported" data-name="Already Reported" class="cls-3" transform="translate(206.445 625.003)"><tspan x="-314.734" y="0">Already Reported</tspan></text>
        <text id="人在做_·_天在log" data-name="人在做 · 天在log" class="cls-4" transform="translate(206 747.008)"><tspan x="-245.375" y="0">人在做</tspan><tspan class="cls-5" y="0" xml:space="preserve"> · </tspan><tspan y="0">天在</tspan><tspan class="cls-5" y="0">log</tspan></text>
        <g id="icon" transform="translate(506.4 -57)">
          <rect id="矩形_1" data-name="矩形 1" class="cls-6" width="69.914" height="204.365" rx="10" transform="translate(0 13.445)"/>
          <text id="_2_0_8" data-name="2
0
8" class="cls-7" transform="translate(34.756 75)"><tspan x="-19.743" y="0">2</tspan><tspan x="-19.743" y="61">0</tspan><tspan x="-19.743" y="122">8</tspan></text>
        </g>
      </g>
      <g id="np_thai-temple_2068854_000000" transform="translate(1271.193 709.759)">
        <path id="路径_1108" data-name="路径 1108" d="M64.847,34.695H52.282a5.161,5.161,0,0,0-5.466,5.466,5.161,5.161,0,0,0,5.466,5.466H64.847a5.161,5.161,0,0,0,5.466-5.466A5.484,5.484,0,0,0,64.847,34.695Z" transform="translate(109.379 86.475)"/>
        <path id="路径_1109" data-name="路径 1109" d="M63.205,23.789H57.739a5.161,5.161,0,0,0-5.466,5.466,5.161,5.161,0,0,0,5.466,5.466h5.466a5.161,5.161,0,0,0,5.466-5.466A5.484,5.484,0,0,0,63.205,23.789Z" transform="translate(123.603 58.051)"/>
        <path id="路径_1110" data-name="路径 1110" d="M59.729,29.255a5.161,5.161,0,0,0-5.466-5.466H48.8a5.161,5.161,0,0,0-5.466,5.466A5.161,5.161,0,0,0,48.8,34.721h5.466A5.494,5.494,0,0,0,59.729,29.255Z" transform="translate(100.299 58.052)"/>
        <path id="路径_1111" data-name="路径 1111" d="M10.312,351.209h314.18a5.161,5.161,0,0,0,5.466-5.466v-1.1a33.834,33.834,0,0,0-33.879-32.78H282.964a26.4,26.4,0,0,0,5.466-15.848,26.823,26.823,0,0,0-26.779-26.779l-1.085.014V217.34a.538.538,0,0,0,.549-.549,126.912,126.912,0,0,0,34.429-87.423C296.079,58.891,238.169,1.515,167.677,1.515s-128.4,57.375-128.4,128.4a128.38,128.38,0,0,0,34.429,87.423l.549.549-.014,51.36h-1.1a26.823,26.823,0,0,0-26.779,26.779,26.4,26.4,0,0,0,5.466,15.848l-13.1-.014A34.047,34.047,0,0,0,4.848,345.74a5.475,5.475,0,0,0,5.466,5.466ZM277.5,296.03a15.854,15.854,0,0,1-15.848,15.848H227.223a15.848,15.848,0,1,1,0-31.7h34.429A15.854,15.854,0,0,1,277.5,296.03ZM108.117,280.182a15.854,15.854,0,0,1,15.848,15.848,15.328,15.328,0,0,1-13.115,15.3L90.086,280.182Zm21.314,0h75.955a25.708,25.708,0,0,0,0,31.7l-75.955-.014a26.4,26.4,0,0,0,5.466-15.848c0-6-2.183-10.917-5.466-15.834ZM50.205,129.917a117.282,117.282,0,0,1,117.47-117.47c64.476,0,117.47,52.46,117.47,117.47,0,26.23-8.748,50.812-24.582,71.577v-7.649a43.833,43.833,0,0,0-43.711-43.711h-18.58a36.5,36.5,0,0,0,13.664-28.413V95.49h6.015a5.466,5.466,0,1,0,0-10.931h-6.015V65.978c0-21.863-20.215-39.344-44.26-39.344s-44.26,17.482-44.26,39.344v18.58H117.4a5.466,5.466,0,0,0,0,10.931h6.015v26.23c0,10.931,5.466,21.314,13.664,28.413H118.5A43.833,43.833,0,0,0,74.79,193.845v7.649c-15.848-20.764-24.582-45.345-24.582-71.577Zm117.47,56.276-27.314-25.68H195Zm-33.33-65.024v-31.7c0-15.848,15.3-28.413,33.33-28.413s33.33,12.566,33.33,28.413v31.7c0,15.848-15.3,28.413-33.33,28.413S134.346,137.016,134.346,121.168Zm0-57.361c1.1-14.749,15.848-26.779,33.33-26.779s32.231,12.016,33.33,26.779a47.48,47.48,0,0,0-66.659,0ZM85.719,193.293a32.874,32.874,0,0,1,32.78-32.78h5.466l39.892,37.162.549.549,37.162,26.23h-1.634a5.161,5.161,0,0,0-5.466,5.466V247.4H141.475V229.92a5.161,5.161,0,0,0-5.466-5.466H108.7v-30.6a5.466,5.466,0,0,0-10.931,0V229.92a5.161,5.161,0,0,0,5.466,5.466h8.748v8.748a5.466,5.466,0,1,0,10.931,0v-8.748h7.649v17.482a5.161,5.161,0,0,0,5.466,5.466h63.928a5.161,5.161,0,0,0,5.466-5.466V235.386h8.2V248.5a5.466,5.466,0,0,0,10.931,0V235.386h8.2a5.161,5.161,0,0,0,5.466-5.466V193.858a5.466,5.466,0,0,0-10.931,0v30.6h-6.55l-44.3-31.7,34.964-32.231,5.466-.014a32.874,32.874,0,0,1,32.78,32.78v75.955H85.721ZM57.855,296.028A15.854,15.854,0,0,1,73.7,280.18h3.282l20.764,31.7H73.167c-8.213-.014-15.313-7.114-15.313-15.848Zm-19.13,26.765H296.078c10.931,0,19.665,7.649,22.4,17.482H16.874a22.79,22.79,0,0,1,21.849-17.482Z" transform="translate(0 0)"/>
      </g>
    </g>
  </g>
</svg>
