<svg xmlns="http://www.w3.org/2000/svg" xmlns:xlink="http://www.w3.org/1999/xlink" width="2849.525" height="3505.099" viewBox="0 0 2849.525 3505.099">
  <defs>
    <style>
      .cls-1 {
        clip-path: url(#clip-Artboard_30);
      }

      .cls-2, .cls-6, .cls-7 {
        fill: #fff;
      }

      .cls-2 {
        stroke: #000;
        stroke-width: 2px;
        fill-rule: evenodd;
      }

      .cls-3, .cls-4 {
        font-size: 64px;
      }

      .cls-3 {
        font-family: Helvetica-Bold, Helvetica;
        font-weight: 700;
        letter-spacing: 0.1em;
      }

      .cls-4 {
        fill: #797777;
        font-family: PingFangSC-Regular, PingFang SC;
        letter-spacing: 0.05em;
      }

      .cls-5 {
        fill: #ca3136;
      }

      .cls-6 {
        font-size: 71px;
        font-family: Helvetica;
      }
    </style>
    <clipPath id="clip-Artboard_30">
      <rect width="2849.526" height="3505.099"/>
    </clipPath>
  </defs>
  <g id="Artboard_30" data-name="Artboard – 30" class="cls-1">
    <rect class="cls-7" width="2849.526" height="3505.099"/>
    <path id="path2427" class="cls-2" d="M-32.705,436.919C400.671,165.76,770.636,193.2,1137.011-40.432c196.537,50.319,342.849,30.2,478.1-5.425,414.964,223.263,779.818,259.059,1169.711,488.2-32.406,239.264-103.771,446.008-222.794,612.963-144.416-90.452-281.057-126.392-413.115-130.187l-9.291,1627.336c-568.927,123.832-1051.144,70.328-1522.482-5.42L612.5,930.545c-165.972-5.635-292.253,66.039-422.4,130.187C64.929,861.294,6.445,650.72-32.706,436.919h0Z" transform="translate(43.705 168.857)"/>
    <g id="组_40" data-name="组 40">
      <g id="组_4" data-name="组 4" transform="translate(1218.365 628.533)">
        <text id="Found" class="cls-3" transform="translate(206.445 625.003)"><tspan x="-110.534" y="0">Found</tspan></text>
        <text id="终有所获" class="cls-4" transform="translate(206 747.008)"><tspan x="-132.8" y="0">终有所获</tspan></text>
        <g id="icon" transform="translate(433.4 -50)">
          <rect id="矩形_1" data-name="矩形 1" class="cls-5" width="69.914" height="204.365" rx="10" transform="translate(0 13.445)"/>
          <text id="_3_0_2" data-name="3
0
2" class="cls-6" transform="translate(34.756 75)"><tspan x="-19.743" y="0">3</tspan><tspan x="-19.743" y="61">0</tspan><tspan x="-19.743" y="122">2</tspan></text>
        </g>
      </g>
      <g id="np_success_2173109_000000" transform="translate(1244.922 751.153)">
        <path id="路径_1112" data-name="路径 1112" d="M27.979,41.817H39.455V31.237h10.6V19.76h-10.6V9.18H27.979V19.76H17.4V31.237h10.58Z" transform="translate(37.326 25.498)"/>
        <path id="路径_1113" data-name="路径 1113" d="M106,80.885V67.749h13.136V56.272H106V43.137H94.518V56.272H81.382V67.749H94.518V80.885Z" transform="translate(218.121 121.448)"/>
        <path id="路径_1114" data-name="路径 1114" d="M106.452,68.081a5.705,5.705,0,0,0-4.932,1.33L70.8,96.624,37.726,69.291l-7.308,8.847,36.852,30.47a5.752,5.752,0,0,0,7.472-.12L103.463,83.04l27.407,56.654,10.341-4.991L110.5,71.22a5.772,5.772,0,0,0-4.05-3.138Z" transform="translate(74.114 191.606)"/>
        <path id="路径_1115" data-name="路径 1115" d="M354.232,364.479,284.219,201.951a5.728,5.728,0,0,0-4.483-3.407,5.654,5.654,0,0,0-5.245,2.062l-15.422,18.9-23.043-40.946a5.736,5.736,0,0,0-4.991-2.929l-7.816-.015,5.948-57.8-.09-.015a3.659,3.659,0,0,0,.12-.583V69.041l26.959-41.963a15.842,15.842,0,0,0-3.347-20.891c-6.321-4.947-15.99-3.2-20.4,3.676L210.68,43.68a18.327,18.327,0,0,0-2.212-.149H181.51a15.714,15.714,0,0,0-2.212.149L157.569,9.862c-4.408-6.874-14.062-8.638-20.383-3.676a15.845,15.845,0,0,0-3.332,20.906L160.8,69.056v48.18c0,.209.1.374.12.583l-.09.015,5.948,57.8H148.992V81.069a5.734,5.734,0,0,0-8.04-5.26L83.8,100.885a5.749,5.749,0,0,0-.015,10.52L137.5,134.972v40.663H131.52a5.763,5.763,0,0,0-5.021,2.959l-40.93,74.06L70,240.34a5.752,5.752,0,0,0-8.772,2.092l-56.5,121.9A5.759,5.759,0,0,0,9.936,372.5H348.968a5.733,5.733,0,0,0,5.26-8.025ZM100.393,106.13l37.12-16.289v32.592Zm43.126-85.224a4.439,4.439,0,0,1,.747-5.649,2.425,2.425,0,0,1,3.661.837l23.94,37.27a5.747,5.747,0,0,0,6.859,2.271,8.064,8.064,0,0,1,2.794-.583h26.959a8,8,0,0,1,2.794.583,5.759,5.759,0,0,0,6.859-2.271l23.94-37.27a2.436,2.436,0,0,1,3.661-.837,4.461,4.461,0,0,1,.762,5.664L218.643,64.3a5.721,5.721,0,0,0-.912,3.108v44.113H172.3V67.412a5.722,5.722,0,0,0-.912-3.108Zm29.395,102.068H217.1l-5.425,52.648H200.74V143.912H189.263v31.711H178.324Zm-154,238.042L68.574,253.853l15.168,12a5.7,5.7,0,0,0,4.693,1.121,5.764,5.764,0,0,0,3.9-2.839L134.925,187.1h92.756l23.611,41.948-29.6,36.3,8.892,7.248,46.833-57.43,62.825,145.852Z" transform="translate(0 9.036)"/>
        <path id="路径_1116" data-name="路径 1116" d="M72.135,49.082A24.463,24.463,0,1,0,47.671,24.619,24.494,24.494,0,0,0,72.135,49.082Zm0-37.45A12.986,12.986,0,1,1,59.148,24.619,12.994,12.994,0,0,1,72.135,11.633Z" transform="translate(122.866 0)"/>
        <path id="路径_1117" data-name="路径 1117" d="M92.716,77.416h44.833a20.892,20.892,0,0,0,2.092-41.678A27.285,27.285,0,0,0,87.905,39.4a19.312,19.312,0,0,0,4.812,38.017Zm-.239-27.153a3.377,3.377,0,0,0,.389.015,5.73,5.73,0,0,0,5.724-5.32,15.827,15.827,0,0,1,31.278-2.182,6,6,0,0,0,6.725,4.438c5.44-.792,10.371,3.781,10.371,9.31a9.423,9.423,0,0,1-9.414,9.415H92.715a7.84,7.84,0,0,1-.239-15.676Z" transform="translate(195.55 52.529)"/>
        <path id="路径_1118" data-name="路径 1118" d="M22.549,86.913H61.987a19.073,19.073,0,0,0,2.316-38A24.675,24.675,0,0,0,17.768,52.2,17.688,17.688,0,0,0,22.55,86.912ZM22.4,63.032a5.608,5.608,0,0,0,6.022-5.305,13.218,13.218,0,0,1,26.122-1.838,5.9,5.9,0,0,0,6.59,4.453,7.564,7.564,0,1,1,.852,15.078l-39.438.015a6.2,6.2,0,0,1-.15-12.4Z" transform="translate(1.929 95.367)"/>
      </g>
    </g>
  </g>
</svg>
