<svg xmlns="http://www.w3.org/2000/svg" xmlns:xlink="http://www.w3.org/1999/xlink" width="2849.525" height="3505.1" viewBox="0 0 2849.525 3505.1">
  <defs>
    <style>
      .cls-1 {
        clip-path: url(#clip-Artboard_31);
      }

      .cls-2, .cls-6, .cls-8 {
        fill: #fff;
      }

      .cls-2 {
        stroke: #000;
        stroke-width: 2px;
        fill-rule: evenodd;
      }

      .cls-3, .cls-4 {
        font-size: 64px;
      }

      .cls-3 {
        font-family: Helvetica-Bold, Helvetica;
        font-weight: 700;
        letter-spacing: 0.1em;
      }

      .cls-4, .cls-7 {
        fill: #797777;
      }

      .cls-4 {
        font-family: PingFangSC-Regular, PingFang SC;
        letter-spacing: 0.05em;
      }

      .cls-5 {
        fill: #ca3136;
      }

      .cls-6 {
        font-size: 71px;
        font-family: Helvetica;
      }
    </style>
    <clipPath id="clip-Artboard_31">
      <rect width="2849.526" height="3505.099"/>
    </clipPath>
  </defs>
  <g id="Artboard_31" data-name="Artboard – 31" class="cls-1">
    <rect class="cls-8" width="2849.526" height="3505.099"/>
    <path id="path2427" class="cls-2" d="M-32.705,436.919C400.671,165.76,770.636,193.2,1137.011-40.432c196.537,50.319,342.849,30.2,478.1-5.425,414.964,223.263,779.818,259.059,1169.711,488.2-32.406,239.264-103.771,446.008-222.794,612.963-144.416-90.452-281.057-126.392-413.115-130.187l-9.291,1627.336c-568.927,123.832-1051.144,70.328-1522.482-5.42L612.5,930.545c-165.972-5.635-292.253,66.039-422.4,130.187C64.929,861.294,6.445,650.72-32.706,436.919h0Z" transform="translate(43.705 168.857)"/>
    <g id="组_4" data-name="组 4" transform="translate(1218.365 628.533)">
      <text id="See_Other" data-name="See Other" class="cls-3" transform="translate(206.445 625.003)"><tspan x="-176.772" y="0">See Other</tspan></text>
      <text id="不要在一个算法上吊死" class="cls-4" transform="translate(206 747.008)"><tspan x="-334.4" y="0">不要在一个算法上吊死</tspan></text>
      <g id="icon" transform="translate(489.4 0)">
        <rect id="矩形_1" data-name="矩形 1" class="cls-5" width="69.914" height="204.365" rx="10" transform="translate(0 13.445)"/>
        <text id="_3_0_3" data-name="3
0
3" class="cls-6" transform="translate(34.756 75)"><tspan x="-19.743" y="0">3</tspan><tspan x="-19.743" y="61">0</tspan><tspan x="-19.743" y="122">3</tspan></text>
      </g>
    </g>
    <g id="np_computer-science_2475084_000000" transform="translate(1238.081 713.082)">
      <path id="路径_1119" data-name="路径 1119" d="M364.543,265.343h-6.126V75.443a30.659,30.659,0,0,0-30.629-30.629H291.034V32.563H278.783V44.814H266.531V26.437H254.28V44.814H217.525V32.563H205.274V44.814H168.519v-24.5H156.268v24.5H119.514V32.563H107.262V44.814H95.011V26.437H82.759V44.814H52.13A30.659,30.659,0,0,0,21.5,75.443v189.9H9.25a6.124,6.124,0,0,0-6.126,6.126v18.377a30.659,30.659,0,0,0,30.629,30.629H340.04a30.659,30.659,0,0,0,30.629-30.629V271.469A6.124,6.124,0,0,0,364.543,265.343ZM33.753,75.443A18.392,18.392,0,0,1,52.13,57.066H327.787a18.392,18.392,0,0,1,18.377,18.377v189.9H229.773a6.139,6.139,0,0,0-5.482,3.384l-4.426,8.867H153.922l-4.441-8.867a6.1,6.1,0,0,0-5.467-3.384H33.751Zm324.662,214.4a18.392,18.392,0,0,1-18.377,18.377H33.751a18.392,18.392,0,0,1-18.377-18.377V277.594H140.233l4.441,8.867a6.1,6.1,0,0,0,5.467,3.384H223.65a6.139,6.139,0,0,0,5.482-3.384l4.426-8.867H358.418Z" transform="translate(0 50.193)"/>
      <path id="路径_1120" data-name="路径 1120" d="M301.971,210.459V38.938a6.124,6.124,0,0,0-6.126-6.126H20.189a6.124,6.124,0,0,0-6.126,6.126V210.459a6.124,6.124,0,0,0,6.126,6.126H295.845A6.124,6.124,0,0,0,301.971,210.459Zm-12.251-63.8-22.711,22.711a6.132,6.132,0,0,0-1.792,4.334v30.629H246.839V170.123l16.586-16.586a6.132,6.132,0,0,0,1.792-4.334V92.936a18.261,18.261,0,0,0,0-34.488V45.064h24.5ZM93.7,161.455a6.126,6.126,0,1,1,6.126,6.126A6.134,6.134,0,0,1,93.7,161.455ZM105.947,178.7a18.377,18.377,0,1,0-12.251,0v25.636h-24.5V145.618L98.03,116.781a6.132,6.132,0,0,0,1.792-4.334V45.062h12.251v79.633a6.132,6.132,0,0,0,1.792,4.334l34.963,34.963v40.338H105.945Zm49.006-66.248a6.126,6.126,0,1,1,6.126-6.126A6.134,6.134,0,0,1,154.953,112.45Zm-6.126-23.37a18.261,18.261,0,0,0,0,34.488v23.094l-24.5-24.5V45.067h24.5Zm12.251,34.488a18.261,18.261,0,0,0,0-34.488V45.066h24.5V57.317a6.132,6.132,0,0,0,1.792,4.334l16.586,16.586v23.094a18.261,18.261,0,0,0,0,34.488v10.842L175.122,175.5a6.132,6.132,0,0,0-1.792,4.334v24.5H161.079Zm49.006,1.133a6.126,6.126,0,1,1,6.126-6.126A6.134,6.134,0,0,1,210.085,124.7Zm0-57.674L197.833,54.776V45.067h24.5v9.709Zm-24.5,115.348L203.959,164v40.338H185.582ZM216.21,135.82a18.261,18.261,0,0,0,0-34.488V78.239L232.8,61.653a6.132,6.132,0,0,0,1.792-4.334V45.068h18.377V58.453a18.261,18.261,0,0,0,0,34.488v53.722l-16.586,16.586a6.132,6.132,0,0,0-1.792,4.334v36.754H216.21Zm42.882-54a6.126,6.126,0,1,1,6.126-6.126A6.134,6.134,0,0,1,259.093,81.824Zm-202.147,0A6.126,6.126,0,1,1,63.071,75.7,6.134,6.134,0,0,1,56.945,81.824ZM50.819,45.069V58.454a18.261,18.261,0,0,0,0,34.488v10.842l-24.5,24.5V45.067Zm-24.5,100.552,34.963-34.963a6.132,6.132,0,0,0,1.792-4.334V92.94a18.261,18.261,0,0,0,0-34.488V45.067h24.5v64.841L58.737,138.745a6.132,6.132,0,0,0-1.792,4.334v61.257H26.316ZM277.47,204.338V176.252L289.721,164v40.338Z" transform="translate(31.946 86.702)"/>
      <path id="路径_1121" data-name="路径 1121" d="M48.438,20.312H60.689V32.563H48.438Z" transform="translate(132.337 50.194)"/>
      <path id="路径_1122" data-name="路径 1122" class="cls-7" d="M48.438,9.375H60.689V40H48.438Z" transform="translate(132.337 18.253)"/>
      <path id="路径_1123" data-name="路径 1123" class="cls-7" d="M48.438,3.125H60.689V15.376H48.438Z" transform="translate(132.337)"/>
      <path id="路径_1124" data-name="路径 1124" class="cls-7" d="M54.688,17.188H66.939V29.439H54.688Z" transform="translate(150.59 41.071)"/>
      <path id="路径_1125" data-name="路径 1125" class="cls-7" d="M54.688,3.125H66.939V46.007H54.688Z" transform="translate(150.59)"/>
      <path id="路径_1126" data-name="路径 1126" class="cls-7" d="M73.438,17.188H85.689V29.439H73.438Z" transform="translate(205.349 41.071)"/>
      <path id="路径_1127" data-name="路径 1127" class="cls-7" d="M73.438,3.125H85.689V46.007H73.438Z" transform="translate(205.349)"/>
      <path id="路径_1128" data-name="路径 1128" class="cls-7" d="M29.688,17.188H41.939V29.439H29.688Z" transform="translate(77.578 41.071)"/>
      <path id="路径_1129" data-name="路径 1129" class="cls-7" d="M29.688,3.125H41.939V21.5H29.688Z" transform="translate(77.578)"/>
      <path id="路径_1130" data-name="路径 1130" class="cls-7" d="M60.938,15.625H73.189V46.254H60.938Z" transform="translate(168.843 36.506)"/>
      <path id="路径_1131" data-name="路径 1131" class="cls-7" d="M60.938,9.375H73.189V21.626H60.938Z" transform="translate(168.843 18.253)"/>
      <path id="路径_1132" data-name="路径 1132" class="cls-7" d="M60.938,3.125H73.189V15.376H60.938Z" transform="translate(168.843)"/>
      <path id="路径_1133" data-name="路径 1133" class="cls-7" d="M35.938,3.125H48.189V21.5H35.938Z" transform="translate(95.831)"/>
      <path id="路径_1134" data-name="路径 1134" class="cls-7" d="M35.938,10.938H48.189V23.189H35.938Z" transform="translate(95.831 22.818)"/>
      <path id="路径_1135" data-name="路径 1135" class="cls-7" d="M35.938,17.188H48.189v24.5H35.938Z" transform="translate(95.831 41.071)"/>
      <path id="路径_1136" data-name="路径 1136" class="cls-7" d="M42.188,3.125H54.439V33.754H42.188Z" transform="translate(114.084)"/>
      <path id="路径_1137" data-name="路径 1137" class="cls-7" d="M42.188,14.062H54.439V26.313H42.188Z" transform="translate(114.084 31.941)"/>
      <path id="路径_1138" data-name="路径 1138" class="cls-7" d="M29.688,10.938H41.939V23.189H29.688Z" transform="translate(77.578 22.818)"/>
      <path id="路径_1139" data-name="路径 1139" class="cls-7" d="M67.188,3.125H79.439V64.382H67.188Z" transform="translate(187.096)"/>
      <path id="路径_1140" data-name="路径 1140" class="cls-7" d="M23.438,3.125H35.689V64.382H23.438Z" transform="translate(59.325)"/>
    </g>
  </g>
</svg>
