<svg xmlns="http://www.w3.org/2000/svg" xmlns:xlink="http://www.w3.org/1999/xlink" width="2849.525" height="3505.1" viewBox="0 0 2849.525 3505.1">
  <defs>
    <style>
      .cls-1 {
        clip-path: url(#clip-Artboard_32);
      }

      .cls-2, .cls-7, .cls-8 {
        fill: #fff;
      }

      .cls-2 {
        stroke: #000;
        stroke-width: 2px;
        fill-rule: evenodd;
      }

      .cls-3, .cls-4 {
        font-size: 64px;
      }

      .cls-3 {
        font-family: Helvetica-Bold, Helvetica;
        font-weight: 700;
        letter-spacing: 0.1em;
      }

      .cls-4 {
        fill: #797777;
        font-family: PingFangSC-Regular, PingFang SC;
        letter-spacing: 0.05em;
      }

      .cls-5, .cls-7 {
        font-family: Helvetica;
      }

      .cls-6 {
        fill: #ca3136;
      }

      .cls-7 {
        font-size: 71px;
      }
    </style>
    <clipPath id="clip-Artboard_32">
      <rect width="2849.526" height="3505.099"/>
    </clipPath>
  </defs>
  <g id="Artboard_32" data-name="Artboard – 32" class="cls-1">
    <rect class="cls-8" width="2849.526" height="3505.099"/>
    <path id="path2427" class="cls-2" d="M-32.705,436.919C400.671,165.76,770.636,193.2,1137.011-40.432c196.537,50.319,342.849,30.2,478.1-5.425,414.964,223.263,779.818,259.059,1169.711,488.2-32.406,239.264-103.771,446.008-222.794,612.963-144.416-90.452-281.057-126.392-413.115-130.187l-9.291,1627.336c-568.927,123.832-1051.144,70.328-1522.482-5.42L612.5,930.545c-165.972-5.635-292.253,66.039-422.4,130.187C64.929,861.294,6.445,650.72-32.706,436.919h0Z" transform="translate(43.705 168.857)"/>
    <g id="组_49" data-name="组 49">
      <g id="组_4" data-name="组 4" transform="translate(1218.365 628.533)">
        <text id="Not_Modified" data-name="Not Modified" class="cls-3" transform="translate(206.445 625.003)"><tspan x="-228.934" y="0">Not Modified</tspan></text>
        <text id="没有惊喜_·_没有惊吓" data-name="没有惊喜 · 没有惊吓" class="cls-4" transform="translate(206 747.008)"><tspan x="-298.672" y="0">没有惊喜</tspan><tspan class="cls-5" y="0" xml:space="preserve"> · </tspan><tspan y="0">没有惊吓</tspan></text>
        <g id="icon" transform="translate(489.4 0)">
          <rect id="矩形_1" data-name="矩形 1" class="cls-6" width="69.914" height="204.365" rx="10" transform="translate(0 13.445)"/>
          <text id="_3_0_4" data-name="3
0
4" class="cls-7" transform="translate(34.756 75)"><tspan x="-19.743" y="0">3</tspan><tspan x="-19.743" y="61">0</tspan><tspan x="-19.743" y="122">4</tspan></text>
        </g>
      </g>
      <path id="np_sun_1071440_000000" d="M205.283,109.573V17.135a5.135,5.135,0,0,1,10.271,0v92.438a5.135,5.135,0,1,1-10.271,0Zm41.946,6.239a5.12,5.12,0,0,0,6.881-2.307L292.4,36.134a5.136,5.136,0,1,0-9.207-4.553L244.9,108.951a5.138,5.138,0,0,0,2.327,6.86Zm58.113,4.032a5.015,5.015,0,0,0,3.31-1.224l51.457-43.731a5.137,5.137,0,0,0-6.66-7.824L301.991,110.8a5.136,5.136,0,0,0,3.35,9.047Zm-18.355,3.711-17.392,14.784a5.136,5.136,0,0,0,3.33,9.047,5.015,5.015,0,0,0,3.31-1.224l17.392-14.784a5.131,5.131,0,0,0-6.64-7.824Zm-166.742-68.8a5.125,5.125,0,0,0,4.473,2.628,5,5,0,0,0,2.508-.662,5.132,5.132,0,0,0,1.966-6.981l-7.863-14.022a5.128,5.128,0,0,0-8.947,5.015Zm32.638,58.215a5.125,5.125,0,0,0,4.473,2.628,5,5,0,0,0,2.508-.662,5.132,5.132,0,0,0,1.966-6.981L139.7,68.472a5.128,5.128,0,1,0-8.947,5.015Zm-22.046,40.181a5.115,5.115,0,0,0,7.121-1.384,5.158,5.158,0,0,0-1.384-7.141L57.534,91.2a5.144,5.144,0,1,0-5.757,8.525Zm-105.918,19.4,36.69,5.717a5.608,5.608,0,0,0,.8.06,5.135,5.135,0,0,0,.782-10.211L26.5,162.394a5.137,5.137,0,1,0-1.585,10.15ZM220.686,289.314a5.135,5.135,0,1,0,0-10.271H205.279a5.135,5.135,0,0,0,0,10.271Zm246.5-5.135a5.12,5.12,0,0,1-5.135,5.135H379.884a5.135,5.135,0,1,1,0-10.271h56.11a32.6,32.6,0,0,0,1.986-11.214,33.135,33.135,0,0,0-30.412-32.9,5.194,5.194,0,0,1-4.273-7.262A30.9,30.9,0,0,0,375.231,183.9a30.567,30.567,0,0,1-4.494.1,5.05,5.05,0,0,1-3.751-2.768,36.643,36.643,0,0,0-68.145,11.635,5.422,5.422,0,0,1-3.43,3.972,5.275,5.275,0,0,1-5.035-1A36.657,36.657,0,0,0,229.332,223.2a35.05,35.05,0,0,0,.221,3.831,44.057,44.057,0,0,1,28.686,52.036l101.106-.02a5.135,5.135,0,1,1,0,10.271H241.231a5.135,5.135,0,1,1,0-10.271h6.4a34.1,34.1,0,0,0-51.816-38.275c-.1.08-.221.08-.321.14a5.123,5.123,0,0,1-5.557-.241,5.27,5.27,0,0,1-2.006-5.236.432.432,0,0,0,0-.16,24.641,24.641,0,0,0-40.983-23.811,5.17,5.17,0,0,1-8.325-1.765A35.836,35.836,0,1,0,76.716,244.62c2.347,3.129.08,7.944-3.791,8.325a18.122,18.122,0,0,0-14.4,26.078H179.6a5.135,5.135,0,0,1,0,10.271H10.135a5.135,5.135,0,1,1,0-10.271H47.548A28.264,28.264,0,0,1,64.6,244.58a45.653,45.653,0,0,1-5.276-21.445A46.164,46.164,0,0,1,131.2,184.86a76.608,76.608,0,0,1,149.148-6.342,46.813,46.813,0,0,1,10.391,4.774,46.844,46.844,0,0,1,83.592-9.689c.3,0,.6-.04.923-.04a40.972,40.972,0,0,1,39.6,52.116,43.509,43.509,0,0,1,33.4,42.086,42.716,42.716,0,0,1-1.525,11.214l15.326.04a5.15,5.15,0,0,1,5.135,5.155ZM265.96,176.252c.983,0,1.966.08,2.949.14A66.359,66.359,0,0,0,140.4,193.2a45.143,45.143,0,0,1,4.774,6.66,34.876,34.876,0,0,1,53.7,27.884,44,44,0,0,1,16.188-3.19c1.364,0,2.688.08,4.012.2-.02-.522-.08-1.043-.08-1.565a47.031,47.031,0,0,1,46.961-46.941ZM251.5,309.856a5.12,5.12,0,0,0-5.135-5.135H138.517a5.135,5.135,0,1,0,0,10.271H246.361A5.12,5.12,0,0,0,251.5,309.856Zm51.354-5.135H266.9a5.135,5.135,0,1,0,0,10.271H302.85a5.135,5.135,0,1,0,0-10.271Zm-92.438,35.948a5.12,5.12,0,0,0-5.135-5.135H179.6a5.135,5.135,0,1,0,0,10.271h25.677A5.12,5.12,0,0,0,210.413,340.668Zm61.625-5.135H230.954a5.135,5.135,0,1,0,0,10.271h41.083a5.135,5.135,0,1,0,0-10.271Zm-41.083,41.083H210.413a5.135,5.135,0,0,0,0,10.271h20.542a5.135,5.135,0,0,0,0-10.271ZM385.577,214.748a10.176,10.176,0,0,1-.943,4.313,5.134,5.134,0,1,0,9.328,4.293,20.634,20.634,0,0,0-18.736-29.208c-.7,0-1.384.04-2.066.1a5.135,5.135,0,0,0-4.614,5.617,5.074,5.074,0,0,0,5.617,4.614,9.537,9.537,0,0,1,1.083-.06,10.355,10.355,0,0,1,10.331,10.331Zm-280.164-6.88a5.135,5.135,0,0,0,0-10.271,25.586,25.586,0,0,0-25.557,25.557,25.3,25.3,0,0,0,5.1,15.306,5.129,5.129,0,0,0,8.2-6.158,15.153,15.153,0,0,1-3.049-9.147,15.312,15.312,0,0,1,15.306-15.286Zm237.575-62.909a5.127,5.127,0,0,0,7.061,1.685l27.382-16.85a5.133,5.133,0,0,0-5.376-8.746L344.674,137.9a5.1,5.1,0,0,0-1.685,7.061Z" transform="translate(1188.811 714.113)"/>
    </g>
  </g>
</svg>
