<svg xmlns="http://www.w3.org/2000/svg" xmlns:xlink="http://www.w3.org/1999/xlink" width="2849.525" height="3505.1" viewBox="0 0 2849.525 3505.1">
  <defs>
    <style>
      .cls-1 {
        clip-path: url(#clip-Artboard_3);
      }

      .cls-2, .cls-6, .cls-7 {
        fill: #fff;
      }

      .cls-2 {
        stroke: #000;
        stroke-width: 2px;
        fill-rule: evenodd;
      }

      .cls-3 {
        font-size: 80px;
        font-family: Helvetica-Bold, Helvetica;
        font-weight: 700;
      }

      .cls-4 {
        fill: #797777;
        font-size: 64px;
        font-family: PingFangSC-Regular, PingFang SC;
        letter-spacing: 1.3em;
      }

      .cls-5 {
        fill: #ca3136;
      }

      .cls-6 {
        font-size: 71px;
        font-family: Helvetica;
      }
    </style>
    <clipPath id="clip-Artboard_3">
      <rect width="2849.526" height="3505.099"/>
    </clipPath>
  </defs>
  <g id="Artboard_3" data-name="Artboard – 3" class="cls-1">
    <rect class="cls-7" width="2849.526" height="3505.099"/>
    <g id="组_5" data-name="组 5" transform="translate(-34.725 156.494)">
      <path id="path2427" class="cls-2" d="M-32.705,436.92C400.672,165.76,770.636,193.2,1137.011-40.432c196.537,50.319,342.849,30.2,478.1-5.425,414.964,223.263,779.818,259.059,1169.711,488.2-32.406,239.264-103.771,446.008-222.794,612.963-144.416-90.452-281.057-126.392-413.115-130.187l-9.291,1627.336c-568.927,123.832-1051.144,70.328-1522.483-5.42L612.5,930.545c-165.972-5.635-292.253,66.039-422.4,130.187C64.929,861.294,6.445,650.72-32.706,436.92h0Z" transform="translate(44.706 168.857)"/>
      <g id="组_12" data-name="组 12" transform="translate(1189.786 582.821)">
        <text id="Hello_World" data-name="Hello World" class="cls-3" transform="translate(264 670.582)"><tspan x="-221.504" y="0">Hello World</tspan></text>
        <text id="世界很大" class="cls-4" transform="translate(263.756 792.722)"><tspan x="-252.8" y="0">世界很大</tspan></text>
        <g id="icon" transform="translate(545.869 0)">
          <rect id="矩形_1" data-name="矩形 1" class="cls-5" width="69.914" height="204.365" rx="10" transform="translate(0 13.445)"/>
          <text id="_3_0_5" data-name="3
0
5" class="cls-6" transform="translate(33.756 77)"><tspan x="-19.743" y="0">3</tspan><tspan x="-19.743" y="61">0</tspan><tspan x="-19.743" y="122">5</tspan></text>
        </g>
        <g id="np_world_1678093_000000" transform="translate(32.268 67.225)">
          <path id="路径_1000" data-name="路径 1000" d="M252.219,212.09a122.66,122.66,0,0,0,0-126.839A123.14,123.14,0,0,0,148.244,26.5a119.881,119.881,0,0,0-23.394,2.071C91.586,34.806,62.465,55.093,44.269,84.723a122.171,122.171,0,0,0,103.975,185.59H149.3c42.1,0,80.56-21.831,102.92-58.221Zm-46.789-15.6a266.093,266.093,0,0,0,4.671-42.626h49.388a117.574,117.574,0,0,1-14.032,49.388,377.275,377.275,0,0,0-40.026-6.763Zm-154.4,6.763C42.706,188.188,37.508,171.028,37,153.868H86.388a268.429,268.429,0,0,0,4.671,42.626,377.226,377.226,0,0,0-40.026,6.763Zm0-109.174c11.961,3.127,25.466,5.2,40.026,6.763a266.092,266.092,0,0,0-4.671,42.626H37A117.28,117.28,0,0,1,51.032,94.083Zm5.707-9.362c.528,0,.528-.508,0,0,1.564-2.071,3.127-4.163,4.163-5.727l1.564-1.564c1.036-1.036,2.071-2.6,3.127-3.635l2.071-2.071L70.792,68.6c.528-.528,1.564-1.036,2.071-2.071a13.7,13.7,0,0,1,3.127-2.6c.528-.528,1.564-1.036,2.071-2.071,1.036-1.036,2.071-1.564,3.127-2.6,1.036-.528,1.564-1.036,2.6-1.564s2.071-1.564,3.127-2.071c1.036-.528,1.564-1.036,2.6-1.564s2.071-1.564,3.127-2.071c1.036-.528,1.564-1.036,2.6-1.564a24.845,24.845,0,0,1,3.635-1.564c1.036-.528,1.564-1.036,2.6-1.564a24.844,24.844,0,0,1,3.635-1.564,8.41,8.41,0,0,1,2.6-1.036c1.036-.528,2.6-1.036,3.635-1.564s2.071-.528,2.6-1.036c1.036-.528,2.6-.528,3.635-1.036.528,0,.528,0,1.036-.528C107.691,51.964,99.385,69.124,93.658,89.919a202.96,202.96,0,0,1-36.919-5.2Zm125.825-42.1c1.036.528,2.071.528,3.127,1.036,1.036.528,2.6,1.036,3.635,1.564s2.071.528,2.6,1.036a24.845,24.845,0,0,0,3.635,1.564,11.636,11.636,0,0,1,2.6,1.564c1.036.528,2.071,1.036,3.127,1.564,1.036.528,1.564,1.036,2.6,1.564a11.419,11.419,0,0,1,3.127,2.071c1.036.528,1.564,1.036,2.6,1.564s2.071,1.564,3.127,2.071c1.036.528,1.564,1.036,2.6,1.564a14.617,14.617,0,0,1,3.127,2.6c.528.528,1.564,1.036,2.071,2.071,1.036,1.036,2.071,1.564,3.127,2.6l2.071,2.071a13.7,13.7,0,0,1,2.6,3.127l2.071,2.071a23.268,23.268,0,0,1,3.127,3.635A7.3,7.3,0,0,1,235.1,80.03a27.248,27.248,0,0,0,3.635,4.671c0,.528.528.528,1.036,1.036a320.9,320.9,0,0,1-36.919,6.234c-5.727-21.323-14.561-38.462-24.958-49.388.528,0,.528,0,1.036.528a3.21,3.21,0,0,1,3.635-.487ZM210.1,143.468a268.429,268.429,0,0,0-4.671-42.626,377.216,377.216,0,0,0,40.026-6.763c8.326,15.068,13.525,32.228,14.032,49.388ZM153.446,37.928c16.124,3.635,30.664,24.43,38.991,54.057-12.469,1.036-25.466,1.564-38.991,2.071Zm-10.4,55.621a318.34,318.34,0,0,1-38.991-2.071c8.326-29.121,22.359-50.424,38.991-54.057Zm0,10.4v39.519H96.788a261.739,261.739,0,0,1,4.671-41.59,364.5,364.5,0,0,0,41.59,2.071Zm10.4,0c14.032,0,28.065-1.036,41.59-2.071,2.6,13,4.671,27.029,4.671,41.59H153.446ZM96.79,153.864H143.05v39.519c-14.032,0-28.065,1.036-41.59,2.071a259.4,259.4,0,0,1-4.671-41.59ZM143.05,203.78V259.4c-16.124-3.635-30.664-24.43-38.991-54.057q18.7-1.584,38.991-1.564Zm10.4,55.621V203.78a318.34,318.34,0,0,1,38.991,2.071c-8.326,29.121-22.866,49.916-38.991,53.552Zm0-66.019V153.864h46.261a261.74,261.74,0,0,1-4.671,41.59,364.491,364.491,0,0,0-41.59-2.071ZM56.741,212.614a320.9,320.9,0,0,1,36.919-6.234c5.727,21.323,14.561,38.462,24.958,49.388a106.416,106.416,0,0,1-61.876-43.154Zm121.136,43.661c10.926-11.433,19.231-28.593,24.958-49.388a365.612,365.612,0,0,1,36.919,6.234,111.153,111.153,0,0,1-61.876,43.154Z" transform="translate(85.699 85.272)"/>
          <path id="路径_1001" data-name="路径 1001" d="M69.731,53.353a24.4,24.4,0,0,0,24.43-24.43C94.161,15.4,83.255,5,69.731,5A24.4,24.4,0,0,0,45.3,29.43c0,13.525,10.905,23.923,24.43,23.923Zm0-37.955A14.032,14.032,0,1,1,55.7,29.43,13.971,13.971,0,0,1,69.731,15.4Z" transform="translate(164.212 -5)"/>
          <path id="路径_1002" data-name="路径 1002" d="M98.03,16.8a24.431,24.431,0,1,0,17.16,7.27A23.619,23.619,0,0,0,98.03,16.8ZM107.9,51.1a14.466,14.466,0,0,1-19.759,0c-5.2-5.2-5.2-14.032,0-19.759a13.78,13.78,0,0,1,19.739,0c5.219,5.219,5.219,14.053.02,19.759Z" transform="translate(284.077 44.548)"/>
          <path id="路径_1003" data-name="路径 1003" d="M110.032,45.3a24.43,24.43,0,1,0,24.43,24.43A24.4,24.4,0,0,0,110.032,45.3Zm0,38.462a14.032,14.032,0,1,1,14.033-14.032A13.971,13.971,0,0,1,110.032,83.763Z" transform="translate(333.426 164.213)"/>
          <path id="路径_1004" data-name="路径 1004" d="M80.87,115.391a24.431,24.431,0,1,0,0-34.32A24.491,24.491,0,0,0,80.87,115.391Zm7.29-27.029a13.78,13.78,0,0,1,19.739,0c5.2,5.2,5.2,14.032,0,19.759a14.466,14.466,0,0,1-19.759,0c-5.178-5.219-5.178-14.053.02-19.759Z" transform="translate(284.076 283.877)"/>
          <path id="路径_1005" data-name="路径 1005" d="M94.161,110.032a24.43,24.43,0,1,0-24.43,24.43A24.4,24.4,0,0,0,94.161,110.032Zm-38.462,0a14.032,14.032,0,1,1,14.032,14.033A13.971,13.971,0,0,1,55.7,110.032Z" transform="translate(164.211 333.426)"/>
          <path id="路径_1006" data-name="路径 1006" d="M41.03,73.9a24.431,24.431,0,0,0,0,48.86,24.431,24.431,0,0,0,17.16-41.59A22.554,22.554,0,0,0,41.03,73.9ZM50.9,107.69a14.467,14.467,0,0,1-19.759,0c-5.2-5.2-5.2-14.033,0-19.759a13.78,13.78,0,0,1,19.739,0c5.219,5.727,5.219,14.561.02,19.759Z" transform="translate(44.748 284.285)"/>
          <path id="路径_1007" data-name="路径 1007" d="M53.353,69.731A24.4,24.4,0,0,0,28.923,45.3C15.4,45.3,5,56.206,5,69.731a24.4,24.4,0,0,0,24.43,24.43C42.955,94.161,53.353,83.255,53.353,69.731Zm-37.955,0A14.032,14.032,0,1,1,29.43,83.763,13.971,13.971,0,0,1,15.4,69.731Z" transform="translate(-5 164.212)"/>
          <path id="路径_1008" data-name="路径 1008" d="M58.19,24.071A24.491,24.491,0,0,0,41.03,16.8a24.431,24.431,0,0,0,0,48.86,24.431,24.431,0,0,0,17.16-41.59ZM50.9,51.1a14.466,14.466,0,0,1-19.759,0c-5.2-5.2-5.2-14.032,0-19.759a13.78,13.78,0,0,1,19.739,0C56.1,36.559,56.1,45.393,50.9,51.1Z" transform="translate(44.749 44.547)"/>
          <path id="路径_1009" data-name="路径 1009" d="M75.038,104.312c2.071.528,4.671,0,7.27-1.036a10.35,10.35,0,1,0-9.869-18.2,9.838,9.838,0,0,0-4.163,14.033c1.056,3.107,3.655,4.671,6.763,5.2Z" transform="translate(254.551 325.114)"/>
          <path id="路径_1010" data-name="路径 1010" d="M74.446,33.185c1.036.528,2.071,1.036,3.127,1.564A9.486,9.486,0,0,0,88.5,30.078c3.127-4.671,1.564-11.433-3.127-14.561C80.7,12.39,73.939,13.954,70.812,18.645a11.332,11.332,0,0,0,3.635,14.54Z" transform="translate(266.071 32.328)"/>
          <path id="路径_1011" data-name="路径 1011" d="M15.513,31.129C12.386,35.8,13.949,42.562,18.64,45.69c1.036.528,2.071,1.036,3.127,1.564a9.486,9.486,0,0,0,10.926-4.671c3.127-4.671,1.564-11.433-3.127-14.561C25.4,24.895,18.64,26.438,15.513,31.129Z" transform="translate(32.309 84.807)"/>
          <path id="路径_1012" data-name="路径 1012" d="M89.342,30.5a9.838,9.838,0,0,0-4.163,14.032,11.079,11.079,0,0,0,6.763,5.2c2.071.528,4.671,0,7.27-1.036a9.838,9.838,0,0,0,4.163-14.032c-2.6-5.2-8.834-6.763-14.032-4.163Z" transform="translate(325.523 96.872)"/>
          <path id="路径_1013" data-name="路径 1013" d="M71.363,31.137A10.869,10.869,0,0,0,83.324,24.9,10.386,10.386,0,1,0,69.8,30.629a1.969,1.969,0,0,0,1.564.508Z" transform="translate(240.031 18.781)"/>
          <path id="路径_1014" data-name="路径 1014" d="M43.925,29.785a8.73,8.73,0,0,0,5.2,0c5.727-1.564,8.326-7.8,6.763-13s-7.8-8.326-13-6.763-8.326,7.8-6.763,13C37.691,26.657,40.8,29.257,43.925,29.785Z" transform="translate(123.998 14.403)"/>
          <path id="路径_1015" data-name="路径 1015" d="M37.538,32.909c2.071.528,4.671,0,7.27-1.036a9.838,9.838,0,0,0,4.163-14.032,9.838,9.838,0,0,0-14.032-4.163,9.838,9.838,0,0,0-4.163,14.032,8.877,8.877,0,0,0,6.763,5.2Z" transform="translate(97.098 25.31)"/>
          <path id="路径_1016" data-name="路径 1016" d="M16.547,60.881a11.013,11.013,0,0,0,12.469-7.8V52.026a10.557,10.557,0,0,0-7.8-12.469,10.557,10.557,0,0,0-12.469,7.8v1.056A11.018,11.018,0,0,0,16.547,60.881Z" transform="translate(9.976 139.27)"/>
          <path id="路径_1017" data-name="路径 1017" d="M77.13,21.23C78.165,15.5,75.058,9.8,69.332,8.761a10.557,10.557,0,0,0-12.469,7.8,10.557,10.557,0,0,0,7.8,12.469C70.368,30.591,75.566,26.956,77.13,21.23Z" transform="translate(211.93 9.962)"/>
          <path id="路径_1018" data-name="路径 1018" d="M34.451,102.948a10.17,10.17,0,0,0,10.926-4.671c3.127-4.671,1.564-11.433-3.127-14.561-4.671-3.127-11.433-1.564-14.032,3.127-3.127,4.671-1.564,11.433,3.127,14.561.508,1.015,2.051,1.015,3.107,1.543Z" transform="translate(85.649 318.68)"/>
          <path id="路径_1019" data-name="路径 1019" d="M100.014,56.745a11.013,11.013,0,0,0-12.469,7.8,11.013,11.013,0,0,0,7.8,12.469,11.013,11.013,0,0,0,12.469-7.8A9.955,9.955,0,0,0,100.014,56.745Z" transform="translate(340.844 211.52)"/>
          <path id="路径_1020" data-name="路径 1020" d="M59.926,100.014a10.557,10.557,0,0,0-7.8-12.469,11.013,11.013,0,0,0-12.469,7.8,10.557,10.557,0,0,0,7.8,12.469A9.955,9.955,0,0,0,59.926,100.014Z" transform="translate(139.695 340.844)"/>
          <path id="路径_1021" data-name="路径 1021" d="M39.2,105.307c.528,0,1.036.528,1.564.528A10.87,10.87,0,0,0,52.727,99.6a10.386,10.386,0,0,0-19.252-7.8,10.547,10.547,0,0,0,5.727,13.5Z" transform="translate(111.561 332.421)"/>
          <path id="路径_1022" data-name="路径 1022" d="M23.022,80.621c5.727-1.564,8.326-7.8,6.763-13-1.564-5.727-7.8-8.326-13-6.763s-8.326,7.8-6.763,13a9.528,9.528,0,0,0,7.8,6.763A9.063,9.063,0,0,0,23.022,80.621Z" transform="translate(14.403 227.669)"/>
          <path id="路径_1023" data-name="路径 1023" d="M67.487,86.826c-5.2,1.564-8.326,7.8-6.763,13a9.528,9.528,0,0,0,7.8,6.763,8.729,8.729,0,0,0,5.2,0c5.2-1.564,8.326-7.8,6.763-13a10.513,10.513,0,0,0-13-6.763Z" transform="translate(227.276 336.871)"/>
          <path id="路径_1024" data-name="路径 1024" d="M11.377,39.092A10.578,10.578,0,0,0,17.1,52.617c.528,0,1.036.528,1.564.528a10.869,10.869,0,0,0,11.961-6.234A10.578,10.578,0,0,0,24.9,33.386c-5.219-2.092-10.926.508-13.525,5.707Z" transform="translate(18.78 111.141)"/>
          <path id="路径_1025" data-name="路径 1025" d="M86.826,49.124a9.528,9.528,0,0,0,7.8,6.763,8.73,8.73,0,0,0,5.2,0c5.727-1.564,8.326-7.8,6.763-13s-7.8-8.326-13-6.763C88.39,38.2,85.262,43.925,86.826,49.124Z" transform="translate(336.871 123.998)"/>
          <path id="路径_1026" data-name="路径 1026" d="M83.712,74.62c-3.127,4.671-1.564,11.433,3.127,14.561,1.036.528,2.071,1.036,3.127,1.564a9.486,9.486,0,0,0,10.926-4.671c3.127-4.671,1.564-11.433-3.127-14.561C93.6,67.858,86.839,69.421,83.712,74.62Z" transform="translate(318.66 265.897)"/>
          <path id="路径_1027" data-name="路径 1027" d="M91.8,83.21c.528,0,1.036.528,1.564.528A10.869,10.869,0,0,0,105.329,77.5,10.386,10.386,0,1,0,91.8,83.211Z" transform="translate(332.424 239.641)"/>
          <path id="路径_1028" data-name="路径 1028" d="M17.939,68.291a9.838,9.838,0,0,0-4.163,14.033,11.079,11.079,0,0,0,6.763,5.2,9.32,9.32,0,0,0,7.27-1.036,9.838,9.838,0,0,0,4.163-14.032,9.8,9.8,0,0,0-14.032-4.163Z" transform="translate(25.719 254.561)"/>
        </g>
      </g>
    </g>
  </g>
</svg>
