<svg xmlns="http://www.w3.org/2000/svg" xmlns:xlink="http://www.w3.org/1999/xlink" width="2849.526" height="3505.099" viewBox="0 0 2849.526 3505.099">
  <defs>
    <style>
      .cls-1 {
        clip-path: url(#clip-Artboard_33);
      }

      .cls-2, .cls-6, .cls-7 {
        fill: #fff;
      }

      .cls-2 {
        stroke: #000;
        stroke-width: 2px;
        fill-rule: evenodd;
      }

      .cls-3, .cls-4 {
        font-size: 64px;
      }

      .cls-3 {
        font-family: Helvetica-Bold, Helvetica;
        font-weight: 700;
        letter-spacing: 0.1em;
      }

      .cls-4 {
        fill: #797777;
        font-family: PingFangSC-Regular, PingFang SC;
        letter-spacing: 0.05em;
      }

      .cls-5 {
        fill: #ca3136;
      }

      .cls-6 {
        font-size: 71px;
        font-family: Helvetica;
      }
    </style>
    <clipPath id="clip-Artboard_33">
      <rect width="2849.526" height="3505.099"/>
    </clipPath>
  </defs>
  <g id="Artboard_33" data-name="Artboard – 33" class="cls-1">
    <rect class="cls-7" width="2849.526" height="3505.099"/>
    <path id="path2427" class="cls-2" d="M-32.705,436.919C400.671,165.76,770.636,193.2,1137.011-40.432c196.537,50.319,342.849,30.2,478.1-5.425,414.964,223.263,779.818,259.059,1169.711,488.2-32.406,239.264-103.771,446.008-222.794,612.963-144.416-90.452-281.057-126.392-413.115-130.187l-9.291,1627.336c-568.927,123.832-1051.144,70.328-1522.482-5.42L612.5,930.545c-165.972-5.635-292.253,66.039-422.4,130.187C64.929,861.294,6.445,650.72-32.706,436.919h0Z" transform="translate(43.705 168.857)"/>
    <g id="组_43" data-name="组 43">
      <g id="组_4" data-name="组 4" transform="translate(1218.365 628.533)">
        <text id="Bad_Request" data-name="Bad Request" class="cls-3" transform="translate(206.445 625.003)"><tspan x="-227.594" y="0">Bad Request</tspan></text>
        <text id="上帝今天不上班" class="cls-4" transform="translate(206 747.008)"><tspan x="-233.6" y="0">上帝今天不上班</tspan></text>
        <g id="icon" transform="translate(489.4 0)">
          <rect id="矩形_1" data-name="矩形 1" class="cls-5" width="69.914" height="204.365" rx="10" transform="translate(0 13.445)"/>
          <text id="_4_0_0" data-name="4
0
0" class="cls-6" transform="translate(34.756 75)"><tspan x="-19.743" y="0">4</tspan><tspan x="-19.743" y="61">0</tspan><tspan x="-19.743" y="122">0</tspan></text>
        </g>
      </g>
      <g id="np_desert_2279367_000000" transform="translate(1311.777 789.692)">
        <path id="路径_1141" data-name="路径 1141" d="M73.967,46.779a3.331,3.331,0,0,0,2.149-.924l5.835-5.835a3.039,3.039,0,0,0-4.3-4.3l-5.835,5.835a2.973,2.973,0,0,0,0,4.3,3.27,3.27,0,0,0,2.149.924Z" transform="translate(124.237 71.334)"/>
        <path id="路径_1142" data-name="路径 1142" d="M28.967,68.182a2.788,2.788,0,0,0,2.149-.924l5.835-5.835a3.039,3.039,0,0,0-4.3-4.3l-5.835,5.835a2.973,2.973,0,0,0,0,4.3,3.331,3.331,0,0,0,2.149.924Z" transform="translate(30.925 115.715)"/>
        <path id="路径_1143" data-name="路径 1143" d="M28.967,57.381a2.788,2.788,0,0,0,2.149-.924l5.835-5.835a3.039,3.039,0,1,0-4.3-4.3l-5.835,5.835a2.973,2.973,0,0,0,0,4.3,3.331,3.331,0,0,0,2.149.924Z" transform="translate(30.925 93.318)"/>
        <path id="路径_1144" data-name="路径 1144" d="M25.676,69.928a2.9,2.9,0,0,0,3.074-3.074V50.874A2.9,2.9,0,0,0,25.676,47.8,2.9,2.9,0,0,0,22.6,50.874v15.98A3.077,3.077,0,0,0,25.676,69.928Z" transform="translate(24.087 98.287)"/>
        <path id="路径_1145" data-name="路径 1145" d="M249.232,285.325c-5.223-.924-10.445-1.849-15.98-2.761,0-3.686-1.849-7.372-4.923-10.445a29.562,29.562,0,0,0-14.756-7.684c-12.907-2.761-24.276,2.461-26.438,11.682,0,.312-.312.924-.312,1.225a91.448,91.448,0,0,0-9.221-.612c0-.312.312-.924.312-1.225.312-6.459-4.923-12.294-12.607-14.756l.012-45.815h40.27a21.128,21.128,0,0,0,15.368-6.459,21.889,21.889,0,0,0,6.459-15.368V175.276l5.835-5.835a3.039,3.039,0,0,0-4.3-4.3l-1.537,1.537V126.723l5.535-5.535a3.039,3.039,0,0,0-4.3-4.3l-.924.924V112.28a20.649,20.649,0,0,0-6.459-15.368,33.322,33.322,0,0,0-3.686-3.074l3.074-3.074a3.039,3.039,0,1,0-4.3-4.3l-4.935,4.911a17.1,17.1,0,0,0-5.535-.612,21.128,21.128,0,0,0-15.368,6.459,33.328,33.328,0,0,0-3.074,3.686l-4.3-3.7a3.039,3.039,0,1,0-4.3,4.3l5.535,5.535a17.1,17.1,0,0,0-.612,5.535l-.012,37.2-1.537-1.537a3.039,3.039,0,0,0-4.3,4.3l5.835,5.835v13.219H165.322V122.415l2.461,2.461a3.331,3.331,0,0,0,2.149.924,2.788,2.788,0,0,0,2.149-.924,2.973,2.973,0,0,0,0-4.3l-5.835-5.835c-.312-.312-.612-.612-.924-.612V68.639h.312l5.835-5.835a3.039,3.039,0,1,0-4.3-4.3l-1.849,1.849V44.062a37.775,37.775,0,0,0-10.445-26.126l4-4a3.039,3.039,0,0,0-4.3-4.3l-4,4A37.48,37.48,0,0,0,126.9,5.318a45.719,45.719,0,0,0-11.07,1.537L110.3,1.32a2.973,2.973,0,0,0-4.3,0,2.973,2.973,0,0,0,0,4.3L109.386,9a37.741,37.741,0,0,0-21.2,32.884l-.612-.612a3.039,3.039,0,1,0-4.3,4.3L88.2,50.5v40.27a1.04,1.04,0,0,0-.612.312l-5.859,5.835a2.973,2.973,0,0,0,0,4.3,2.96,2.96,0,0,0,4.3,0l2.149-2.149v54.1l-1.849-2.149a3.039,3.039,0,0,0-4.3,4.3l5.835,5.835a1.087,1.087,0,0,0,.612.312v35.346H79.563l.012-55.936a22.155,22.155,0,0,0-2.461-9.833l4.61-4.61a3.039,3.039,0,0,0-4.3-4.3l-3.686,3.686a22,22,0,0,0-13.831-6.759V112.3a3.074,3.074,0,0,0-6.147,0v7.072a21.258,21.258,0,0,0-12.294,7.372,21.693,21.693,0,0,0-4.923,13.831v4l-.612-.612a3.039,3.039,0,0,0-4.3,4.3l4.923,4.923V169.47L34.1,167.008a3.039,3.039,0,0,0-4.3,4.3l5.835,5.835c.312.312.612.312.924.612v19.054l-.936-.924a3.039,3.039,0,0,0-4.3,4.3l5.223,5.223v13.519A21.851,21.851,0,0,0,58.06,240.75H88.5v21.827c-6.759,1.537-12.907,4.3-17.517,8.608a20.044,20.044,0,0,0-4.923,6.759c-2.461.312-4.923.612-7.372.924-1.537-6.459-9.833-10.145-18.754-8-8,1.849-13.519,7.072-13.831,12.607-4.3.612-8.609,1.537-12.607,2.461a3.2,3.2,0,0,0-2.461,3.686,3,3,0,0,0,3.074,2.461h.612c4.3-.924,8.609-1.849,12.907-2.461,2.461,3.686,7.072,5.835,12.607,5.835a27.592,27.592,0,0,0,4.923-.612c6.459-1.225,11.37-5.223,13.219-9.533a45.047,45.047,0,0,1,6.459-.612,10.3,10.3,0,0,0,.312,3.074c.924,5.535,4.923,10.145,11.37,13.219a33.6,33.6,0,0,0,13.831,2.761,51.424,51.424,0,0,0,6.759-.612,51.716,51.716,0,0,0,9.833-2.761c3.686,3.074,8.908,4.61,14.756,4.61,6.147,0,11.682-1.849,15.368-4.923a27.913,27.913,0,0,0,10.145,4.61,37.7,37.7,0,0,0,8,.924,25.949,25.949,0,0,0,12.294-3.074,13.335,13.335,0,0,0,6.459-8.3,13.93,13.93,0,0,0-1.225-9.221c.312,0,.312-.312.612-.312.924-.612,1.537-1.225,2.461-1.849,4.61.312,8.908.612,13.519.924,0,.312,0,.312.312.612-4,1.849-6.459,5.223-6.459,9.221,0,6.147,6.459,10.758,14.443,10.758,6.147,0,11.07-2.461,13.219-6.459a17.232,17.232,0,0,0,4,.312,24.3,24.3,0,0,0,12.907-3.386A16.685,16.685,0,0,0,233.279,289c5.535.924,10.758,1.849,15.98,2.761a2.962,2.962,0,0,0,3.686-2.461c-.948-2.137-2.173-3.674-3.71-3.974ZM165.32,177.749h18.442v5.835a3.074,3.074,0,1,0,6.147,0V112.891a15.605,15.605,0,0,1,4.61-11.07,14.6,14.6,0,0,1,11.07-4.61,15.605,15.605,0,0,1,11.07,4.61,15.09,15.09,0,0,1,4.61,11.07v26.438a3.219,3.219,0,0,0-3.686.312l-1.549.912V125.8a3.074,3.074,0,1,0-6.147,0v65.471a7.154,7.154,0,0,1-7.072,7.072H176.69a3.077,3.077,0,0,0-3.074,3.074,3.305,3.305,0,0,0,3.074,3.074h26.126a13.121,13.121,0,0,0,13.219-13.219V149.163l4.923-4.923V193.1a15.606,15.606,0,0,1-4.61,11.07,14.908,14.908,0,0,1-10.758,4.61h-40.27ZM42.988,289.01a14.373,14.373,0,0,1-8.3-.612,4.91,4.91,0,0,1-3.386-3.074,3.427,3.427,0,0,1,.312-2.461c1.225-2.461,4.3-4.61,8.609-5.535a14.721,14.721,0,0,1,3.686-.312c3.686,0,6.459,1.225,7.684,3.074a1.123,1.123,0,0,1,.312.924c.312,1.849-.924,4-3.074,5.535a20.723,20.723,0,0,1-5.847,2.461Zm128.79-14.756c0,.924-.312,1.225-.312,1.849a7.825,7.825,0,0,1-3.386,3.686c-.924-.924-1.849-1.537-2.761-2.461a6.757,6.757,0,0,0-2.461-1.537c-1.225-.612-2.461-1.225-3.686-1.849a30.987,30.987,0,0,0-4.923-1.537,30.471,30.471,0,0,0-7.372-.924h-2.149a8.361,8.361,0,0,1,2.149-2.761,17.255,17.255,0,0,1,10.145-3.074h1.849a20.19,20.19,0,0,1,6.147,1.537c3.986,1.537,6.759,4.31,6.759,7.072ZM129.359,30.515a.306.306,0,0,0,.312-.312l5.835-5.835a3.039,3.039,0,0,0-4.3-4.3l-1.849,1.849V11.462A32.428,32.428,0,0,1,158.87,43.735V171.6h-2.149a20.649,20.649,0,0,0-15.368,6.459,21.889,21.889,0,0,0-6.459,15.368,3.074,3.074,0,1,0,6.147,0,15.605,15.605,0,0,1,4.61-11.07,15.09,15.09,0,0,1,11.07-4.61h2.149V208.8h-4.3a3.074,3.074,0,0,0,0,6.147h4.3V259.2a25.924,25.924,0,0,0-12.294,1.849V226a3.074,3.074,0,1,0-6.147,0V265.96a11.936,11.936,0,0,0-2.461,6.147,1.04,1.04,0,0,0-.612.312,24.179,24.179,0,0,0-4.923,2.461,11.971,11.971,0,0,0-2.761,2.761v-2.761ZM57.443,234.909a15.481,15.481,0,0,1-15.368-15.68V140.851a15.413,15.413,0,0,1,15.368-15.368,15.685,15.685,0,0,1,15.68,15.368v59.935A3.077,3.077,0,0,0,76.2,203.86H88.179v18.129a3.077,3.077,0,0,0,3.074,3.074,2.9,2.9,0,0,0,3.074-3.074V43.721a32.393,32.393,0,0,1,29.2-32.273V100.9l-.612-.612a3.039,3.039,0,1,0-4.3,4.3l4.923,4.923V276.391h-2.461c0-.312-.312-.612-.312-.924-1.537-4-4.923-7.372-9.221-9.833a3.217,3.217,0,0,0,1.537-2.761V199.239a3.077,3.077,0,0,0-3.074-3.074,3.345,3.345,0,0,0-3.074,2.149v43.343l-.012,21.839a1.123,1.123,0,0,0,.312.924,40.664,40.664,0,0,0-12.607-1.537V238.609a3,3,0,0,0-2.461-3.074H90.941l-33.5-.012Zm37.495,62.083a31.8,31.8,0,0,1-17.217-1.849c-4.3-1.849-7.072-4.923-7.684-8.608v-2.461a12.539,12.539,0,0,1,3.074-6.459,3.789,3.789,0,0,1,1.537-1.537,30.017,30.017,0,0,1,13.219-6.759,24.461,24.461,0,0,1,2.461-.612,14.721,14.721,0,0,1,3.686-.312h1.849c7.684,0,14.443,2.761,17.517,7.072.312.612.612.924.924,1.537a17.7,17.7,0,0,0-3.686,1.225,15.851,15.851,0,0,0-5.835,3.686,8.163,8.163,0,0,0-2.149,2.461,11.647,11.647,0,0,0-2.149,6.459,12.384,12.384,0,0,0,.924,4.61,31.611,31.611,0,0,1-6.471,1.549Zm25.513,1.849a19.9,19.9,0,0,1-8.908-1.849,12.575,12.575,0,0,1-4.61-4.3,3.84,3.84,0,0,1-.312-1.849c0-2.461,2.149-4.923,5.223-6.459.924-.312,1.849-.612,2.761-.924a17.1,17.1,0,0,1,5.535-.612h.924a17.908,17.908,0,0,1,5.835.924,4.265,4.265,0,0,0,1.849.612,10.13,10.13,0,0,1,4.3,3.686c.312.612.612,1.225.924,1.849v.924c0,1.849-1.225,3.686-3.074,5.223a19.974,19.974,0,0,1-10.445,2.773Zm46.405-6.459c-1.537,5.535-10.145,8.3-19.366,6.147a23.254,23.254,0,0,1-8-3.386,12.384,12.384,0,0,0,.924-4.61,9.663,9.663,0,0,0-2.149-6.459A8.787,8.787,0,0,0,135.508,281c-.312-.312-.312-.312-.612-.312a11.324,11.324,0,0,1,4.3-2.461c.312,0,.312,0,.612-.312a19.923,19.923,0,0,1,6.147-.924,23.594,23.594,0,0,1,6.459.924h.312a21.357,21.357,0,0,1,8,3.686,17.325,17.325,0,0,1,2.461,2.149l.612.612a15.187,15.187,0,0,1,1.849,2.761,7.1,7.1,0,0,1,1.213,5.259Zm29.2,5.235c-4.923,0-8.3-2.461-8.3-4.61,0-1.537,1.537-3.074,4-3.686a9.816,9.816,0,0,1,4.3-.924c4.923,0,8.3,2.461,8.3,4.61a3.265,3.265,0,0,1-1.849,2.761,10.055,10.055,0,0,1-6.447,1.849ZM210.5,291.47a10.655,10.655,0,0,0-4.61-6.459c-2.461-1.849-5.835-2.761-9.833-2.761h-1.849a6.866,6.866,0,0,1-.924-4.923v-.312c.924-4.61,6.759-7.372,13.519-7.372a34.7,34.7,0,0,1,5.535.612,21.559,21.559,0,0,1,11.682,6.147,10.343,10.343,0,0,1,3.074,5.223,4.188,4.188,0,0,1,0,2.761,7.41,7.41,0,0,1-1.849,3.386c-2.749,2.773-8.6,4.31-14.744,3.7Z" transform="translate(0 0)"/>
        <path id="路径_1146" data-name="路径 1146" d="M44.82,103.744a3.039,3.039,0,0,0-4.3,4.3l5.835,5.835c.312.312.612.312.612.612v51.326a3.074,3.074,0,1,0,6.147,0V13.074a3.074,3.074,0,0,0-6.147,0v4.3L44.82,15.223a3.039,3.039,0,0,0-4.3,4.3l5.835,5.835c.312.312.612.312.612.612v80.227Z" transform="translate(59.341 19.903)"/>
        <path id="路径_1147" data-name="路径 1147" d="M56.264,79.11a2.9,2.9,0,0,0,3.074-3.074V59.444l4.923-4.923a3.039,3.039,0,0,0-4.3-4.3l-.612.612V48.375a3.074,3.074,0,1,0-6.147,0V76.037a2.9,2.9,0,0,0,3.062,3.074Z" transform="translate(87.541 93.103)"/>
        <path id="路径_1148" data-name="路径 1148" d="M56.272,112.653a2.9,2.9,0,0,0,3.074-3.074V80.068l4.923-4.923a3.039,3.039,0,0,0-4.3-4.3l-.624.624v-58.4a3.074,3.074,0,1,0-6.147,0v96.5a3.085,3.085,0,0,0,3.074,3.074Z" transform="translate(87.533 19.902)"/>
        <path id="路径_1149" data-name="路径 1149" d="M46.266,106.814H34.284a5.514,5.514,0,0,1-5.535-5.535V59.472A2.9,2.9,0,0,0,25.675,56.4,2.9,2.9,0,0,0,22.6,59.472v41.807a11.672,11.672,0,0,0,11.682,11.682H46.266a3.074,3.074,0,1,0,0-6.147Z" transform="translate(24.086 116.114)"/>
      </g>
    </g>
  </g>
</svg>
