<svg xmlns="http://www.w3.org/2000/svg" xmlns:xlink="http://www.w3.org/1999/xlink" width="2849.526" height="3505.099" viewBox="0 0 2849.526 3505.099">
  <defs>
    <style>
      .cls-1 {
        clip-path: url(#clip-Artboard_34);
      }

      .cls-2, .cls-6, .cls-7 {
        fill: #fff;
      }

      .cls-2 {
        stroke: #000;
        stroke-width: 2px;
        fill-rule: evenodd;
      }

      .cls-3, .cls-4 {
        font-size: 64px;
      }

      .cls-3 {
        font-family: Helvetica-Bold, Helvetica;
        font-weight: 700;
        letter-spacing: 0.1em;
      }

      .cls-4 {
        fill: #797777;
        font-family: PingFangSC-Regular, PingFang SC;
        letter-spacing: 0.05em;
      }

      .cls-5 {
        fill: #ca3136;
      }

      .cls-6 {
        font-size: 71px;
        font-family: Helvetica;
      }
    </style>
    <clipPath id="clip-Artboard_34">
      <rect width="2849.526" height="3505.099"/>
    </clipPath>
  </defs>
  <g id="Artboard_34" data-name="Artboard – 34" class="cls-1">
    <rect class="cls-7" width="2849.526" height="3505.099"/>
    <path id="path2427" class="cls-2" d="M-32.705,436.919C400.671,165.76,770.636,193.2,1137.011-40.432c196.537,50.319,342.849,30.2,478.1-5.425,414.964,223.263,779.818,259.059,1169.711,488.2-32.406,239.264-103.771,446.008-222.794,612.963-144.416-90.452-281.057-126.392-413.115-130.187l-9.291,1627.336c-568.927,123.832-1051.144,70.328-1522.482-5.42L612.5,930.545c-165.972-5.635-292.253,66.039-422.4,130.187C64.929,861.294,6.445,650.72-32.706,436.919h0Z" transform="translate(43.705 168.857)"/>
    <g id="组_36" data-name="组 36">
      <g id="组_4" data-name="组 4" transform="translate(1218.365 628.533)">
        <text id="Unauthorized" class="cls-3" transform="translate(206.445 625.003)"><tspan x="-239.637" y="0">Unauthorized</tspan></text>
        <text id="立入禁止" class="cls-4" transform="translate(206 747.008)"><tspan x="-132.8" y="0">立入禁止</tspan></text>
        <g id="icon" transform="translate(489.4 0)">
          <rect id="矩形_1" data-name="矩形 1" class="cls-5" width="69.914" height="204.365" rx="10" transform="translate(0 13.445)"/>
          <text id="_4_0_1" data-name="4
0
1" class="cls-6" transform="translate(34.756 75)"><tspan x="-19.743" y="0">4</tspan><tspan x="-19.743" y="61">0</tspan><tspan x="-19.743" y="122">1</tspan></text>
        </g>
      </g>
      <g id="np_encryption_1871679_000000" transform="translate(1266.041 768.963)">
        <path id="路径_1150" data-name="路径 1150" d="M76.294,76.367a19.051,19.051,0,0,0,5.422-13.312,18.747,18.747,0,1,0-37.494,0,19.06,19.06,0,0,0,5.422,13.312l-6.9,29.1a5.027,5.027,0,0,0,.989,4.433,4.5,4.5,0,0,0,3.945,1.979l31.082-.013a4.471,4.471,0,0,0,3.945-1.979,5.027,5.027,0,0,0,.989-4.433Zm-22.2,25.647L60.5,75.879a5.847,5.847,0,0,0-1.979-5.422,8.685,8.685,0,0,1-3.945-7.4,8.879,8.879,0,0,1,17.757,0,8.7,8.7,0,0,1-3.945,7.4c-1.979.989-2.467,3.456-1.979,5.422l6.412,26.135Z" transform="translate(92.169 95.016)"/>
        <path id="路径_1151" data-name="路径 1151" d="M273.015,177.795a22.178,22.178,0,1,0,21.214-28.6,21.806,21.806,0,0,0-21.7,18.747l-62.639-.013V146.713h38.47a4.481,4.481,0,0,0,3.456-1.478l20.713-20.713a19.381,19.381,0,0,0,8.879,1.979,22.191,22.191,0,1,0-22.191-22.191,21.527,21.527,0,0,0,5.422,14.3l-18.246,18.246H209.4a22.155,22.155,0,0,0-11.834-15.29L231.6,91.488l1.478-1.478,10.845-24.657a13.748,13.748,0,0,0,4.433.488A22.191,22.191,0,1,0,226.167,43.65a21.731,21.731,0,0,0,8.879,17.758L224.689,85.076,193.118,112.7V101.356a37.48,37.48,0,0,0-74.959,0v6.412L105.336,89.522V45.127c9.868-2.467,17.256-10.845,17.256-21.7a22.191,22.191,0,1,0-44.381,0,22.665,22.665,0,0,0,17.256,21.7v45.86a6.841,6.841,0,0,0,.989,2.955L115.2,120.578a22.338,22.338,0,0,0-13.312,16.28H70.823L52.552,118.612a21.465,21.465,0,0,0,5.422-14.3A22.1,22.1,0,0,0,35.784,82.12c-12.323-.013-22.679,9.855-22.679,22.178A22.1,22.1,0,0,0,35.3,126.489c3.456,0,6.412-.488,8.879-1.979l20.713,20.713a4.481,4.481,0,0,0,3.456,1.478h32.546v21.214l-56.227.013a22.09,22.09,0,1,0-21.7,25.634c9.868,0,18.246-6.9,21.214-15.779h57.218l-.013,21.714H68.833a4.481,4.481,0,0,0-3.456,1.478L48.121,218.231A21.665,21.665,0,0,0,34.809,213.8,22.191,22.191,0,1,0,57,235.988a26.539,26.539,0,0,0-2.467-10.356l16.28-16.28h31.069A23.281,23.281,0,0,0,124.573,227.6h10.356v42.413l-8.39,5.435a21.634,21.634,0,0,0-15.29-6.412,22.191,22.191,0,1,0,19.723,32.547,21.57,21.57,0,0,0,.989-18.246c8.879-6.412,12.823-6.9,12.823-11.346V226.621h21.7V256.7a4.724,4.724,0,0,0,2.955,4.433l19.235,9.367c-3.456,14.3,7.4,27.124,21.7,27.124a22.191,22.191,0,1,0,0-44.381,22.487,22.487,0,0,0-17.256,8.39l-16.768-8.39V226.12h10.356A23.281,23.281,0,0,0,209.4,207.874h36.992l16.28,16.28a22.938,22.938,0,0,0-2.467,10.356A22.191,22.191,0,1,0,282.4,212.32a21.638,21.638,0,0,0-13.312,4.433L251.829,199.5c-.513.488-1.991,0-3.469,0H209.89V178.283h63.126Zm21.214-18.747a12.335,12.335,0,1,1-12.335,12.335A12.531,12.531,0,0,1,294.229,159.048ZM281.894,91.975a12.335,12.335,0,1,1-12.335,12.335,12.217,12.217,0,0,1,12.335-12.335ZM248.357,30.814a12.335,12.335,0,1,1-12.335,12.335A12.217,12.217,0,0,1,248.357,30.814Zm-160.292-7.4a12.335,12.335,0,0,1,24.67,0,12.335,12.335,0,1,1-24.67,0ZM22.958,104.3a12.335,12.335,0,1,1,12.335,12.335A12.217,12.217,0,0,1,22.958,104.3Zm0,79.409a12.335,12.335,0,0,1,0-24.67,12.335,12.335,0,0,1,0,24.67Zm11.834,64.617a12.335,12.335,0,1,1,12.335-12.335A12.531,12.531,0,0,1,34.792,248.323ZM121.6,297.638a12.344,12.344,0,1,1-10.845-18.259c9.367.013,15.779,9.38,10.845,18.258Zm88.286-33.049a12.335,12.335,0,1,1-12.335,12.335A12.217,12.217,0,0,1,209.885,264.589ZM155.636,73.729a27.583,27.583,0,0,1,27.625,27.625v17.256h-55.25V101.354a27.575,27.575,0,0,1,27.625-27.625Zm44.382,130.7a13.257,13.257,0,0,1-13.312,13.312H124.554a13.257,13.257,0,0,1-13.312-13.312V141.792a13.257,13.257,0,0,1,13.312-13.312h62.139A13.257,13.257,0,0,1,200,141.792Zm82.374,19.235A12.335,12.335,0,1,1,270.057,236,12.217,12.217,0,0,1,282.392,223.666Z" transform="translate(0 0)"/>
      </g>
    </g>
  </g>
</svg>
