<svg xmlns="http://www.w3.org/2000/svg" xmlns:xlink="http://www.w3.org/1999/xlink" width="2849.525" height="3505.099" viewBox="0 0 2849.525 3505.099">
  <defs>
    <style>
      .cls-1 {
        clip-path: url(#clip-Artboard_35);
      }

      .cls-2, .cls-6, .cls-7 {
        fill: #fff;
      }

      .cls-2 {
        stroke: #000;
        stroke-width: 2px;
        fill-rule: evenodd;
      }

      .cls-3, .cls-4 {
        font-size: 64px;
      }

      .cls-3 {
        font-family: Helvetica-Bold, Helvetica;
        font-weight: 700;
        letter-spacing: 0.1em;
      }

      .cls-4 {
        fill: #797777;
        font-family: PingFangSC-Regular, PingFang SC;
        letter-spacing: 0.05em;
      }

      .cls-5 {
        fill: #ca3136;
      }

      .cls-6 {
        font-size: 71px;
        font-family: Helvetica;
      }
    </style>
    <clipPath id="clip-Artboard_35">
      <rect width="2849.526" height="3505.099"/>
    </clipPath>
  </defs>
  <g id="Artboard_35" data-name="Artboard – 35" class="cls-1">
    <rect class="cls-7" width="2849.526" height="3505.099"/>
    <path id="path2427" class="cls-2" d="M-32.705,436.919C400.671,165.76,770.636,193.2,1137.011-40.432c196.537,50.319,342.849,30.2,478.1-5.425,414.964,223.263,779.818,259.059,1169.711,488.2-32.406,239.264-103.771,446.008-222.794,612.963-144.416-90.452-281.057-126.392-413.115-130.187l-9.291,1627.336c-568.927,123.832-1051.144,70.328-1522.482-5.42L612.5,930.545c-165.972-5.635-292.253,66.039-422.4,130.187C64.929,861.294,6.445,650.72-32.706,436.919h0Z" transform="translate(43.705 168.857)"/>
    <g id="组_37" data-name="组 37">
      <g id="组_4" data-name="组 4" transform="translate(1218.365 628.533)">
        <text id="Payment_Required" data-name="Payment Required" class="cls-3" transform="translate(206.445 625.003)"><tspan x="-328.969" y="0">Payment Required</tspan></text>
        <text id="有钱能使磨推鬼" class="cls-4" transform="translate(206 747.008)"><tspan x="-233.6" y="0">有钱能使磨推鬼</tspan></text>
        <g id="icon" transform="translate(489.4 0)">
          <rect id="矩形_1" data-name="矩形 1" class="cls-5" width="69.914" height="204.365" rx="10" transform="translate(0 13.445)"/>
          <text id="_4_0_2" data-name="4
0
2" class="cls-6" transform="translate(34.756 75)"><tspan x="-19.743" y="0">4</tspan><tspan x="-19.743" y="61">0</tspan><tspan x="-19.743" y="122">2</tspan></text>
        </g>
      </g>
      <g id="np_money_1278213_000000" transform="translate(1261.929 744.931)">
        <path id="路径_1152" data-name="路径 1152" d="M42.674,72.361h20.8a10.413,10.413,0,0,1,10.4,10.4h10.4a20.826,20.826,0,0,0-20.8-20.8h-5.2v-10.4h-10.4v10.4h-5.2a20.826,20.826,0,0,0-20.8,20.8v10.4a20.826,20.826,0,0,0,20.8,20.8h20.8a10.413,10.413,0,0,1,10.4,10.4v10.4a10.413,10.413,0,0,1-10.4,10.4h-20.8a10.413,10.413,0,0,1-10.4-10.4h-10.4a20.826,20.826,0,0,0,20.8,20.8h5.2v10.4h10.4v-10.4h5.2a20.826,20.826,0,0,0,20.8-20.8v-10.4a20.826,20.826,0,0,0-20.8-20.8h-20.8a10.413,10.413,0,0,1-10.4-10.4V82.76a10.413,10.413,0,0,1,10.4-10.4Z" transform="translate(47.282 116.388)"/>
        <path id="路径_1153" data-name="路径 1153" d="M281.37,86.785a15.575,15.575,0,0,0,6.175-12.427v-10.4A15.584,15.584,0,0,0,272.336,48.4l11.023-13.792a19.1,19.1,0,0,0,4.186-11.92V20.646A19.074,19.074,0,0,0,263.835,2.135l-38.686,9.671L186.463,2.135a19.074,19.074,0,0,0-23.711,18.511v2.041a19.1,19.1,0,0,0,4.186,11.92L177.962,48.4a15.584,15.584,0,0,0-15.209,15.56v10.4a15.593,15.593,0,0,0,6.188,12.44,100.449,100.449,0,0,0-20.37,18.9c-.351-.026-.689-.091-1.04-.1L158.554,91.8a19.04,19.04,0,0,0,4.2-11.92V77.842a19.074,19.074,0,0,0-23.71-18.511L100.357,69,61.671,59.331A19.074,19.074,0,0,0,37.961,77.842v2.041A19.1,19.1,0,0,0,42.146,91.8L53.17,105.6a15.584,15.584,0,0,0-15.209,15.56v10.4a15.575,15.575,0,0,0,6.175,12.427A98.742,98.742,0,1,0,192.3,261.03,98.709,98.709,0,0,0,281.374,86.786Zm-108.22-64.1V20.645a8.827,8.827,0,0,1,10.789-8.437l41.208,10.309,41.195-10.3a8.825,8.825,0,0,1,10.8,8.423v2.041a8.769,8.769,0,0,1-1.9,5.434l-16.2,20.24h-67.8l-16.2-20.24a8.77,8.77,0,0,1-1.9-5.434Zm0,41.271a5.215,5.215,0,0,1,5.2-5.2h93.594a5.215,5.215,0,0,1,5.2,5.2v10.4a5.215,5.215,0,0,1-5.2,5.2H178.35a5.215,5.215,0,0,1-5.2-5.2ZM48.358,79.881V77.84A8.833,8.833,0,0,1,59.148,69.4l41.208,10.309,41.195-10.3a8.82,8.82,0,0,1,10.8,8.423V79.88a8.769,8.769,0,0,1-1.9,5.434l-16.2,20.24h-67.8l-16.2-20.24a8.769,8.769,0,0,1-1.9-5.434Zm0,41.271a5.215,5.215,0,0,1,5.2-5.2h93.594a5.215,5.215,0,0,1,5.2,5.2v10.4a5.215,5.215,0,0,1-5.2,5.2H53.558a5.215,5.215,0,0,1-5.2-5.2Zm52,192.386a88.33,88.33,0,0,1-41.4-166.39H141.76a88.33,88.33,0,0,1-41.4,166.39Zm124.792-57.2a88.078,88.078,0,0,1-29.586-5.187,98.176,98.176,0,0,0,3.588-26.011,99.2,99.2,0,0,0-2.2-20.591,20.753,20.753,0,0,0,17.8,10.191h5.2v10.4h10.4v-10.4h5.2a20.826,20.826,0,0,0,20.8-20.8v-10.4a20.826,20.826,0,0,0-20.8-20.8h-20.8a10.413,10.413,0,0,1-10.4-10.4v-10.4a10.413,10.413,0,0,1,10.4-10.4h20.8a10.413,10.413,0,0,1,10.4,10.4h10.4a20.826,20.826,0,0,0-20.8-20.8h-5.2v-10.4h-10.4v10.4h-5.2a20.826,20.826,0,0,0-20.8,20.8v10.4a20.826,20.826,0,0,0,20.8,20.8h20.8a10.413,10.413,0,0,1,10.4,10.4v10.4a10.413,10.413,0,0,1-10.4,10.4h-20.8a10.413,10.413,0,0,1-10.4-10.4H194.092a98.242,98.242,0,0,0-37.514-49.97,15.575,15.575,0,0,0,6.175-12.427v-10.4a15.563,15.563,0,0,0-4.394-10.815,89.371,89.371,0,0,1,25.452-20.383h82.752a88.334,88.334,0,0,1-41.414,166.39Z" transform="translate(0 0)"/>
        <path id="路径_1154" data-name="路径 1154" d="M18.212,68.75H7.813a78.452,78.452,0,0,0,55.714,74.759l2.964-9.97A67.975,67.975,0,0,1,18.211,68.75Z" transform="translate(14.549 156.398)"/>
        <path id="路径_1155" data-name="路径 1155" d="M27.906,99.141a77.462,77.462,0,0,0,11.127.793v-10.4a70.569,70.569,0,0,1-9.671-.676Z" transform="translate(61.321 203.208)"/>
      </g>
    </g>
  </g>
</svg>
