<svg xmlns="http://www.w3.org/2000/svg" xmlns:xlink="http://www.w3.org/1999/xlink" width="2849.526" height="3505.1" viewBox="0 0 2849.526 3505.1">
  <defs>
    <style>
      .cls-1 {
        clip-path: url(#clip-Artboard_21);
      }

      .cls-10, .cls-2, .cls-7 {
        fill: #fff;
      }

      .cls-2 {
        stroke: #000;
        stroke-width: 2px;
        fill-rule: evenodd;
      }

      .cls-3 {
        fill: #050505;
        font-family: Helvetica-Bold, Helvetica;
        font-weight: 700;
      }

      .cls-3, .cls-9 {
        font-size: 64px;
      }

      .cls-4, .cls-9 {
        fill: #797777;
      }

      .cls-5 {
        fill: #000;
      }

      .cls-6 {
        fill: #ca3136;
      }

      .cls-7 {
        font-size: 71px;
        font-family: Helvetica;
      }

      .cls-8 {
        fill: #020202;
      }

      .cls-9 {
        font-family: PingFangSC-Regular, PingFang SC;
        letter-spacing: 1.5em;
      }
    </style>
    <clipPath id="clip-Artboard_21">
      <rect width="2849.526" height="3505.099"/>
    </clipPath>
  </defs>
  <g id="Artboard_21" data-name="Artboard – 21" class="cls-1">
    <rect class="cls-10" width="2849.526" height="3505.099"/>
    <g id="组_1" data-name="组 1" transform="translate(-0.434 211.494)">
      <path id="path2427" class="cls-2" d="M-32.705,436.92C400.672,165.76,770.636,193.2,1137.011-40.432c196.537,50.319,342.849,30.2,478.1-5.425,414.964,223.263,779.818,259.059,1169.711,488.2-32.406,239.264-103.771,446.008-222.794,612.963-144.416-90.452-281.057-126.392-413.115-130.187l-9.291,1627.336c-568.927,123.832-1051.144,70.328-1522.483-5.42L612.5,930.545c-165.972-5.635-292.253,66.039-422.4,130.187C64.929,861.294,6.445,650.72-32.706,436.92h0Z" transform="translate(64.705 168.858)"/>
      <g id="组_10" data-name="组 10" transform="translate(1169.451 679.625)">
        <g id="组_1-2" data-name="组 1">
          <text id="Forbidden_City" data-name="Forbidden City" class="cls-3" transform="translate(271.689 614.247)"><tspan x="-225.766" y="0">Forbidden</tspan><tspan class="cls-4" y="0"> </tspan><tspan class="cls-5" y="0">City</tspan></text>
          <g id="icon" transform="translate(527.046)">
            <rect id="矩形_1" data-name="矩形 1" class="cls-6" width="69.914" height="204.365" rx="10" transform="translate(0 13.445)"/>
            <text id="_4_0_3" data-name="4
0
3" class="cls-7" transform="translate(35.445 78)"><tspan x="-19.743" y="0">4</tspan><tspan x="-19.743" y="61">0</tspan><tspan x="-19.743" y="122">3</tspan></text>
          </g>
          <path id="np_beijing_2306317_FFFFFF" class="cls-8" d="M407.686,254.064h-6.857V233.493a6.848,6.848,0,0,0-6.857-6.857h-6.857V206.065a6.848,6.848,0,0,0-6.857-6.857H373.4v-48h16.148a9.525,9.525,0,0,0,4.269-18.034,112.047,112.047,0,0,1-27.273-19.251V96.352H373.4a6.861,6.861,0,0,0,2.777-13.131l-9.634-4.286V68.924a6.857,6.857,0,1,0-13.714,0V72.85l-2.914-1.3a201.012,201.012,0,0,1-60.082-41.09l-6.257-12.6A6.861,6.861,0,1,0,271.3,23.994l1.9,3.788H144.5l1.9-3.788a6.861,6.861,0,1,0-12.274-6.137l-6.291,12.583-3.377,3.12v.017A201.846,201.846,0,0,1,74.643,67.347l-9.806,4.7v-3.12a6.857,6.857,0,1,0-13.714,0v9.685L41.3,83.323a6.86,6.86,0,0,0,2.966,13.028h6.857v17.571a112.047,112.047,0,0,1-27.273,19.251,9.525,9.525,0,0,0,4.269,18.034H44.266v48H37.409a6.855,6.855,0,0,0-6.857,6.857v20.571H23.7a6.855,6.855,0,0,0-6.857,6.857v20.571H9.981a6.855,6.855,0,0,0-6.857,6.857v54.856a6.848,6.848,0,0,0,6.857,6.857h397.7a6.848,6.848,0,0,0,6.857-6.857V260.921a6.848,6.848,0,0,0-6.857-6.857ZM255.323,281.492l-3.428-13.714h50.638l5.708,13.714Zm-6.857-27.428-3.428-13.714h46.079l5.708,13.714ZM186.755,240.35H230.9l3.428,13.714h-51Zm-17.571,13.714H127.7l5.708-13.714H172.63Zm24.428-41.142H224.04l3.428,13.714H190.184ZM305.966,240.35H330.6l8.005,13.714H311.691Zm-5.726-13.714-5.691-13.714h20.057l7.988,13.714Zm-9.12-27.428H270.549V182.066a10.286,10.286,0,1,1,20.571,0Zm-27.428,13.714h15.994l5.726,13.714h-43.8l-3.428-13.714Zm-41.142-13.714H195.123V185.495a13.714,13.714,0,0,1,27.428,0Zm-46.491,27.428H139.117l5.726-13.714h34.645Zm-28.937-27.428H126.552V182.066a10.286,10.286,0,1,1,20.571,0Zm-27.428,13.714H129.98l-5.709,13.714H101.918l7.988-13.714Zm-1.149,27.428-5.709,13.714H85.924l8.005-13.714Zm-11.417,27.428L101.4,281.492H69.913l8.005-13.714Zm53.706,27.428V308.92h-48V295.206Zm-44.569-13.714,5.709-13.714h43.782l-3.428,13.714ZM179.9,267.778h57.857l3.428,13.714H176.472Zm131.79,27.428V308.92H256.833V295.206Zm11.434-13.714L317.4,267.778h29.21l8.005,13.714Zm47.365,0L362.5,267.778h38.331v13.714Zm-15.994-27.428-8.005-13.714h40.627v13.714ZM338.5,226.637l-8.005-13.714H373.4v13.714Zm.617-27.428V182.066a10.286,10.286,0,0,1,20.571,0v17.142ZM64.838,110.07V96.356H188.263V110.07ZM201.977,96.356h13.714V110.07H201.977Zm27.428,0H352.831V110.07H229.405ZM80.557,79.728A215.366,215.366,0,0,0,133.75,43.66l2.331-2.16H281.449a214.807,214.807,0,0,0,59.723,41.142H74.472ZM60.775,123.784H356.9A125.333,125.333,0,0,0,373.986,137.5H43.684a125.324,125.324,0,0,0,17.091-13.714Zm298.911,27.428v9.257a23.857,23.857,0,0,0-34.285,21.6V199.21H304.83V182.068a24,24,0,1,0-48,0V199.21H236.26V185.5a27.428,27.428,0,1,0-54.856,0V199.21H160.833V182.068a24,24,0,1,0-48,0V199.21H92.263V182.068a23.856,23.856,0,0,0-34.285-21.6v-9.257ZM57.98,182.068a10.286,10.286,0,1,1,20.571,0V199.21H57.98ZM44.266,212.924H94.048l-8.005,13.714H44.267ZM30.552,240.352H78.035l-8.005,13.714H30.55ZM16.838,267.78H62.043l-8.005,13.714h-37.2Zm0,27.428H51.123v13.714H16.838Zm48,13.714V295.208H99.124v13.714Zm109.712,0V295.208h68.57v13.714Zm150.853,0V295.208h34.285v13.714Zm75.429,0H373.4V295.208h27.428Z" transform="translate(77.546 152.658)"/>
          <text id="禁忌之城" class="cls-9" transform="translate(272 720.118)"><tspan x="-272" y="0">禁忌之城</tspan></text>
        </g>
      </g>
    </g>
  </g>
</svg>
