<svg xmlns="http://www.w3.org/2000/svg" xmlns:xlink="http://www.w3.org/1999/xlink" width="2849.526" height="3505.1" viewBox="0 0 2849.526 3505.1">
  <defs>
    <style>
      .cls-1 {
        clip-path: url(#clip-Artboard_46);
      }

      .cls-2, .cls-7, .cls-9 {
        fill: #fff;
      }

      .cls-2 {
        stroke: #000;
        stroke-width: 2px;
        fill-rule: evenodd;
      }

      .cls-3, .cls-5 {
        font-size: 64px;
      }

      .cls-3 {
        font-family: Helvetica-Bold, Helvetica;
        font-weight: 700;
      }

      .cls-4 {
        fill: #faf7f7;
      }

      .cls-5 {
        fill: #797777;
        font-family: PingFangSC-Regular, PingFang SC;
        letter-spacing: 1.2em;
      }

      .cls-6 {
        fill: #ca3136;
      }

      .cls-7 {
        font-size: 71px;
        font-family: Helvetica;
      }

      .cls-8 {
        opacity: 0.054;
      }
    </style>
    <clipPath id="clip-Artboard_46">
      <rect width="2849.526" height="3505.099"/>
    </clipPath>
  </defs>
  <g id="Artboard_46" data-name="Artboard – 46" class="cls-1">
    <rect class="cls-9" width="2849.526" height="3505.099"/>
    <g id="组_3" data-name="组 3" transform="translate(-12.434 83.988)">
      <path id="path2427" class="cls-2" d="M-32.705,436.919C400.672,165.76,770.636,193.2,1137.011-40.432c196.537,50.319,342.849,30.2,478.1-5.425,414.964,223.263,779.818,259.059,1169.711,488.2-32.406,239.264-103.771,446.008-222.794,612.963-144.416-90.452-281.057-126.392-413.115-130.187l-9.291,1627.336c-568.927,123.832-1051.144,70.328-1522.483-5.42L612.5,930.545c-165.972-5.635-292.253,66.039-422.4,130.187C64.929,861.294,6.445,650.72-32.706,436.919h0Z" transform="translate(44.705 168.857)"/>
      <g id="组_3-2" data-name="组 3" transform="translate(1101.049 641.979)">
        <text id="Object_Not_Found" data-name="Object Not Found" class="cls-3" transform="translate(315.067 625.003)"><tspan x="-268.406" y="0">Object</tspan><tspan class="cls-4" y="0"> </tspan><tspan y="0">Not Found</tspan></text>
        <text id="凭实力单身" class="cls-5" transform="translate(314 749.697)"><tspan x="-313.6" y="0">凭实力单身</tspan></text>
        <g id="icon" transform="translate(570.07 0)">
          <rect id="矩形_1" data-name="矩形 1" class="cls-6" width="69.914" height="204.365" rx="10" transform="translate(0 13.445)"/>
          <text id="_4_0_4" data-name="4
0
4" class="cls-7" transform="translate(34.445 79)"><tspan x="-19.743" y="0">4</tspan><tspan x="-19.743" y="61">0</tspan><tspan x="-19.743" y="122">4</tspan></text>
        </g>
        <g id="组_5" data-name="组 5" transform="translate(128.741 112.938)">
          <path id="np_girl_1498131_FFFFFF" d="M283.5,126.532a1.53,1.53,0,0,1-1.048-1.323v-2.646c0-61.607-50.115-112.391-111.7-113.231A111.389,111.389,0,0,0,90.937,41.957a117.648,117.648,0,0,0-34.978,83.237,1.51,1.51,0,0,1-1.048,1.323A63.55,63.55,0,0,0,14.831,193.6c3.4,27.9,26.045,50.973,53.876,54.856a65.016,65.016,0,0,0,9.088.636,62.869,62.869,0,0,0,37.83-12.61,84.833,84.833,0,0,0,35.648,17.4V261.1a84.325,84.325,0,0,0-16.372,5.429c-2.2,1-4.467,2.147-7.147,3.676a84.5,84.5,0,0,0-42.915,73.218v21.2a4.385,4.385,0,0,0,4.4,4.4H249.113a4.385,4.385,0,0,0,4.4-4.4v-21.2a82.877,82.877,0,0,0-7.525-34.583,84.818,84.818,0,0,0-42.554-42.314,83.175,83.175,0,0,0-16.372-5.429v-7.215A84.513,84.513,0,0,0,222.845,236.5a63.084,63.084,0,0,0,46.848,11.957c27.814-3.883,50.458-26.955,53.84-54.839A63.567,63.567,0,0,0,283.5,126.532ZM244.709,360.247H93.6v-16.8a75.581,75.581,0,0,1,33.758-62.672c.052.12.12.241.172.361.258.67.584,1.289.859,1.941.55,1.289,1.117,2.56,1.787,3.78.378.722.825,1.392,1.237,2.079.653,1.1,1.34,2.165,2.079,3.213.481.687,1.014,1.34,1.546,1.993.773.962,1.563,1.907,2.405,2.817.584.619,1.168,1.237,1.787,1.821.893.859,1.821,1.684,2.766,2.474.653.533,1.288,1.082,1.976,1.581,1.014.756,2.079,1.46,3.161,2.147.687.43,1.357.893,2.062,1.288,1.22.687,2.491,1.288,3.762,1.873.636.292,1.237.618,1.89.893a48.036,48.036,0,0,0,6.047,2.027l38.517,10.119a58.934,58.934,0,0,0,6.425,1.254c.618.086,1.237.155,1.855.223,1.718.189,3.436.292,5.154.326.361,0,.722.069,1.065.069.206,0,.4-.017.6-.017.4,0,.773-.034,1.168-.034,1.2-.034,2.405-.1,3.608-.223.464-.052.945-.086,1.409-.155,1.22-.137,2.44-.326,3.659-.55.344-.069.687-.1,1.031-.189,1.546-.309,3.058-.687,4.57-1.117.309-.086.6-.206.911-.292,1.2-.361,2.388-.773,3.573-1.22.464-.172.928-.361,1.374-.55,1.065-.447,2.13-.911,3.178-1.426.275-.137.55-.241.825-.378a73.954,73.954,0,0,1,4.879,26.508Zm-62.79-114.313a4.388,4.388,0,0,0-3.642,4.329v14.466a4.39,4.39,0,0,0,3.642,4.329,75.153,75.153,0,0,1,17.918,5.515,76.129,76.129,0,0,1,36.369,34.291,4.265,4.265,0,0,1-.481.258c-.55.275-1.134.515-1.684.773-.876.4-1.752.79-2.646,1.134-.6.223-1.2.429-1.821.636-.893.292-1.769.584-2.68.825-.636.172-1.271.326-1.907.481-.893.206-1.8.4-2.7.55-.653.12-1.288.223-1.941.309-.911.12-1.838.206-2.749.275-.653.052-1.288.1-1.941.12-.962.034-1.907.017-2.869,0-.618-.017-1.237-.017-1.838-.052-1.048-.069-2.1-.189-3.144-.326-.515-.069-1.031-.1-1.546-.189a47.26,47.26,0,0,1-4.639-.962l-38.517-10.119a38.516,38.516,0,0,1-5.034-1.7c-.55-.223-1.065-.515-1.6-.756-1.048-.481-2.113-.979-3.11-1.546-.6-.344-1.168-.756-1.752-1.134-.876-.567-1.752-1.117-2.577-1.735-.584-.447-1.134-.945-1.7-1.409-.756-.636-1.495-1.271-2.2-1.976-.55-.533-1.048-1.1-1.563-1.666-.653-.7-1.271-1.426-1.873-2.2-.481-.6-.928-1.237-1.374-1.873-.55-.79-1.065-1.581-1.563-2.405q-.593-1.005-1.134-2.062c-.447-.859-.842-1.718-1.237-2.611-.309-.722-.618-1.46-.876-2.216-.137-.361-.223-.739-.344-1.117,1.151-.6,2.251-1.134,3.3-1.615a75.155,75.155,0,0,1,17.918-5.515,4.388,4.388,0,0,0,3.642-4.329l.017-14.448a4.4,4.4,0,0,0-3.642-4.329,75.585,75.585,0,0,1-36.919-17.781c-1.237-1.082-2.319-2.1-3.35-3.092-1.168-1.151-2.319-2.3-3.419-3.539A43.027,43.027,0,0,1,102.1,188.192a41.71,41.71,0,0,1,1.8-8.349,39.508,39.508,0,0,1,14.62-19.928c.034-.034.1-.052.137-.086a58.665,58.665,0,0,1,5.48-3.4c.687-.378,1.392-.773,2.113-1.134a68.218,68.218,0,0,1,6.322-2.886c51.316-19.705,62.087-53,64.356-66.142,33.947,10.342,48.035,40.767,48.189,41.094a4.366,4.366,0,0,0,2.062,2.062,3.133,3.133,0,0,0,.447.275,18.347,18.347,0,0,1,2.921,1.392,19.012,19.012,0,0,1,5.12,4.346c.155.189.309.361.464.55.326.429.618.876.893,1.323.189.292.361.584.533.876.223.412.447.842.636,1.271.172.378.326.773.481,1.151q.232.593.412,1.185c.155.5.258,1.014.361,1.512.069.326.155.653.206.979a18.919,18.919,0,0,1,.206,2.629,18.455,18.455,0,0,1-12.249,17.249,4.376,4.376,0,0,0-2.9,4.14v3.247c0,2.422-.137,4.776-.344,7.112a74.919,74.919,0,0,1-17.145,41.18c-.172.189-.309.378-.481.567-.687.807-1.443,1.563-2.165,2.354-1.477,1.546-2.989,3.075-4.639,4.518-.1.1-.189.223-.275.326a75.431,75.431,0,0,1-37.744,18.331Zm132.886-53.4c-2.921,24-22.4,43.843-46.333,47.208a54.345,54.345,0,0,1-39.032-9.243c.79-.807,1.529-1.632,2.285-2.474a79.136,79.136,0,0,0,21.44-48.91c.223-2.491.344-5.016.344-7.559v-.344a26.9,26.9,0,0,0,14.878-28.037c-.069-.481-.206-.962-.292-1.443-.137-.739-.292-1.46-.5-2.182-.172-.584-.4-1.151-.6-1.718-.206-.584-.412-1.151-.67-1.718-.275-.618-.584-1.2-.893-1.787-.258-.481-.515-.945-.79-1.409-.378-.618-.79-1.2-1.2-1.787-.292-.4-.584-.773-.893-1.151-.481-.6-1-1.168-1.529-1.735-.292-.309-.6-.6-.928-.893-.6-.567-1.22-1.117-1.873-1.632-.292-.223-.584-.43-.876-.636a25.555,25.555,0,0,0-2.251-1.495,1.486,1.486,0,0,1-.172-.12c-.618-.361-1.2-.636-1.8-.928-.275-.137-.515-.292-.79-.43-.67-1.306-1.787-3.35-3.333-5.807-.086-.137-.155-.258-.241-.4-.275-.429-.618-.928-.928-1.392-.309-.481-.6-.928-.962-1.443-.137-.206-.309-.412-.447-.618-8.315-11.854-24.859-29.584-52.3-36.043a4.373,4.373,0,0,0-3.711.825,4.306,4.306,0,0,0-1.546,2.835,3.217,3.217,0,0,0-.137.55v.189c-.155,2.732-2.869,39.152-53.757,61.11a2.243,2.243,0,0,0-.292.137c-.636.275-1.323.533-1.976.807-1.082.447-2.165.893-3.3,1.34-1.924.739-3.848,1.581-6.047,2.663-.412.206-.773.43-1.168.636-.79.412-1.581.825-2.336,1.254a67.946,67.946,0,0,0-6.477,4.02,49.434,49.434,0,0,0-20.341,39.891,51.941,51.941,0,0,0,13.108,34.7l.206.206c.859.962,1.752,1.907,2.7,2.869a54.44,54.44,0,0,1-39.1,9.329c-23.948-3.333-43.448-23.192-46.351-47.208a54.747,54.747,0,0,1,34.5-57.812,10.262,10.262,0,0,0,6.683-9.638A108.713,108.713,0,0,1,97.118,48.26c20.049-19.774,46.214-30.477,73.53-30.1,56.814.773,103.028,47.622,103.028,104.435v2.646a10.208,10.208,0,0,0,6.666,9.518A54.738,54.738,0,0,1,314.8,192.536Z" transform="translate(19.738 -9.328)"/>
          <rect id="矩形_6" data-name="矩形 6" class="cls-8" width="416.796" height="37.646" transform="translate(19.389 74.129) rotate(31)"/>
        </g>
      </g>
    </g>
  </g>
</svg>
