<svg xmlns="http://www.w3.org/2000/svg" xmlns:xlink="http://www.w3.org/1999/xlink" width="2849.525" height="3505.1" viewBox="0 0 2849.525 3505.1">
  <defs>
    <style>
      .cls-1 {
        clip-path: url(#clip-Artboard_36);
      }

      .cls-2, .cls-6, .cls-7 {
        fill: #fff;
      }

      .cls-2 {
        stroke: #000;
        stroke-width: 2px;
        fill-rule: evenodd;
      }

      .cls-3, .cls-4 {
        font-size: 64px;
      }

      .cls-3 {
        font-family: Helvetica-Bold, Helvetica;
        font-weight: 700;
        letter-spacing: 0.1em;
      }

      .cls-4 {
        fill: #797777;
        font-family: PingFangSC-Regular, PingFang SC;
        letter-spacing: 0.05em;
      }

      .cls-5 {
        fill: #ca3136;
      }

      .cls-6 {
        font-size: 71px;
        font-family: Helvetica;
      }
    </style>
    <clipPath id="clip-Artboard_36">
      <rect width="2849.526" height="3505.099"/>
    </clipPath>
  </defs>
  <g id="Artboard_36" data-name="Artboard – 36" class="cls-1">
    <rect class="cls-7" width="2849.526" height="3505.099"/>
    <path id="path2427" class="cls-2" d="M-32.705,436.919C400.671,165.76,770.636,193.2,1137.011-40.432c196.537,50.319,342.849,30.2,478.1-5.425,414.964,223.263,779.818,259.059,1169.711,488.2-32.406,239.264-103.771,446.008-222.794,612.963-144.416-90.452-281.057-126.392-413.115-130.187l-9.291,1627.336c-568.927,123.832-1051.144,70.328-1522.482-5.42L612.5,930.545c-165.972-5.635-292.253,66.039-422.4,130.187C64.929,861.294,6.445,650.72-32.706,436.919h0Z" transform="translate(43.705 168.857)"/>
    <g id="组_4" data-name="组 4" transform="translate(1218.365 628.533)">
      <text id="Method_Not_Allowed" data-name="Method Not Allowed" class="cls-3" transform="translate(206.445 625.003)"><tspan x="-360.744" y="0">Method Not Allowed</tspan></text>
      <text id="姿势改变命运" class="cls-4" transform="translate(206 747.008)"><tspan x="-200" y="0">姿势改变命运</tspan></text>
      <g id="icon" transform="translate(489.4 0)">
        <rect id="矩形_1" data-name="矩形 1" class="cls-5" width="69.914" height="204.365" rx="10" transform="translate(0 13.445)"/>
        <text id="_4_0_5" data-name="4
0
5" class="cls-6" transform="translate(34.756 75)"><tspan x="-19.743" y="0">4</tspan><tspan x="-19.743" y="61">0</tspan><tspan x="-19.743" y="122">5</tspan></text>
      </g>
    </g>
    <g id="np_making-love_28977_000000" transform="translate(1231.725 696.65)">
      <path id="路径_1156" data-name="路径 1156" d="M8.021,95.832a8.021,8.021,0,0,0,0,16.043H377.238a8.021,8.021,0,1,0,0-16.043Z" transform="translate(0.001 255.041)"/>
      <path id="路径_1157" data-name="路径 1157" d="M296.978,227.484H361.2a24.112,24.112,0,0,0,24.08-24.08v-24.08a24.112,24.112,0,0,0-24.08-24.08h-.933a21.786,21.786,0,0,0-21.145-28.1H264.336a21.455,21.455,0,0,0-2.559-24.14l-40.169-48.19a20.649,20.649,0,0,0-1.55-1.49,23.073,23.073,0,0,0-1.746-1.686,19.278,19.278,0,0,0-1.941-1.249,22.318,22.318,0,0,0-2.212-1.354,21.784,21.784,0,0,0-2.167-.768,20.919,20.919,0,0,0-2.423-.828,23.417,23.417,0,0,0-4.5-.512c-.135,0-.271-.045-.406-.045l.015-.015h-.015c-.09,0-.181.03-.271.03a21.67,21.67,0,0,0-3.416.3c-.572.105-1.144.286-1.716.436-.617.166-1.249.286-1.851.5a17.821,17.821,0,0,0-1.836.8c-.512.226-1.038.452-1.535.722-.6.331-1.159.737-1.731,1.114-.361.241-.752.436-1.1.692l-60.08,46.067a22.034,22.034,0,0,0-4.891,29.618H114.378a21.786,21.786,0,0,0-21.145,28.1H74.6a36.114,36.114,0,1,0-44.863,0H24.079A24.112,24.112,0,0,0,0,179.324V203.4a24.112,24.112,0,0,0,24.08,24.08H72.239a8.021,8.021,0,0,0,16.043,0H280.919a8.029,8.029,0,0,0,16.058,0ZM52.044,107.1A20.062,20.062,0,1,1,32.1,127.268,20.085,20.085,0,0,1,52.044,107.1Zm287.076,36.1a6.02,6.02,0,1,1,0,12.04H265.39a21.992,21.992,0,0,0-4.8-2.6l-20.2-7.57,3.251-1.851h95.475ZM140.942,110.262l43.3-33.2,16.57-12.717.06-.045a4.643,4.643,0,0,1,.993-.557,5.672,5.672,0,0,1,.888-.482,6.262,6.262,0,0,1,1.64-.286c.09,0,.181-.045.286-.045s.2.06.286.06a5.832,5.832,0,0,1,2.257.527,5.483,5.483,0,0,1,.828.632,5.687,5.687,0,0,1,1.4,1.144h.015l13.364,16.043,26.593,31.921a6.039,6.039,0,0,1-1.64,9.09l-8.4,4.8-28.1,16.058-8.533,4.876,19.083,7.164,33.125,12.431a5.878,5.878,0,0,1,3.477,3.627,5.972,5.972,0,0,1,.045,4.124,6.044,6.044,0,0,1-5.643,3.9,6.214,6.214,0,0,1-2.122-.391l-20.378-7.63-42.8-16.058-1.023-.391a6.018,6.018,0,0,1-.858-10.866l1.385-.8,28.1-16.058,20.468-11.694L214.055,89.583,203.776,77.242l-12.747,9.783L148.3,119.8a6.027,6.027,0,0,1-8.443-1.114,5.958,5.958,0,0,1,1.084-8.428Zm24.14,16.886,36.21-27.767L211,111.014l-28.233,16.133Zm-56.724,22.078a6.018,6.018,0,0,1,6.02-6.02h53.064a21.939,21.939,0,0,0-.828,7.751,22.3,22.3,0,0,0,.828,4.289H114.378A6.018,6.018,0,0,1,108.358,149.226Zm-84.279,62.2a8.029,8.029,0,0,1-8.021-8.021v-24.08a8.029,8.029,0,0,1,8.021-8.021H184.615l60.469,22.68a22.1,22.1,0,0,0,28.414-12.9,21.766,21.766,0,0,0,1.234-9.783h86.46a8.029,8.029,0,0,1,8.021,8.021v24.08a8.029,8.029,0,0,1-8.021,8.021Z" transform="translate(0 115.367)"/>
      <path id="路径_1158" data-name="路径 1158" d="M69.128,102.435A36.113,36.113,0,1,0,32.813,66.527,36.177,36.177,0,0,0,69.128,102.435ZM68.8,46.255A20.062,20.062,0,1,1,48.856,66.421,20.085,20.085,0,0,1,68.8,46.255Z" transform="translate(93.605 67.84)"/>
      <path id="路径_1159" data-name="路径 1159" d="M104.147,66.81a22.054,22.054,0,0,0,31.213,0l22.695-22.695A22.071,22.071,0,1,0,126.842,12.9l-7.088,7.088L112.665,12.9a22.066,22.066,0,1,0-31.2,31.213ZM92.8,24.249a6.032,6.032,0,0,1,8.518,0L119.769,42.7,138.22,24.249a6.023,6.023,0,0,1,8.518,8.518L124.043,55.462a6.032,6.032,0,0,1-8.518,0L92.8,32.752a6.013,6.013,0,0,1,0-8.5Z" transform="translate(213.976 0)"/>
      <path id="路径_1160" data-name="路径 1160" d="M111.371,42.892A22.078,22.078,0,0,0,84.417,77.446L95.764,88.794a22.054,22.054,0,0,0,31.213,0l11.347-11.348a22.08,22.08,0,0,0-26.954-34.555ZM126.978,66.1,115.63,77.446a6.032,6.032,0,0,1-8.518,0L95.764,66.1a6.023,6.023,0,0,1,8.518-8.518l7.088,7.088,7.088-7.088a6.023,6.023,0,1,1,8.518,8.518Z" transform="translate(222.359 95.086)"/>
      <path id="路径_1161" data-name="路径 1161" d="M81.806,78.6a22.073,22.073,0,0,0,31.2,0L130.04,61.568A22.071,22.071,0,1,0,98.827,30.354l-1.415,1.415L96,30.354A22.066,22.066,0,1,0,64.8,61.568ZM76.132,41.717a6.032,6.032,0,0,1,8.518,0L97.427,54.494,110.2,41.717a6.023,6.023,0,0,1,8.518,8.518L101.7,67.272a6.032,6.032,0,0,1-8.518,0L76.162,50.235a6,6,0,0,1-.03-8.518Z" transform="translate(166.428 49.788)"/>
    </g>
  </g>
</svg>
