<svg xmlns="http://www.w3.org/2000/svg" xmlns:xlink="http://www.w3.org/1999/xlink" width="2849.525" height="3505.1" viewBox="0 0 2849.525 3505.1">
  <defs>
    <style>
      .cls-1 {
        clip-path: url(#clip-Artboard_37);
      }

      .cls-2, .cls-6, .cls-7 {
        fill: #fff;
      }

      .cls-2 {
        stroke: #000;
        stroke-width: 2px;
        fill-rule: evenodd;
      }

      .cls-3, .cls-4 {
        font-size: 64px;
      }

      .cls-3 {
        font-family: Helvetica-Bold, Helvetica;
        font-weight: 700;
        letter-spacing: 0.1em;
      }

      .cls-4 {
        fill: #797777;
        font-family: PingFangSC-Regular, PingFang SC;
        letter-spacing: 0.05em;
      }

      .cls-5 {
        fill: #ca3136;
      }

      .cls-6 {
        font-size: 71px;
        font-family: Helvetica;
      }
    </style>
    <clipPath id="clip-Artboard_37">
      <rect width="2849.526" height="3505.099"/>
    </clipPath>
  </defs>
  <g id="Artboard_37" data-name="Artboard – 37" class="cls-1">
    <rect class="cls-7" width="2849.526" height="3505.099"/>
    <path id="path2427" class="cls-2" d="M-32.705,436.919C400.671,165.76,770.636,193.2,1137.011-40.432c196.537,50.319,342.849,30.2,478.1-5.425,414.964,223.263,779.818,259.059,1169.711,488.2-32.406,239.264-103.771,446.008-222.794,612.963-144.416-90.452-281.057-126.392-413.115-130.187l-9.291,1627.336c-568.927,123.832-1051.144,70.328-1522.482-5.42L612.5,930.545c-165.972-5.635-292.253,66.039-422.4,130.187C64.929,861.294,6.445,650.72-32.706,436.919h0Z" transform="translate(43.705 168.857)"/>
    <g id="组_4" data-name="组 4" transform="translate(1218.365 628.533)">
      <text id="Not_Acceptable" data-name="Not Acceptable" class="cls-3" transform="translate(206.445 625.003)"><tspan x="-273.366" y="0">Not Acceptable</tspan></text>
      <text id="不是每个需求都能忍" class="cls-4" transform="translate(206 747.008)"><tspan x="-300.8" y="0">不是每个需求都能忍</tspan></text>
      <g id="icon" transform="translate(509.4 -10)">
        <rect id="矩形_1" data-name="矩形 1" class="cls-5" width="69.914" height="204.365" rx="10" transform="translate(0 13.445)"/>
        <text id="_4_0_6" data-name="4
0
6" class="cls-6" transform="translate(34.756 75)"><tspan x="-19.743" y="0">4</tspan><tspan x="-19.743" y="61">0</tspan><tspan x="-19.743" y="122">6</tspan></text>
      </g>
    </g>
    <path id="np_error_484178_000000" d="M376.457,259.8a8.119,8.119,0,0,1-8.15,8.15l-97.77-.018c-2.723,7.691-9.954,13.578-18.564,13.578H194.515a19.439,19.439,0,0,1-18.564-13.578H78.181a8.15,8.15,0,1,1,0-16.3h105a8.119,8.119,0,0,1,8.15,8.15v1.8a3.58,3.58,0,0,0,3.624,3.624H252.43a3.58,3.58,0,0,0,3.624-3.624v-1.8a8.119,8.119,0,0,1,8.15-8.15h105c4.084.018,7.249,3.642,7.249,8.168Zm69.252,0v21.269a40.367,40.367,0,0,1-40.274,40.274H41.075A40.367,40.367,0,0,1,.8,281.071V259.8a8.119,8.119,0,0,1,8.15-8.15H33.845V42.556A26.28,26.28,0,0,1,60.1,16.3H385.97c14.038,0,25.795,10.855,27.156,25.353v210h24.893c4.508,0,7.691,3.624,7.691,8.15Zm-15.841,7.691H404.975a8.119,8.119,0,0,1-8.15-8.15V43c-.9-6.329-5.887-10.855-11.315-10.855H59.639A10.244,10.244,0,0,0,49.226,42.554V259.34a8.119,8.119,0,0,1-8.15,8.15H17.084v13.578A24.326,24.326,0,0,0,41.517,305.5H405.859a24.326,24.326,0,0,0,24.433-24.433l.018-13.578Zm-247.128-79.2a7.64,7.64,0,0,0,10.855,0l29.879-29.879,29.879,29.879a7.64,7.64,0,0,0,10.855,0,7.929,7.929,0,0,0,0-11.315l-29.879-29.879,29.879-29.879A8,8,0,0,0,252.893,105.9l-29.419,29.879L193.6,105.9a8,8,0,1,0-11.315,11.315l29.879,29.879L182.74,176.973A7.929,7.929,0,0,0,182.74,188.288Z" transform="translate(1214.01 743.618)"/>
  </g>
</svg>
