<svg xmlns="http://www.w3.org/2000/svg" xmlns:xlink="http://www.w3.org/1999/xlink" width="2849.525" height="3505.1" viewBox="0 0 2849.525 3505.1">
  <defs>
    <style>
      .cls-1 {
        clip-path: url(#clip-Artboard_38);
      }

      .cls-2, .cls-7, .cls-9 {
        fill: #fff;
      }

      .cls-2, .cls-8 {
        stroke: #000;
        stroke-width: 2px;
      }

      .cls-2 {
        fill-rule: evenodd;
      }

      .cls-3, .cls-4 {
        font-size: 64px;
      }

      .cls-3 {
        font-family: Helvetica-Bold, Helvetica;
        font-weight: 700;
        letter-spacing: 0.1em;
      }

      .cls-4 {
        fill: #797777;
        font-family: PingFangSC-Regular, PingFang SC;
        letter-spacing: 0.05em;
      }

      .cls-5, .cls-7 {
        font-family: Helvetica;
      }

      .cls-6 {
        fill: #ca3136;
      }

      .cls-7 {
        font-size: 71px;
      }
    </style>
    <clipPath id="clip-Artboard_38">
      <rect width="2849.526" height="3505.099"/>
    </clipPath>
  </defs>
  <g id="Artboard_38" data-name="Artboard – 38" class="cls-1">
    <rect class="cls-9" width="2849.526" height="3505.099"/>
    <path id="path2427" class="cls-2" d="M-32.705,436.919C400.671,165.76,770.636,193.2,1137.011-40.432c196.537,50.319,342.849,30.2,478.1-5.425,414.964,223.263,779.818,259.059,1169.711,488.2-32.406,239.264-103.771,446.008-222.794,612.963-144.416-90.452-281.057-126.392-413.115-130.187l-9.291,1627.336c-568.927,123.832-1051.144,70.328-1522.482-5.42L612.5,930.545c-165.972-5.635-292.253,66.039-422.4,130.187C64.929,861.294,6.445,650.72-32.706,436.919h0Z" transform="translate(43.705 168.857)"/>
    <g id="组_4" data-name="组 4" transform="translate(1218.365 628.533)">
      <text id="Request_Timeout" data-name="Request Timeout" class="cls-3" transform="translate(206.445 625.003)"><tspan x="-303.816" y="0">Request Timeout</tspan></text>
      <text id="人生苦短_·_内存插满" data-name="人生苦短 · 内存插满" class="cls-4" transform="translate(206 747.008)"><tspan x="-298.672" y="0">人生苦短</tspan><tspan class="cls-5" y="0" xml:space="preserve"> · </tspan><tspan y="0">内存插满</tspan></text>
      <g id="icon" transform="translate(578.4 -11)">
        <rect id="矩形_1" data-name="矩形 1" class="cls-6" width="69.914" height="204.365" rx="10" transform="translate(0 13.445)"/>
        <text id="_4_0_8" data-name="4
0
8" class="cls-7" transform="translate(34.756 75)"><tspan x="-19.743" y="0">4</tspan><tspan x="-19.743" y="61">0</tspan><tspan x="-19.743" y="122">8</tspan></text>
      </g>
    </g>
    <g id="np_ram_410250_000000" transform="translate(1119.713 808.64)">
      <path id="路径_1212" data-name="路径 1212" class="cls-8" d="M595.849,123.181a3.4,3.4,0,0,0,3.609-3.609V37.313a3.4,3.4,0,0,0-3.609-3.609H12.706A3.4,3.4,0,0,0,9.1,37.313v82.26a3.4,3.4,0,0,0,3.609,3.609,11.559,11.559,0,0,1,0,23.118A3.4,3.4,0,0,0,9.1,149.907v82.26a3.4,3.4,0,0,0,3.609,3.609h13.7v28.868a3.4,3.4,0,0,0,3.609,3.609H248.7a3.4,3.4,0,0,0,3.609-3.609l.028-12.291h23.089v13a3.4,3.4,0,0,0,3.609,3.609H579.975a3.4,3.4,0,0,0,3.609-3.609V236.48h13a3.4,3.4,0,0,0,3.609-3.609v-82.26A3.4,3.4,0,0,0,596.58,147a11.415,11.415,0,0,1-11.559-11.559c0-6.512,4.341-12.263,10.826-12.263Zm-19.48,138.56H561.934V246.573a3.608,3.608,0,1,0-7.217,0V261.74H540.283V246.573a3.608,3.608,0,1,0-7.217,0V261.74H518.632V246.573a3.609,3.609,0,1,0-7.217,0V261.74H496.981V246.573a3.609,3.609,0,1,0-7.217,0V261.74H475.33V246.573a3.609,3.609,0,1,0-7.217,0V261.74H453.679V246.573a3.609,3.609,0,1,0-7.217,0V261.74H432.028V246.573a3.609,3.609,0,1,0-7.217,0V261.74H410.377V246.573a3.609,3.609,0,1,0-7.217,0V261.74H388.726V246.573a3.609,3.609,0,1,0-7.217,0V261.74H367.075V246.573a3.609,3.609,0,1,0-7.217,0V261.74H345.423V246.573a3.609,3.609,0,1,0-7.217,0V261.74H323.772V246.573a3.609,3.609,0,1,0-7.217,0V261.74H302.121V246.573a3.609,3.609,0,1,0-7.217,0V261.74H282.641v-13a3.4,3.4,0,0,0-3.608-3.609H248.727a3.4,3.4,0,0,0-3.609,3.609v13H222.03V246.573a3.609,3.609,0,1,0-7.217,0V261.74H200.379V246.573a3.609,3.609,0,1,0-7.217,0V261.74H178.727V246.573a3.609,3.609,0,1,0-7.217,0V261.74H157.076V246.573a3.609,3.609,0,1,0-7.217,0V261.74H135.425V246.573a3.609,3.609,0,1,0-7.217,0V261.74H113.774V246.573a3.609,3.609,0,1,0-7.217,0V261.74H92.123V246.573a3.609,3.609,0,1,0-7.217,0V261.74H70.472V246.573a3.609,3.609,0,1,0-7.217,0V261.74H48.821V246.573a3.609,3.609,0,1,0-7.217,0V261.74H32.949v-25.26H575.663v25.26ZM592.24,153.485v75.043H16.343V153.485C25,152.047,31.51,144.1,31.51,134.709s-6.484-16.6-15.167-18.776V40.891H592.269v75.043c-8.655,1.438-15.167,9.388-15.167,18.776s6.484,17.337,15.139,18.776Z" transform="translate(0 0)"/>
      <path id="路径_1213" data-name="路径 1213" class="cls-8" d="M77.044,39.1H19.308A3.4,3.4,0,0,0,15.7,42.711V161.055a3.4,3.4,0,0,0,3.609,3.609H77.044a3.4,3.4,0,0,0,3.609-3.609V42.711A3.4,3.4,0,0,0,77.044,39.1ZM73.435,157.447H22.916V46.319H73.435Z" transform="translate(41.045 33.559)"/>
      <path id="路径_1214" data-name="路径 1214" class="cls-8" d="M88.044,39.1H30.308A3.4,3.4,0,0,0,26.7,42.711V161.055a3.4,3.4,0,0,0,3.609,3.609H88.044a3.4,3.4,0,0,0,3.609-3.609V42.711A3.4,3.4,0,0,0,88.044,39.1ZM84.435,157.447H33.916V46.319H84.435Z" transform="translate(109.432 33.559)"/>
      <path id="路径_1215" data-name="路径 1215" class="cls-8" d="M99.044,39.1H41.307A3.4,3.4,0,0,0,37.7,42.711V161.055a3.4,3.4,0,0,0,3.609,3.609H99.044a3.4,3.4,0,0,0,3.609-3.609V42.711A3.4,3.4,0,0,0,99.044,39.1ZM95.435,157.447H44.916V46.319H95.435Z" transform="translate(177.819 33.559)"/>
      <path id="路径_1216" data-name="路径 1216" class="cls-8" d="M110.044,39.1H52.307A3.4,3.4,0,0,0,48.7,42.711V161.055a3.4,3.4,0,0,0,3.609,3.609h57.736a3.4,3.4,0,0,0,3.609-3.609V42.711a3.4,3.4,0,0,0-3.609-3.609Zm-3.608,118.345H55.916V46.319h50.519Z" transform="translate(246.207 33.559)"/>
      <path id="路径_1217" data-name="路径 1217" class="cls-8" d="M121.044,39.1H63.308A3.4,3.4,0,0,0,59.7,42.711V161.055a3.4,3.4,0,0,0,3.609,3.609h57.736a3.4,3.4,0,0,0,3.609-3.609V42.711a3.4,3.4,0,0,0-3.609-3.609Zm-3.609,118.345H66.916V46.319h50.519Z" transform="translate(314.594 33.559)"/>
      <path id="路径_1218" data-name="路径 1218" class="cls-8" d="M132.044,39.1H74.307A3.4,3.4,0,0,0,70.7,42.711V161.055a3.4,3.4,0,0,0,3.609,3.609h57.736a3.4,3.4,0,0,0,3.609-3.609V42.711a3.4,3.4,0,0,0-3.609-3.609Zm-3.609,118.345H77.916V46.319h50.519Z" transform="translate(382.981 33.559)"/>
    </g>
  </g>
</svg>
