<svg xmlns="http://www.w3.org/2000/svg" xmlns:xlink="http://www.w3.org/1999/xlink" width="2849.525" height="3505.099" viewBox="0 0 2849.525 3505.099">
  <defs>
    <style>
      .cls-1 {
        clip-path: url(#clip-Artboard_39);
      }

      .cls-2, .cls-6, .cls-7 {
        fill: #fff;
      }

      .cls-2 {
        stroke: #000;
        stroke-width: 2px;
        fill-rule: evenodd;
      }

      .cls-3, .cls-4 {
        font-size: 64px;
      }

      .cls-3 {
        font-family: Helvetica-Bold, Helvetica;
        font-weight: 700;
        letter-spacing: 0.1em;
      }

      .cls-4 {
        fill: #797777;
        font-family: PingFangSC-Regular, PingFang SC;
        letter-spacing: 0.05em;
      }

      .cls-5 {
        fill: #ca3136;
      }

      .cls-6 {
        font-size: 71px;
        font-family: Helvetica;
      }
    </style>
    <clipPath id="clip-Artboard_39">
      <rect width="2849.526" height="3505.099"/>
    </clipPath>
  </defs>
  <g id="Artboard_39" data-name="Artboard – 39" class="cls-1">
    <rect class="cls-7" width="2849.526" height="3505.099"/>
    <path id="path2427" class="cls-2" d="M-32.705,436.919C400.671,165.76,770.636,193.2,1137.011-40.432c196.537,50.319,342.849,30.2,478.1-5.425,414.964,223.263,779.818,259.059,1169.711,488.2-32.406,239.264-103.771,446.008-222.794,612.963-144.416-90.452-281.057-126.392-413.115-130.187l-9.291,1627.336c-568.927,123.832-1051.144,70.328-1522.482-5.42L612.5,930.545c-165.972-5.635-292.253,66.039-422.4,130.187C64.929,861.294,6.445,650.72-32.706,436.919h0Z" transform="translate(43.705 168.857)"/>
    <g id="组_39" data-name="组 39">
      <g id="组_4" data-name="组 4" transform="translate(1218.365 628.533)">
        <text id="Conflict" class="cls-3" transform="translate(206.445 625.003)"><tspan x="-141.494" y="0">Conflict</tspan></text>
        <text id="和而不同" class="cls-4" transform="translate(206 747.008)"><tspan x="-132.8" y="0">和而不同</tspan></text>
        <g id="icon" transform="translate(489.4 0)">
          <rect id="矩形_1" data-name="矩形 1" class="cls-5" width="69.914" height="204.365" rx="10" transform="translate(0 13.445)"/>
          <text id="_4_0_9" data-name="4
0
9" class="cls-6" transform="translate(34.756 75)"><tspan x="-19.743" y="0">4</tspan><tspan x="-19.743" y="61">0</tspan><tspan x="-19.743" y="122">9</tspan></text>
        </g>
      </g>
      <g id="np_conflict_1022108_000000" transform="translate(1268.95 760.598)">
        <path id="路径_1173" data-name="路径 1173" d="M346.769,291.388l-54.73-54.73,20.907-20.907a8.592,8.592,0,0,0,0-12.155l-20.28-20.28a8.592,8.592,0,0,0-12.155,0l-14.147,14.55-28.652-28.652,75.235-74.942a8.6,8.6,0,0,0,2.059-3.4l20.281-60.794h.022a8.6,8.6,0,0,0-10.9-10.879l-60.731,20.28a8.86,8.86,0,0,0-3.4,2.059l-74.942,75.011L110.389,41.6a8.6,8.6,0,0,0-3.4-2.059l-60.731-20.3a8.618,8.618,0,0,0-10.9,10.9l20.28,60.794h.022a8.361,8.361,0,0,0,2.059,3.38l74.942,74.9-28.652,28.652L89.793,183.652a8.566,8.566,0,0,0-12.132,0L57.716,203.6a8.593,8.593,0,0,0,0,12.155l20.907,20.907-54.73,54.73a8.633,8.633,0,0,0,0,12.155L51,330.651a8.633,8.633,0,0,0,12.155,0l54.73-54.73,20.907,20.907a8.593,8.593,0,0,0,12.155,0l20.28-20.281a8.592,8.592,0,0,0,0-12.155l-14.55-14.147,28.652-28.652,28.652,28.652L199.767,264.46a8.566,8.566,0,0,0,0,12.132l19.945,20.235a8.593,8.593,0,0,0,12.155,0l20.907-20.907,54.73,54.73a8.633,8.633,0,0,0,12.155,0l27.108-27.108a8.633,8.633,0,0,0,0-12.155Zm-33.2,21.086-48.6-48.641,14.953-14.953,48.664,48.574Zm-39.71-81.836-47.97,47.97-8.081-8.081,68.943-68.943,8.081,8.081-20.862,20.862ZM156.974,169.214l-12.155-12.155-73.51-73.8L57.163,40.727,99.38,55.187l73.8,73.51,12.155,12.155L213.7,169.5,254.5,210.31l-28.652,27.667L197.2,209.325l-11.864-11.752ZM271.29,55.19l42.531-14.147L299.36,83.26l-73.51,73.8L197.49,128.41ZM57.093,312.474l-15.02-15.02,48.641-48.641,14.953,14.953Zm87.727-33.8L75.986,209.84l8.081-8.081L153.01,270.7Zm0-40.516L116.571,209.73l28.652-28.652,28.361,28.361Z" transform="translate(0 0)"/>
      </g>
    </g>
  </g>
</svg>
