<svg xmlns="http://www.w3.org/2000/svg" xmlns:xlink="http://www.w3.org/1999/xlink" width="2849.525" height="3505.099" viewBox="0 0 2849.525 3505.099">
  <defs>
    <style>
      .cls-1 {
        clip-path: url(#clip-Artboard_40);
      }

      .cls-2, .cls-6, .cls-7 {
        fill: #fff;
      }

      .cls-2 {
        stroke: #000;
        stroke-width: 2px;
        fill-rule: evenodd;
      }

      .cls-3, .cls-4 {
        font-size: 64px;
      }

      .cls-3 {
        font-family: Helvetica-Bold, Helvetica;
        font-weight: 700;
        letter-spacing: 0.1em;
      }

      .cls-4 {
        fill: #797777;
        font-family: PingFangSC-Regular, PingFang SC;
        letter-spacing: 0.05em;
      }

      .cls-5 {
        fill: #ca3136;
      }

      .cls-6 {
        font-size: 71px;
        font-family: Helvetica;
      }
    </style>
    <clipPath id="clip-Artboard_40">
      <rect width="2849.526" height="3505.099"/>
    </clipPath>
  </defs>
  <g id="Artboard_40" data-name="Artboard – 40" class="cls-1">
    <rect class="cls-7" width="2849.526" height="3505.099"/>
    <path id="path2427" class="cls-2" d="M-32.705,436.919C400.671,165.76,770.636,193.2,1137.011-40.432c196.537,50.319,342.849,30.2,478.1-5.425,414.964,223.263,779.818,259.059,1169.711,488.2-32.406,239.264-103.771,446.008-222.794,612.963-144.416-90.452-281.057-126.392-413.115-130.187l-9.291,1627.336c-568.927,123.832-1051.144,70.328-1522.482-5.42L612.5,930.545c-165.972-5.635-292.253,66.039-422.4,130.187C64.929,861.294,6.445,650.72-32.706,436.919h0Z" transform="translate(43.705 168.857)"/>
    <g id="组_38" data-name="组 38">
      <g id="组_4" data-name="组 4" transform="translate(1218.365 628.533)">
        <text id="Gone" class="cls-3" transform="translate(206.445 625.003)"><tspan x="-91.381" y="0">Gone</tspan></text>
        <text id="结束也是一种开始" class="cls-4" transform="translate(206 747.008)"><tspan x="-267.2" y="0">结束也是一种开始</tspan></text>
        <g id="icon" transform="translate(509.4 30)">
          <rect id="矩形_1" data-name="矩形 1" class="cls-5" width="69.914" height="204.365" rx="10" transform="translate(0 13.445)"/>
          <text id="_4_1_0" data-name="4
1
0" class="cls-6" transform="translate(34.756 75)"><tspan x="-19.743" y="0">4</tspan><tspan x="-19.743" y="61">1</tspan><tspan x="-19.743" y="122">0</tspan></text>
        </g>
      </g>
      <g id="np_low-level-battery_281190_000000" transform="translate(1220.661 863.313)">
        <path id="路径_1174" data-name="路径 1174" d="M342.643,201.984H95.541a31.7,31.7,0,0,1-31.6-29.769H54.662a31.691,31.691,0,0,1-31.65-31.676V98.77a31.708,31.708,0,0,1,31.65-31.676l9.279.025a31.72,31.72,0,0,1,31.6-29.769h247.1A31.708,31.708,0,0,1,374.319,69v101.33a31.692,31.692,0,0,1-31.676,31.65ZM54.664,80.668a18.124,18.124,0,0,0-18.1,18.1v41.768a18.107,18.107,0,0,0,18.1,18.1h22.8v11.669a18.124,18.124,0,0,0,18.1,18.1h247.1a18.107,18.107,0,0,0,18.1-18.1V68.975a18.124,18.124,0,0,0-18.1-18.1L95.541,50.9A18.107,18.107,0,0,0,77.441,69V80.67Z" transform="translate(0 0)"/>
        <path id="路径_1175" data-name="路径 1175" d="M153.1,41.465H131.258L55.3,149.967h97.8a13.605,13.605,0,0,0,13.575-13.575l-.025-81.376a13.562,13.562,0,0,0-13.55-13.55ZM81.358,136.391,138.3,55.015h14.77l.025,81.376Z" transform="translate(177.827 22.659)"/>
      </g>
    </g>
  </g>
</svg>
