<svg xmlns="http://www.w3.org/2000/svg" xmlns:xlink="http://www.w3.org/1999/xlink" width="2849.526" height="3505.1" viewBox="0 0 2849.526 3505.1">
  <defs>
    <style>
      .cls-1 {
        clip-path: url(#clip-Artboard_22);
      }

      .cls-2, .cls-7, .cls-8 {
        fill: #fff;
      }

      .cls-2 {
        stroke: #000;
        stroke-width: 2px;
        fill-rule: evenodd;
      }

      .cls-3, .cls-4 {
        font-size: 64px;
      }

      .cls-3 {
        font-family: Helvetica-Bold, Helvetica;
        font-weight: 700;
        letter-spacing: 0.1em;
      }

      .cls-4 {
        fill: #797777;
        font-family: PingFangSC-Regular, PingFang SC;
        letter-spacing: 0.2em;
      }

      .cls-5, .cls-7 {
        font-family: Helvetica;
      }

      .cls-6 {
        fill: #ca3136;
      }

      .cls-7 {
        font-size: 71px;
      }
    </style>
    <clipPath id="clip-Artboard_22">
      <rect width="2849.526" height="3505.099"/>
    </clipPath>
  </defs>
  <g id="Artboard_22" data-name="Artboard – 22" class="cls-1">
    <rect class="cls-8" width="2849.526" height="3505.099"/>
    <g id="组_29" data-name="组 29">
      <path id="path2427" class="cls-2" d="M-32.705,436.919C400.671,165.76,770.636,193.2,1137.011-40.432c196.537,50.319,342.849,30.2,478.1-5.425,414.964,223.263,779.818,259.059,1169.711,488.2-32.406,239.264-103.771,446.008-222.794,612.963-144.416-90.452-281.057-126.392-413.115-130.187l-9.291,1627.336c-568.927,123.832-1051.144,70.328-1522.482-5.42L612.5,930.545c-165.972-5.635-292.253,66.039-422.4,130.187C64.929,861.294,6.445,650.72-32.706,436.919h0Z" transform="translate(44.705 168.857)"/>
      <g id="组_4" data-name="组 4" transform="translate(1219.365 628.534)">
        <text id="Payload_Too_Large" data-name="Payload Too Large" class="cls-3" transform="translate(234.445 625.003)"><tspan x="-335.122" y="0">Payload Too Large</tspan></text>
        <text id="新需求不接_旧需求不改" data-name="新需求不接•旧需求不改" class="cls-4" transform="translate(234 747.008)"><tspan x="-395.203" y="0">新需求不接</tspan><tspan class="cls-5" y="0">•</tspan><tspan y="0">旧需求不改</tspan></text>
        <g id="icon" transform="translate(489.4 0)">
          <rect id="矩形_1" data-name="矩形 1" class="cls-6" width="69.914" height="204.365" rx="10" transform="translate(0 13.445)"/>
          <text id="_4_1_3" data-name="4
1
3" class="cls-7" transform="translate(34.756 80)"><tspan x="-19.743" y="0">4</tspan><tspan x="-19.743" y="61">1</tspan><tspan x="-19.743" y="122">3</tspan></text>
        </g>
        <g id="np_color-bucket_320176_000000" transform="translate(77.849 93.705)">
          <path id="路径_1059" data-name="路径 1059" d="M54.367,115.824a26.18,26.18,0,0,0,18.54-44.686L58.467,56.7a5.767,5.767,0,0,0-8.147,0l-14.44,14.44a26.18,26.18,0,0,0,18.486,44.686ZM44.041,79.271,54.38,68.932,64.72,79.271a14.686,14.686,0,0,1,0,20.732,14.992,14.992,0,0,1-20.732,0,14.55,14.55,0,0,1-4.276-10.339,14.728,14.728,0,0,1,4.33-10.393Z" transform="translate(53.108 135.573)"/>
          <path id="路径_1060" data-name="路径 1060" d="M156.787,0C82.181,0,6.668,13.858,6.668,40.422V306.016c0,26.565,75.527,40.422,150.119,40.422s150.119-13.858,150.119-40.422V40.422C306.905,13.858,231.392,0,156.787,0ZM18.267,57.339a57.387,57.387,0,0,0,6.469,3.64,2.084,2.084,0,0,0,.582.23c1.042.514,2.084.988,3.234,1.448a1.936,1.936,0,0,1,.514.23c1.15.514,2.368.988,3.64,1.448a1.164,1.164,0,0,0,.406.122c1.326.514,2.72.988,4.1,1.448.122.054.23.054.406.122,1.448.46,2.95.988,4.506,1.448.582.176,1.272.352,1.854.514,1.5.46,3.058.866,4.682,1.272,1.1.284,2.246.582,3.64.92.23.054.406.122.636.176v16.97c-27.282-6.9-34.724-14.7-34.724-18.039l.054-11.949h0ZM18.213,86.61V86.1q11.611,7.531,34.644,13.167v41.694c0,9.405,6.063,17.674,14.778,19.974a20.668,20.668,0,0,0,14.088-1.218v1.218c0,11.435,7.795,21.246,18.472,23.385a25.645,25.645,0,0,0,4.628.447,23.1,23.1,0,0,0,23.1-23.1V129.671a18.074,18.074,0,0,0,3.41,1.556,2.759,2.759,0,0,0,.69.23,30.256,30.256,0,0,0,3.343.866c.122,0,.23.054.406.054a14.323,14.323,0,0,0,3.694.42h.23a22.862,22.862,0,0,0,4.385-.46c10.447-2.084,18.066-11.543,18.418-22.695,55.2-.514,109.766-8.593,132.866-23.777v35.673c0,85.813-59.816,155.613-133.323,155.613H151.526c-73.5,0-133.31-69.8-133.31-155.613ZM295.363,57.041V69.288c0,9.879-45.55,28.067-132.8,28.865V80.832c3.058-.054,6.117-.122,9.175-.176.744,0,1.5-.054,2.246-.054,3.058-.054,6.063-.176,9.067-.352h.514c2.882-.122,5.711-.284,8.539-.46.744-.054,1.448-.122,2.192-.122,2.95-.176,5.887-.406,8.837-.636.284,0,.514-.054.812-.054,2.72-.23,5.373-.46,7.971-.744.69-.054,1.38-.122,2.138-.23,2.828-.284,5.657-.582,8.377-.92a6.835,6.835,0,0,1,1.042-.122c2.476-.284,4.967-.636,7.389-.988.636-.122,1.272-.176,1.908-.284,2.652-.406,5.319-.812,7.849-1.218a8.651,8.651,0,0,0,1.15-.23c2.246-.406,4.506-.812,6.7-1.218.582-.122,1.15-.23,1.732-.352,2.422-.46,4.845-.988,7.159-1.556.406-.122.812-.176,1.218-.284,2.016-.46,3.978-.988,5.887-1.448.514-.122,1.042-.284,1.5-.406,2.138-.582,4.276-1.218,6.293-1.854.406-.122.744-.23,1.15-.352,1.732-.582,3.41-1.15,5.075-1.732.406-.176.812-.284,1.218-.46,1.854-.69,3.586-1.38,5.251-2.138.352-.176.636-.284.988-.46,1.448-.636,2.774-1.272,4.1-1.962a5.841,5.841,0,0,1,.92-.46c1.448-.812,2.828-1.556,4.1-2.422.068.027.176-.027.3-.095Zm-138.575-45.5c91,0,138.575,18.77,138.575,28.865s-47.58,28.865-138.575,28.865a5.793,5.793,0,0,0-5.779,5.779v33.886c0,5.833-3.924,11.029-9.175,12.071a12.394,12.394,0,0,1-2.6.244c-.176,0-.352-.054-.46-.054a12.064,12.064,0,0,1-2.016-.284,3.321,3.321,0,0,1-.46-.176,10.865,10.865,0,0,1-1.854-.69,2.9,2.9,0,0,1-.46-.23,11.562,11.562,0,0,1-1.556-1.042,3.093,3.093,0,0,1-.46-.406,8.962,8.962,0,0,1-1.218-1.272c-.176-.176-.284-.352-.46-.514a10.521,10.521,0,0,1-.92-1.448c-.122-.23-.23-.406-.352-.636-.23-.514-.406-1.1-.582-1.61-.054-.23-.176-.46-.23-.69a11.7,11.7,0,0,1-.284-2.49,5.779,5.779,0,1,0-11.557,0v51.966a11.554,11.554,0,0,1-13.912,11.313c-5.251-1.042-9.175-6.239-9.175-12.071v-19.46a5.779,5.779,0,1,0-11.557,0,8.721,8.721,0,0,1-11.083,8.309c-3.64-.92-6.239-4.669-6.239-8.823V69.112a13.609,13.609,0,0,1,.23-2.138,5.711,5.711,0,0,0-.054-2.246c0-.122-.122-.176-.122-.284a6.041,6.041,0,0,0-.744-1.732l-.176-.176a5.642,5.642,0,0,0-3.343-2.246c-1.962-.46-3.87-.866-5.657-1.326-.69-.176-1.326-.352-1.962-.514-.988-.23-1.962-.514-2.95-.744-.812-.311-1.61-.541-2.422-.771-.69-.176-1.394-.406-2.084-.582-.974-.284-1.908-.636-2.828-.92a9.69,9.69,0,0,1-1.2-.406l-.23-.054c-.934-.352-1.8-.636-2.666-.92-.406-.176-.812-.284-1.15-.46l-.122-.014c-.8-.338-1.61-.623-2.368-.974a8.3,8.3,0,0,1-.974-.406l-.23-.054c-.69-.3-1.394-.636-2.084-.92-.338-.176-.69-.352-.974-.474l-.176-.054a17.028,17.028,0,0,1-1.786-.92c-.176-.122-.406-.176-.582-.284l-.46-.244c-.528-.284-.988-.568-1.556-.92-.3-.176-.582-.338-.866-.514-.46-.3-.866-.582-1.326-.92l-.758-.528c-.352-.284-.69-.514-1.15-.92l-.46-.406c-.3-.284-.528-.514-.812-.812L20,43.874a1.3,1.3,0,0,1-.284-.338c-.122-.176-.23-.284-.352-.46a6.6,6.6,0,0,1-.92-1.732l-.108-.23a2.469,2.469,0,0,1-.122-.69c0-10.109,47.58-28.879,138.575-28.879ZM295.363,306.016c0,10.109-47.58,28.865-138.575,28.865S18.213,316.125,18.213,306.016V186.9c22.112,59.816,73.563,101.794,133.323,101.794h10.515c59.747,0,111.2-41.978,133.309-101.794Z"/>
          <path id="路径_1061" data-name="路径 1061" d="M39.889,10.776c0,7.7-11.557,7.7-11.557,0s11.557-7.7,11.557,0" transform="translate(53.389 12.324)"/>
          <path id="路径_1062" data-name="路径 1062" d="M24.889,15.776c0,7.7-11.557,7.7-11.557,0s11.557-7.7,11.557,0" transform="translate(16.423 24.646)"/>
          <path id="路径_1063" data-name="路径 1063" d="M39.889,20.776c0,7.7-11.557,7.7-11.557,0s11.557-7.7,11.557,0" transform="translate(53.389 36.968)"/>
          <path id="路径_1064" data-name="路径 1064" d="M59.889,20.776c0,7.7-11.557,7.7-11.557,0s11.557-7.7,11.557,0" transform="translate(102.676 36.968)"/>
          <path id="路径_1065" data-name="路径 1065" d="M34.889,15.776c0,7.7-11.557,7.7-11.557,0s11.557-7.7,11.557,0" transform="translate(41.067 24.646)"/>
          <path id="路径_1066" data-name="路径 1066" d="M49.889,10.776c0,7.7-11.557,7.7-11.557,0s11.557-7.7,11.557,0" transform="translate(78.033 12.324)"/>
          <path id="路径_1067" data-name="路径 1067" d="M59.889,10.776c0,7.7-11.557,7.7-11.557,0s11.557-7.7,11.557,0" transform="translate(102.676 12.324)"/>
          <path id="路径_1068" data-name="路径 1068" d="M44.889,15.776c0,7.7-11.557,7.7-11.557,0s11.557-7.7,11.557,0" transform="translate(65.711 24.646)"/>
          <path id="路径_1069" data-name="路径 1069" d="M49.889,20.776c0,7.7-11.557,7.7-11.557,0s11.557-7.7,11.557,0" transform="translate(78.033 36.968)"/>
          <path id="路径_1070" data-name="路径 1070" d="M54.889,15.776c0,7.7-11.557,7.7-11.557,0s11.557-7.7,11.557,0" transform="translate(90.354 24.646)"/>
          <path id="路径_1071" data-name="路径 1071" d="M69.889,10.776c0,7.7-11.557,7.7-11.557,0s11.557-7.7,11.557,0" transform="translate(127.32 12.324)"/>
          <path id="路径_1072" data-name="路径 1072" d="M79.889,10.776c0,7.7-11.557,7.7-11.557,0s11.557-7.7,11.557,0" transform="translate(151.964 12.324)"/>
          <path id="路径_1073" data-name="路径 1073" d="M64.889,15.776c0,7.7-11.557,7.7-11.557,0s11.557-7.7,11.557,0" transform="translate(114.998 24.646)"/>
          <path id="路径_1074" data-name="路径 1074" d="M69.889,20.776c0,7.7-11.557,7.7-11.557,0s11.557-7.7,11.557,0" transform="translate(127.32 36.968)"/>
          <path id="路径_1075" data-name="路径 1075" d="M79.889,20.776c0,7.7-11.557,7.7-11.557,0s11.557-7.7,11.557,0" transform="translate(151.964 36.968)"/>
          <path id="路径_1076" data-name="路径 1076" d="M74.889,15.776c0,7.7-11.557,7.7-11.557,0s11.557-7.7,11.557,0" transform="translate(139.642 24.646)"/>
          <path id="路径_1077" data-name="路径 1077" d="M84.889,15.776c0,7.7-11.557,7.7-11.557,0s11.557-7.7,11.557,0" transform="translate(164.286 24.646)"/>
          <path id="路径_1078" data-name="路径 1078" d="M94.889,15.776c0,7.7-11.557,7.7-11.557,0s11.557-7.7,11.557,0" transform="translate(188.93 24.646)"/>
        </g>
      </g>
    </g>
  </g>
</svg>
