<svg xmlns="http://www.w3.org/2000/svg" xmlns:xlink="http://www.w3.org/1999/xlink" width="2849.526" height="3505.1" viewBox="0 0 2849.526 3505.1">
  <defs>
    <style>
      .cls-1 {
        clip-path: url(#clip-Artboard_47);
      }

      .cls-2, .cls-6, .cls-7 {
        fill: #fff;
      }

      .cls-2 {
        stroke: #000;
        stroke-width: 2px;
        fill-rule: evenodd;
      }

      .cls-3, .cls-4 {
        font-size: 64px;
        letter-spacing: 0.1em;
      }

      .cls-3 {
        font-family: Helvetica-Bold, Helvetica;
        font-weight: 700;
      }

      .cls-4 {
        fill: #797777;
      }

      .cls-4, .cls-6 {
        font-family: Helvetica;
      }

      .cls-5 {
        fill: #ca3136;
      }

      .cls-6 {
        font-size: 71px;
      }
    </style>
    <clipPath id="clip-Artboard_47">
      <rect width="2849.526" height="3505.099"/>
    </clipPath>
  </defs>
  <g id="Artboard_47" data-name="Artboard – 47" class="cls-1">
    <rect class="cls-7" width="2849.526" height="3505.099"/>
    <g id="组_7" data-name="组 7" transform="translate(19.631 104.494)">
      <path id="path2427" class="cls-2" d="M-32.705,436.919C400.671,165.76,770.636,193.2,1137.011-40.432c196.537,50.319,342.849,30.2,478.1-5.425,414.964,223.263,779.818,259.059,1169.711,488.2-32.406,239.264-103.771,446.008-222.794,612.963-144.416-90.452-281.057-126.392-413.115-130.187l-9.291,1627.336c-568.927,123.832-1051.144,70.328-1522.482-5.42L612.5,930.545c-165.972-5.635-292.253,66.039-422.4,130.187C64.929,861.294,6.445,650.72-32.706,436.919h0Z" transform="translate(44.705 168.857)"/>
      <g id="组_4" data-name="组 4" transform="translate(1187.097 628.534)">
        <text id="I_m_a_teapot" data-name="I’m a teapot" class="cls-3" transform="translate(266 625.003)"><tspan x="-213.012" y="0">I’m a teapot</tspan></text>
        <text id="RFC_2324" data-name="RFC 2324" class="cls-4" transform="translate(267.938 747.008)"><tspan x="-168.244" y="0">RFC 2324</tspan></text>
        <g id="icon" transform="translate(521.668 0)">
          <rect id="矩形_1" data-name="矩形 1" class="cls-5" width="69.914" height="204.365" rx="10" transform="translate(0 13.445)"/>
          <text id="_4_1_8" data-name="4
1
8" class="cls-6" transform="translate(34.756 77)"><tspan x="-19.743" y="0">4</tspan><tspan x="-19.743" y="61">1</tspan><tspan x="-19.743" y="122">8</tspan></text>
        </g>
        <g id="np_kettle_1417940_000000" transform="translate(131.762 197.206)">
          <path id="路径_51" data-name="路径 51" d="M30.513,65.918a3.178,3.178,0,0,0-3.177,3.177V80.148a3.177,3.177,0,1,0,6.354,0V69.095A3.188,3.188,0,0,0,30.513,65.918Z" transform="translate(53.366 151.211)"/>
          <path id="路径_52" data-name="路径 52" d="M32.9,72.062a3.178,3.178,0,0,0-3.177,3.177V86.292a3.177,3.177,0,0,0,6.354,0V75.239A3.178,3.178,0,0,0,32.9,72.062Z" transform="translate(61.103 171.093)"/>
          <path id="路径_53" data-name="路径 53" d="M274.146,54.174V17.837a3.178,3.178,0,0,0-3.177-3.177H28.327a3.161,3.161,0,0,0-1.87.612L9.6,27.6a3.239,3.239,0,0,0-1.291,2.2,3.184,3.184,0,0,0,.745,2.432l38.968,45.85V299.5A14.583,14.583,0,0,0,62.579,314.06H258.112a16.066,16.066,0,0,0,16.051-16.051l-.017-42.792c42.8-7.148,87.567-48.434,87.567-100.52s-44.758-93.374-87.567-100.52Zm-3.591,195.169a3.189,3.189,0,0,0-2.763,3.144v45.52a9.71,9.71,0,0,1-9.7,9.7H95.34V257.668a3.177,3.177,0,1,0-6.354,0V307.7h-4.55V266.535a3.177,3.177,0,0,0-6.354,0V307.72h-4.55V248.1a3.177,3.177,0,1,0-6.354,0v59.6H62.561a8.216,8.216,0,0,1-8.207-8.207V76.907a3.087,3.087,0,0,0-.761-2.052L16.081,30.708l13.271-9.7h238.44V56.918a3.163,3.163,0,0,0,2.763,3.144c40.954,5.427,84.8,44.741,84.8,94.632s-43.851,89.219-84.8,94.649Z" transform="translate(-8.285 -14.66)"/>
          <path id="路径_54" data-name="路径 54" d="M73.452,35.734a3.229,3.229,0,0,0-2.7.6,3.177,3.177,0,0,0-1.208,2.5v95.89a3.167,3.167,0,0,0,3.177,3.177,3.638,3.638,0,0,0,.728-.083c23.314-5.477,47.439-26.078,47.439-51.031,0-24.969-24.125-45.554-47.439-51.048ZM75.9,130.549V43c19.261,6.089,38.637,23.612,38.637,43.766C114.538,106.936,95.162,124.442,75.9,130.549Z" transform="translate(189.961 53.273)"/>
        </g>
      </g>
    </g>
  </g>
</svg>
