<svg xmlns="http://www.w3.org/2000/svg" xmlns:xlink="http://www.w3.org/1999/xlink" width="2849.525" height="3505.099" viewBox="0 0 2849.525 3505.099">
  <defs>
    <style>
      .cls-1 {
        clip-path: url(#clip-Artboard_41);
      }

      .cls-2, .cls-6, .cls-7 {
        fill: #fff;
      }

      .cls-2 {
        stroke: #000;
        stroke-width: 2px;
        fill-rule: evenodd;
      }

      .cls-3, .cls-4 {
        font-size: 64px;
      }

      .cls-3 {
        font-family: Helvetica-Bold, Helvetica;
        font-weight: 700;
        letter-spacing: 0.1em;
      }

      .cls-4 {
        fill: #797777;
        font-family: PingFangSC-Regular, PingFang SC;
        letter-spacing: 0.05em;
      }

      .cls-5 {
        fill: #ca3136;
      }

      .cls-6 {
        font-size: 71px;
        font-family: Helvetica;
      }
    </style>
    <clipPath id="clip-Artboard_41">
      <rect width="2849.526" height="3505.099"/>
    </clipPath>
  </defs>
  <g id="Artboard_41" data-name="Artboard – 41" class="cls-1">
    <rect class="cls-7" width="2849.526" height="3505.099"/>
    <path id="path2427" class="cls-2" d="M-32.705,436.919C400.671,165.76,770.636,193.2,1137.011-40.432c196.537,50.319,342.849,30.2,478.1-5.425,414.964,223.263,779.818,259.059,1169.711,488.2-32.406,239.264-103.771,446.008-222.794,612.963-144.416-90.452-281.057-126.392-413.115-130.187l-9.291,1627.336c-568.927,123.832-1051.144,70.328-1522.482-5.42L612.5,930.545c-165.972-5.635-292.253,66.039-422.4,130.187C64.929,861.294,6.445,650.72-32.706,436.919h0Z" transform="translate(43.705 168.857)"/>
    <g id="组_45" data-name="组 45">
      <g id="组_4" data-name="组 4" transform="translate(1218.365 628.533)">
        <text id="Locked" class="cls-3" transform="translate(206.445 625.003)"><tspan x="-128.031" y="0">Locked</tspan></text>
        <text id="心有锁属" class="cls-4" transform="translate(206 747.008)"><tspan x="-132.8" y="0">心有锁属</tspan></text>
        <g id="icon" transform="translate(489.4 0)">
          <rect id="矩形_1" data-name="矩形 1" class="cls-5" width="69.914" height="204.365" rx="10" transform="translate(0 13.445)"/>
          <text id="_4_2_3" data-name="4
2
3" class="cls-6" transform="translate(34.756 75)"><tspan x="-19.743" y="0">4</tspan><tspan x="-19.743" y="61">2</tspan><tspan x="-19.743" y="122">3</tspan></text>
        </g>
      </g>
      <g id="np_lock_2769162_000000" transform="translate(1273.557 745.033)">
        <path id="路径_1176" data-name="路径 1176" d="M121.435,301.721a3.656,3.656,0,0,1-3.541-2.757L91.974,196.541a100.465,100.465,0,1,1,58.925,0L124.979,298.965a3.641,3.641,0,0,1-3.541,2.757Zm0-294.425A93.191,93.191,0,0,0,95.986,190.133a3.639,3.639,0,0,1,2.541,2.622l22.907,90.453,22.893-90.464a3.644,3.644,0,0,1,2.541-2.608A93.191,93.191,0,0,0,121.432,7.3Z" transform="translate(29.884)"/>
        <path id="路径_1177" data-name="路径 1177" d="M151.319,161.582c-37.42,0-72.653-4.23-99.21-11.92-28.326-8.2-43.3-19.244-43.3-31.935,0-24.055,54.559-38.759,108.627-42.651a3.652,3.652,0,0,1,.527,7.284C51.8,87.119,16.106,104.133,16.106,117.73c0,17.285,55.531,36.555,135.211,36.555s135.211-19.258,135.211-36.555c0-13.758-36.206-30.867-103.3-35.476a3.651,3.651,0,1,1,.5-7.284c54.8,3.757,110.1,18.433,110.1,42.744,0,12.69-14.974,23.731-43.3,31.935-26.556,7.7-61.786,11.933-99.21,11.933Z" transform="translate(0 184.385)"/>
        <path id="路径_1178" data-name="路径 1178" d="M56.879,51.013a9.676,9.676,0,1,1,9.676-9.676A9.684,9.684,0,0,1,56.879,51.013Zm0-13.812a4.149,4.149,0,1,0,4.149,4.149A4.158,4.158,0,0,0,56.879,37.2Z" transform="translate(94.439 77.874)"/>
        <path id="路径_1179" data-name="路径 1179" d="M118.22,103.015H48.58A12.181,12.181,0,0,1,36.417,90.853V35.038A12.181,12.181,0,0,1,48.58,22.875h69.64a12.181,12.181,0,0,1,12.163,12.163V90.853A12.164,12.164,0,0,1,118.22,103.015ZM48.58,28.4a6.639,6.639,0,0,0-6.636,6.636V90.855A6.639,6.639,0,0,0,48.58,97.49h69.64a6.639,6.639,0,0,0,6.636-6.636V35.04A6.639,6.639,0,0,0,118.22,28.4Z" transform="translate(67.91 56.264)"/>
        <path id="路径_1180" data-name="路径 1180" d="M103.971,57.88h-60.8a2.763,2.763,0,0,1-2.757-2.77V44.055a33.164,33.164,0,1,1,66.328,0V55.11a2.766,2.766,0,0,1-2.77,2.77ZM45.942,52.353h55.275V44.069a27.637,27.637,0,1,0-55.274,0Z" transform="translate(77.741 26.788)"/>
        <path id="路径_1181" data-name="路径 1181" d="M103.962,57.88a2.763,2.763,0,0,1-2.757-2.77V44.055a27.637,27.637,0,1,0-55.274,0V55.11a2.757,2.757,0,1,1-5.514,0V44.055a33.164,33.164,0,1,1,66.328,0V55.11a2.786,2.786,0,0,1-2.784,2.77Z" transform="translate(77.75 26.788)"/>
        <path id="路径_1182" data-name="路径 1182" d="M85.059,50.021H46.366a2.763,2.763,0,0,1-2.757-2.77V36.2a22.109,22.109,0,1,1,44.219,0V47.25a2.766,2.766,0,0,1-2.77,2.77ZM49.137,44.493H82.3V36.209a16.582,16.582,0,1,0-33.164,0Z" transform="translate(85.599 34.647)"/>
        <path id="路径_1183" data-name="路径 1183" d="M111.045,45.977H39.188a2.764,2.764,0,1,1,0-5.527h71.857a2.764,2.764,0,0,1,0,5.527Z" transform="translate(67.91 99.492)"/>
        <path id="路径_1184" data-name="路径 1184" d="M127.625,32.4H39.189a2.764,2.764,0,1,1,0-5.527h88.426a2.764,2.764,0,0,1,.013,5.527Z" transform="translate(67.912 66.094)"/>
      </g>
    </g>
  </g>
</svg>
