<svg xmlns="http://www.w3.org/2000/svg" xmlns:xlink="http://www.w3.org/1999/xlink" width="2849.526" height="3505.099"
     viewBox="0 0 2849.526 3505.099">
  <defs>
    <style>
      .cls-1 {
        clip-path: url(#clip-Artboard_42);
      }

      .cls-2, .cls-6, .cls-7 {
        fill: #fff;
      }

      .cls-2 {
        stroke: #000;
        stroke-width: 2px;
        fill-rule: evenodd;
      }

      .cls-3, .cls-4 {
        font-size: 64px;
      }

      .cls-3 {
        font-family: Helvetica-Bold, Helvetica;
        font-weight: 700;
        letter-spacing: 0.1em;
      }

      .cls-4 {
        fill: #797777;
        font-family: PingFangSC-Regular, PingFang SC;
        letter-spacing: 0.05em;
      }

      .cls-5 {
        fill: #ca3136;
      }

      .cls-6 {
        font-size: 71px;
        font-family: Helvetica;
      }
    </style>
    <clipPath id="clip-Artboard_42">
      <rect width="2849.526" height="3505.099"/>
    </clipPath>
  </defs>
  <g id="Artboard_42" data-name="Artboard – 42" class="cls-1">
    <rect class="cls-7" width="2849.526" height="3505.099"/>
    <path id="path2427" class="cls-2" d="M-32.705,436.919C400.671,165.76,770.636,193.2,1137.011-40.432c196.537,50.319,342.849,30.2,478.1-5.425,414.964,223.263,779.818,259.059,1169.711,488.2-32.406,239.264-103.771,446.008-222.794,612.963-144.416-90.452-281.057-126.392-413.115-130.187l-9.291,1627.336c-568.927,123.832-1051.144,70.328-1522.482-5.42L612.5,930.545c-165.972-5.635-292.253,66.039-422.4,130.187C64.929,861.294,6.445,650.72-32.706,436.919h0Z" transform="translate(43.705 168.857)"/>
    <g id="组_44" data-name="组 44">
      <g id="组_4" data-name="组 4" transform="translate(1218.365 628.533)">
        <text id="_Internal_Server_Error" data-name=" Internal Server Error" class="cls-3" transform="translate(206.445 625.003)"><tspan x="-387.341" y="0" xml:space="preserve"> Internal Server Error</tspan></text>
        <text id="心苦不说" class="cls-4" transform="translate(206 747.008)"><tspan x="-132.8" y="0">心苦不说</tspan></text>
        <g id="icon" transform="translate(489.4 0)">
          <rect id="矩形_1" data-name="矩形 1" class="cls-5" width="69.914" height="204.365" rx="10" transform="translate(0 13.445)"/>
          <text id="_5_0_0" data-name="5
0
0" class="cls-6" transform="translate(34.756 75)"><tspan x="-19.743" y="0">5</tspan><tspan x="-19.743" y="61">0</tspan><tspan x="-19.743" y="122">0</tspan></text>
        </g>
      </g>
      <g id="np_brain_1450089_000000" transform="translate(1261.788 765.779)">
        <path id="路径_1185" data-name="路径 1185" d="M315.044,97.629a15.181,15.181,0,0,0-15.168-15.168,14.893,14.893,0,0,0-4.942.9L272.281,55.044a15.136,15.136,0,0,0-23.7-18.556L208.727,18.1c.038-.455.139-.9.139-1.365a15.129,15.129,0,0,0-29.4-5.056h-57.49a15.129,15.129,0,0,0-29.4,5.056,14.964,14.964,0,0,0,.19,1.845L67.685,31.116a15.134,15.134,0,0,0-25.673,10.9,14.911,14.911,0,0,0,2.326,7.963L21.686,78.289a15.353,15.353,0,0,0-4.955-.885,15.129,15.129,0,0,0-5.056,29.4v32.208a15.126,15.126,0,1,0,18.152,21.754l27.606,5.018a15.142,15.142,0,0,0,14.916,12.741c.2,0,.392-.051.594-.063l9.645,24.118A15.127,15.127,0,1,0,104.9,222.7l43.394,12.4A15.132,15.132,0,0,0,158.3,248.39v37.265a15.169,15.169,0,1,0,10.112,0V248.39a15.04,15.04,0,0,0,4.247-26.128l6.042-18.114,45.368,15.118a15.133,15.133,0,0,0,10.087,13.955v52.432a15.169,15.169,0,1,0,10.112,0l-.013-52.445a14.928,14.928,0,0,0,9.126-19.466l38.792-32.334a14.95,14.95,0,0,0,7.7,2.174,15.129,15.129,0,0,0,5.056-29.4v-42.32a15.138,15.138,0,0,0,10.112-14.233ZM87.493,163.082a16.683,16.683,0,0,0-.177-1.782l41.472-21.5L141.6,181.122ZM76.2,148.748l-7-53.733,34.647-1.732a15.144,15.144,0,0,0,13.411,9.341l8.494,27.354L82.688,152.314a15.278,15.278,0,0,0-6.484-3.565ZM30.75,86.809a15.88,15.88,0,0,0-1.163-2.2L52.238,56.3a16.911,16.911,0,0,0,1.77.556l3.729,28.618ZM64.031,55.461a15.093,15.093,0,0,0,8.317-13.449,14.518,14.518,0,0,0-.19-1.833L97.238,27.64a15.077,15.077,0,0,0,18.9,1.706l31.4,23.549L124.806,74.106a14.962,14.962,0,0,0-21.413,9.063l-35.521,1.77ZM179.8,22.772,155.041,45.878,122.909,21.786h56.554c.114.329.2.67.341.986ZM193.9,94.632l-40.689,21.1-21.7-21.716a14.927,14.927,0,0,0,1.517-6.5,15.145,15.145,0,0,0-1.277-6.055l24-22.411,38.7,29.022a14.865,14.865,0,0,0-.758,4.5,15.8,15.8,0,0,0,.2,2.06Zm-70.99-7.116a5.056,5.056,0,1,1-5.056-5.056A5.063,5.063,0,0,1,122.908,87.516ZM143.8,120.609l-8.949,4.639-6.118-19.694Zm-5.9,14.461,13.4-6.952,23.688,23.688a14.878,14.878,0,0,0,4.361,18.392l-7.053,21.147-18.885-6.295Zm50.739,28.289a5.056,5.056,0,1,1,5.056-5.056A5.063,5.063,0,0,1,188.638,163.359Zm0-20.225a14.927,14.927,0,0,0-6.5,1.517l-21.425-21.425,37.822-19.618a14.863,14.863,0,0,0,18.025,1.959l23.018,19.188-40.867,22.3a15.028,15.028,0,0,0-10.074-3.918ZM252.231,60.34a14.373,14.373,0,0,0,12.135,1l22.652,28.327a15.047,15.047,0,0,0-2.313,7.963,14.842,14.842,0,0,0,.24,2.376l-35.822,19.542-26.09-21.742a14.758,14.758,0,0,0,1-5.233,15.043,15.043,0,0,0-1.163-5.8ZM213.917,92.573a5.056,5.056,0,1,1-5.056-5.056A5.063,5.063,0,0,1,213.917,92.573Zm34.016,39.148,36.226,30.185-78.5-7.129Zm44.242,23.7-34.686-28.909L289.8,108.893a15.16,15.16,0,0,0,5.018,2.983V154.2a13.552,13.552,0,0,0-2.642,1.226Zm12.754-57.79a5.056,5.056,0,1,1-5.056-5.056A5.063,5.063,0,0,1,304.929,97.631Zm-45.5-55.619a5.056,5.056,0,1,1-5.056,5.056A5.063,5.063,0,0,1,259.426,42.012ZM244.4,45.7c-.038.455-.139.9-.139,1.365a15,15,0,0,0,1.163,5.8L216.057,79.3a14.849,14.849,0,0,0-15.586.657l-37.2-27.91L186.756,30.13A14.861,14.861,0,0,0,204.541,27.3ZM193.7,11.674a5.056,5.056,0,1,1-5.056,5.056A5.063,5.063,0,0,1,193.7,11.674Zm-85.953,0a5.056,5.056,0,1,1-5.056,5.056A5.063,5.063,0,0,1,107.743,11.674ZM57.182,36.955a5.056,5.056,0,1,1-5.056,5.056A5.063,5.063,0,0,1,57.182,36.955ZM16.732,87.516a5.056,5.056,0,1,1-5.056,5.056A5.063,5.063,0,0,1,16.732,87.516Zm0,70.786a5.056,5.056,0,1,1,5.056-5.056A5.063,5.063,0,0,1,16.732,158.3Zm5.056-19.289V106.806a15.17,15.17,0,0,0,9.4-9.9l27.872-1.39,7.053,54.05a15.11,15.11,0,0,0-6.851,6.27l-27.594-5.018a15.166,15.166,0,0,0-9.885-11.806Zm45.5,24.345a5.056,5.056,0,1,1,5.056,5.056A5.063,5.063,0,0,1,67.292,163.358Zm15.042,11.326a15.391,15.391,0,0,0,1.921-2.035L145.308,193l9.013,29.048a15.347,15.347,0,0,0-3.274,3.312l-43.394-12.4a15.154,15.154,0,0,0-15.08-14.208c-.2,0-.392.051-.594.063Zm10.239,44.293a5.056,5.056,0,1,1,5.056-5.056A5.063,5.063,0,0,1,92.573,218.978Zm70.786,85.953a5.056,5.056,0,1,1,5.056-5.056A5.063,5.063,0,0,1,163.359,304.93Zm0-65.728a5.056,5.056,0,1,1,5.056-5.056A5.063,5.063,0,0,1,163.359,239.2Zm.177-21.565-6.421-20.7,12,3.994Zm25.382-44.19a15.124,15.124,0,0,0,13.449-8.81l82.846,7.534a12.728,12.728,0,0,0,.468,1.492L246.889,206a14.762,14.762,0,0,0-7.685-2.187,15.068,15.068,0,0,0-11.895,5.878l-45.416-15.143ZM239.2,304.933a5.056,5.056,0,1,1,5.056-5.056A5.063,5.063,0,0,1,239.2,304.933Zm0-80.9a5.056,5.056,0,1,1,5.056-5.056A5.063,5.063,0,0,1,239.2,224.035Zm60.674-50.561a5.056,5.056,0,1,1,5.056-5.056A5.063,5.063,0,0,1,299.875,173.474Z" transform="translate(0.001 0)"/>
        <path id="路径_1186" data-name="路径 1186" d="M4.688,1.563H14.8V11.675H4.688Z" transform="translate(6.987)"/>
        <path id="路径_1187" data-name="路径 1187" d="M4.688,7.813H14.8V17.925H4.688Z" transform="translate(6.987 13.975)"/>
        <path id="路径_1188" data-name="路径 1188" d="M7.813,4.688H17.925V14.8H7.813Z" transform="translate(13.975 6.987)"/>
        <path id="路径_1189" data-name="路径 1189" d="M1.563,4.688H11.675V14.8H1.563Z" transform="translate(0 6.987)"/>
        <path id="路径_1190" data-name="路径 1190" d="M82.812,73.438H92.924V83.55H82.812Z" transform="translate(181.668 160.709)"/>
        <path id="路径_1191" data-name="路径 1191" d="M82.812,79.688H92.924V89.8H82.812Z" transform="translate(181.668 174.683)"/>
        <path id="路径_1192" data-name="路径 1192" d="M85.938,76.562H96.05V86.674H85.938Z" transform="translate(188.658 167.694)"/>
        <path id="路径_1193" data-name="路径 1193" d="M79.688,76.562H89.8V86.674H79.688Z" transform="translate(174.683 167.694)"/>
        <path id="路径_1194" data-name="路径 1194" d="M92.188,7.813H102.3V17.925H92.188Z" transform="translate(202.632 13.975)"/>
        <path id="路径_1195" data-name="路径 1195" d="M92.188,14.062H102.3V24.174H92.188Z" transform="translate(202.632 27.948)"/>
        <path id="路径_1196" data-name="路径 1196" d="M95.312,10.938h10.112V21.05H95.312Z" transform="translate(209.618 20.963)"/>
        <path id="路径_1197" data-name="路径 1197" d="M89.062,10.938H99.174V21.05H89.062Z" transform="translate(195.643 20.963)"/>
        <path id="路径_1198" data-name="路径 1198" d="M20.312,76.562H30.424V86.674H20.312Z" transform="translate(41.923 167.694)"/>
        <path id="路径_1199" data-name="路径 1199" d="M20.312,82.812H30.424V92.924H20.312Z" transform="translate(41.923 181.668)"/>
        <path id="路径_1200" data-name="路径 1200" d="M23.438,79.688H33.55V89.8H23.438Z" transform="translate(48.912 174.683)"/>
        <path id="路径_1201" data-name="路径 1201" d="M17.188,79.688H27.3V89.8H17.188Z" transform="translate(34.938 174.683)"/>
        <path id="路径_1202" data-name="路径 1202" d="M10.938,59.375H21.05V69.487H10.938Z" transform="translate(20.963 129.265)"/>
        <path id="路径_1203" data-name="路径 1203" d="M10.938,65.625H21.05V75.737H10.938Z" transform="translate(20.963 143.239)"/>
        <path id="路径_1204" data-name="路径 1204" d="M14.062,62.5H24.174V72.612H14.062Z" transform="translate(27.948 136.252)"/>
        <path id="路径_1205" data-name="路径 1205" d="M7.813,62.5H17.925V72.612H7.813Z" transform="translate(13.975 136.252)"/>
      </g>
    </g>
  </g>
</svg>
