<svg xmlns="http://www.w3.org/2000/svg" xmlns:xlink="http://www.w3.org/1999/xlink" width="2849.525" height="3505.1" viewBox="0 0 2849.525 3505.1">
  <defs>
    <style>
      .cls-1 {
        clip-path: url(#clip-Artboard_44);
      }

      .cls-2, .cls-6, .cls-7 {
        fill: #fff;
      }

      .cls-2 {
        stroke: #000;
        stroke-width: 2px;
        fill-rule: evenodd;
      }

      .cls-3, .cls-4 {
        font-size: 64px;
      }

      .cls-3 {
        font-family: Helvetica-Bold, Helvetica;
        font-weight: 700;
        letter-spacing: 0.1em;
      }

      .cls-4 {
        fill: #797777;
        font-family: PingFangSC-Regular, PingFang SC;
        letter-spacing: 0.05em;
      }

      .cls-5 {
        fill: #ca3136;
      }

      .cls-6 {
        font-size: 71px;
        font-family: Helvetica;
      }
    </style>
    <clipPath id="clip-Artboard_44">
      <rect width="2849.526" height="3505.099"/>
    </clipPath>
  </defs>
  <g id="Artboard_44" data-name="Artboard – 44" class="cls-1">
    <rect class="cls-7" width="2849.526" height="3505.099"/>
    <path id="path2427" class="cls-2" d="M-32.705,436.919C400.671,165.76,770.636,193.2,1137.011-40.432c196.537,50.319,342.849,30.2,478.1-5.425,414.964,223.263,779.818,259.059,1169.711,488.2-32.406,239.264-103.771,446.008-222.794,612.963-144.416-90.452-281.057-126.392-413.115-130.187l-9.291,1627.336c-568.927,123.832-1051.144,70.328-1522.482-5.42L612.5,930.545c-165.972-5.635-292.253,66.039-422.4,130.187C64.929,861.294,6.445,650.72-32.706,436.919h0Z" transform="translate(43.705 168.857)"/>
    <g id="组_47" data-name="组 47">
      <g id="组_4" data-name="组 4" transform="translate(1218.365 628.533)">
        <text id="Service_Unavailable" data-name="Service Unavailable" class="cls-3" transform="translate(206.445 725.003)"><tspan x="-358.225" y="0">Service Unavailable</tspan></text>
        <text id="八星出轨" class="cls-4" transform="translate(206 847.008)"><tspan x="-132.8" y="0">八星出轨</tspan></text>
        <g id="icon" transform="translate(489.4 0)">
          <rect id="矩形_1" data-name="矩形 1" class="cls-5" width="69.914" height="204.365" rx="10" transform="translate(0 13.445)"/>
          <text id="_5_0_3" data-name="5
0
3" class="cls-6" transform="translate(34.756 75)"><tspan x="-19.743" y="0">5</tspan><tspan x="-19.743" y="61">0</tspan><tspan x="-19.743" y="122">3</tspan></text>
        </g>
      </g>
      <g id="np_train_1351889_000000" transform="translate(1236.218 818.995)">
        <path id="路径_1206" data-name="路径 1206" d="M30.032,40.779l.436,1.878a1.932,1.932,0,0,0,.319.7c0,.017,0,.017.017.034l1.241,1.76c.05.067.117.084.168.134a1.441,1.441,0,0,0,.3.335l2.012,1.526c.034.034.084.017.134.05a1.74,1.74,0,0,0,.285.2l2.632,1.174c.067.034.151.017.218.05a1.412,1.412,0,0,0,.235.1l.553.117L41,49.431c.084.017.184.017.268.034.034,0,.05.017.084.017l3.3.235h.3l3.253-.235c.034,0,.05-.017.084-.017.084-.017.184-.017.268-.034l2.515-.6.469-.1a1.263,1.263,0,0,0,.218-.1.883.883,0,0,0,.2-.05L54.578,47.4a2.96,2.96,0,0,0,.285-.2c.05-.034.1-.017.134-.05l2.012-1.526a1.508,1.508,0,0,0,.268-.3c.05-.067.117-.084.168-.151l1.291-1.76c.017-.017.017-.034.034-.05a1.955,1.955,0,0,0,.268-.6c.017-.05.05-.084.05-.134v-.017l.419-1.878V40.7a1.862,1.862,0,0,0,.017-.436,3.5,3.5,0,0,0,0-.419v-.034L59.1,37.9a.016.016,0,0,0-.017-.017,1.921,1.921,0,0,0-.168-.386,2.944,2.944,0,0,0-.184-.4.016.016,0,0,0-.017-.017l-1.291-1.727a2.994,2.994,0,0,0-.235-.218c-.067-.067-.117-.168-.2-.218L54.98,33.386a1.265,1.265,0,0,0-.218-.1.842.842,0,0,0-.2-.134l-2.616-1.174c-.067-.034-.134-.017-.2-.05-.067-.017-.117-.067-.184-.084l-3.051-.7a.456.456,0,0,0-.151,0l-.151-.05-3.253-.268c-.05,0-.1.017-.151.017-.067,0-.117-.034-.184-.017l-3.3.268a.533.533,0,0,0-.151.05.456.456,0,0,1-.151,0l-3.051.7c-.067.017-.117.067-.184.084a.883.883,0,0,0-.2.05l-2.632,1.174a2.091,2.091,0,0,0-.2.134c-.067.05-.151.05-.218.1l-2.012,1.526c-.084.067-.134.168-.218.235a3,3,0,0,0-.235.218L30.82,37.091a2.231,2.231,0,0,0-.352.788l-.436,1.911v.067a1.757,1.757,0,0,0-.017.419,1.9,1.9,0,0,0,.017.436v.067Zm4.527-1.509.8-1.123,1.559-1.174,2.23-.989,2.666-.62,2.968-.235,2.934.235,2.683.62,2.213.989,1.576,1.19.822,1.123.218,1.006-.218.989-.838,1.14L52.616,43.6l-2.079.939-2-.469a.559.559,0,0,0-.168,0l-.151-.05-3.253-.251c-.067,0-.117.017-.168.017s-.1-.017-.151-.017l-3.3.251c-.067,0-.1.034-.168.05-.05.017-.117-.017-.168,0l-1.978.469-2.113-.956-1.559-1.174-.8-1.14-.235-.989Z" transform="translate(71.077 73.339)"/>
        <path id="路径_1207" data-name="路径 1207" d="M71.47,76.232a3.068,3.068,0,0,0,.134.419c.017.034.017.084.034.117.034.05.084.067.117.117a2,2,0,0,0,.57.553c.084.05.134.1.218.151a2.094,2.094,0,0,0,.972.251,1.971,1.971,0,0,0,.972-.268c.034-.017.067-.017.1-.034L96.972,64.63c.084-.05.117-.117.2-.168a2.736,2.736,0,0,0,.335-.285c.067-.084.117-.168.184-.251.017-.034.05-.034.067-.067.034-.034.034-.084.05-.117a.741.741,0,0,0,.1-.268,1.83,1.83,0,0,0,.084-.285c.017-.084.034-.184.05-.268,0-.05.034-.084.034-.134V44.7c0-.05-.034-.084-.034-.134-.017-.05.017-.084.017-.134l-.386-3.135c-.017-.1-.084-.184-.1-.285a3.251,3.251,0,0,0-.084-.335l-1.107-2.465a2.675,2.675,0,0,0-.251-.352,1.751,1.751,0,0,0-.252-.335l-1.794-1.66c-.017-.017-.034-.017-.05-.034a1.94,1.94,0,0,0-.4-.235,2.148,2.148,0,0,0-.335-.184c-.034-.017-.05-.034-.067-.034l-2.3-.687a1.379,1.379,0,0,0-.453-.034,2.545,2.545,0,0,0-.352-.05l-2.716.251a2.548,2.548,0,0,0-.335.1,2.373,2.373,0,0,0-.335.067l-2.884,1.257c-.084.034-.117.1-.2.134-.067.034-.134.05-.2.084l-2.23,1.61-.654.469a1.084,1.084,0,0,0-.134.151,1.448,1.448,0,0,0-.168.117l-2.716,2.85c-.05.05-.05.1-.084.151l-.134.134-2.28,3.4a.439.439,0,0,0-.05.134c-.034.05-.067.067-.084.117l-1.811,3.689a.757.757,0,0,0-.05.184.783.783,0,0,0-.084.168l-1.107,3.772a.464.464,0,0,0-.017.218c-.017.067-.05.1-.067.168l-.251,2.381-.134,1.14c-.017.05.017.084.017.134s-.034.084-.034.134V75.713a.394.394,0,0,0,.034.134,1.157,1.157,0,0,0,.05.386ZM91.506,39.346l.989.905-2.213-1.291ZM84.632,51.384V40.956l.218-.168,8.9,5.13V59.063L84.632,53.8Zm-7.612-.335,1.66-3.387,1.66-2.448v4.929l-3.672,2.113Zm-1.358,10.4,6.824-3.923,9.121,5.265-15.944,9.2Z" transform="translate(207.291 85.804)"/>
        <path id="路径_1208" data-name="路径 1208" d="M78.819,72.046a2.605,2.605,0,0,0,.134.386.439.439,0,0,0,.05.134c.034.05.084.084.117.134a1.878,1.878,0,0,0,.553.537c.084.05.134.1.235.151a2.094,2.094,0,0,0,.972.251,1.971,1.971,0,0,0,.972-.268c.034-.017.067-.017.1-.034l22.383-12.91c.084-.05.117-.117.2-.168a2.738,2.738,0,0,0,.335-.285c.067-.084.117-.151.184-.251.017-.034.05-.034.067-.067.034-.034.034-.084.05-.117a.741.741,0,0,0,.1-.268,1.832,1.832,0,0,0,.084-.285,1.506,1.506,0,0,0,.05-.268c0-.05.034-.084.034-.134V40.475c0-.05-.034-.084-.034-.134-.017-.05.017-.084.017-.134l-.386-3.1c-.017-.1-.084-.2-.1-.3a2.234,2.234,0,0,0-.084-.319L103.733,34a1.8,1.8,0,0,0-.4-.553c-.05-.034-.067-.1-.1-.134l-1.76-1.626c-.017-.017-.034-.017-.05-.034a2.478,2.478,0,0,0-.352-.218,1.754,1.754,0,0,0-.386-.218c-.017,0-.034-.017-.05-.017l-2.347-.721A2.036,2.036,0,0,0,97.4,30.4l-2.649.268c-.1.017-.2.067-.3.084a1.977,1.977,0,0,0-.335.067l-2.884,1.224c-.084.034-.117.1-.2.134a.062.062,0,0,1-.05.017c-.067.034-.134.05-.2.084l-.017.017c-.017,0-.017,0-.017.017L88.56,33.9l-.654.453c-.067.05-.1.117-.151.151a1.279,1.279,0,0,0-.184.134l-2.7,2.85a.343.343,0,0,0-.084.151c-.034.05-.084.067-.117.117l-2.314,3.4c-.034.05-.034.1-.067.151s-.084.084-.1.134l-1.76,3.705a.533.533,0,0,0-.05.151c-.017.05-.067.084-.084.151l-1.14,3.756a1.132,1.132,0,0,0-.034.235c-.017.067-.05.117-.067.184l-.235,2.347L78.685,53.1c-.017.05.017.084.017.134s-.034.084-.034.134V71.459a.242.242,0,0,0,.034.117c.05.184.067.319.117.469ZM98.888,35.178l.922.855-2.1-1.207ZM91.98,36.754l.235-.168,8.886,5.13V54.861L92,49.58ZM84.385,46.881l1.643-3.42,1.66-2.431v7.628l-1.274-.738a1.256,1.256,0,0,0-.268-.084,2.261,2.261,0,0,0-.4-.134,1.7,1.7,0,0,0-.419-.034,1.633,1.633,0,0,0-.4.034c-.134.034-.268.084-.419.134a1.476,1.476,0,0,0-.251.084L84,48.054ZM83.011,57.242l6.539-3.772.017-.017a.016.016,0,0,0,.017-.017H89.6l.251-.151,9.1,5.265L83.011,67.738Z" transform="translate(231.262 71.916)"/>
        <path id="路径_1209" data-name="路径 1209" d="M77.635,370.271a2.014,2.014,0,0,0,.939-.251c.034-.017.084-.017.117-.05l29.81-17.2c.084-.05.117-.117.184-.168a1.883,1.883,0,0,0,.335-.3,2.3,2.3,0,0,0,.218-.335c.05-.1.117-.184.168-.285l3.772,2.18c.05.034.117.017.168.05a.807.807,0,0,0,.268.134l3.236.989a2.659,2.659,0,0,0,.62.1h.017a.817.817,0,0,0,.2-.017l3.806-.369a2.549,2.549,0,0,0,.335-.1,1.944,1.944,0,0,0,.3-.067l4.024-1.71c.05-.034.084-.067.134-.1.034-.017.067-.017.1-.034l1.14-.671c.034-.017.067-.067.1-.084.017-.017.05-.017.084-.034l3.756-2.716a1.078,1.078,0,0,0,.134-.151c.05-.05.117-.067.168-.117l3.487-3.705a.786.786,0,0,0,.1-.151c.034-.05.084-.05.1-.1l3.018-4.393a1.023,1.023,0,0,0,.084-.2c.017-.033.067-.05.084-.084l2.314-4.812c.034-.084.034-.151.067-.235.017-.034.05-.067.067-.1l1.442-4.912c.017-.067,0-.117.017-.184a.708.708,0,0,0,.05-.2l.034-.369,6.338,3.638c.05.033.117.017.184.05a.808.808,0,0,0,.268.134l3.236.989a2.661,2.661,0,0,0,.62.1h.017a.814.814,0,0,0,.2-.017l3.789-.369a2.557,2.557,0,0,0,.335-.1,1.952,1.952,0,0,0,.3-.067l4.041-1.71a1.171,1.171,0,0,1,.151-.1c.034-.017.084-.017.117-.034l1.123-.671c.034-.017.05-.067.084-.084.017-.017.05,0,.067-.017l3.772-2.716c.067-.05.084-.1.151-.151.05-.05.117-.067.168-.117l3.471-3.722c.05-.05.05-.1.1-.151.034-.034.084-.05.1-.084l3.018-4.393a1.024,1.024,0,0,0,.084-.2c.017-.034.067-.05.084-.084l2.314-4.812c.034-.084.034-.151.067-.235.017-.033.05-.05.067-.1l1.442-4.9c.017-.067,0-.117.017-.184a.757.757,0,0,0,.05-.184l.5-4.611c0-.05-.017-.084-.017-.117s.017-.067.017-.117v-1.308a.242.242,0,0,0-.034-.117c0-.05.017-.084.017-.134l-.52-4.376c-.017-.117-.084-.218-.1-.335-.034-.084-.017-.2-.067-.285l-1.542-3.471a1.884,1.884,0,0,0-.268-.369,2.231,2.231,0,0,0-.235-.319l-2.481-2.314a1.249,1.249,0,0,0-.2-.117c-.067-.05-.117-.117-.184-.168l-5.835-3.353L175.65,283l8.936-5.181c.084-.05.117-.117.2-.168a2.738,2.738,0,0,0,.335-.285,2.306,2.306,0,0,0,.218-.335,2.526,2.526,0,0,0,.184-.369,1.825,1.825,0,0,0,.084-.436,1.269,1.269,0,0,0,.05-.268v-5.566l6.958-4.007h.017a2.049,2.049,0,0,0,.285.05c.084.017.168.084.268.084l2.951.285c.084,0,.134.017.218.017h.017a2.491,2.491,0,0,0,.6-.084l2.548-.771c.034-.017.05-.034.067-.034a2.007,2.007,0,0,0,.268-.134c.034-.017.084-.017.117-.034l2.163-1.241.369,3.018a2.372,2.372,0,0,0,.117.369c.034.084.017.168.067.251l2.9,6.388a1.881,1.881,0,0,0,.5.7l4.627,4.275a.95.95,0,0,0,.218.134c.067.05.084.1.151.151l11.166,6.488c.067.034.117.017.168.05a1.534,1.534,0,0,0,.285.151l6.019,1.844a1.979,1.979,0,0,0,.62.084h.034a1.03,1.03,0,0,0,.218-.017l7.025-.7c.1-.017.2-.067.3-.084a2.157,2.157,0,0,0,.319-.067l7.528-3.186a1.181,1.181,0,0,0,.151-.117,1.076,1.076,0,0,0,.117-.033l1.107-.671c.034-.017.05-.05.084-.067a.1.1,0,0,1,.067-.017l7.243-5.281a1.08,1.08,0,0,0,.134-.151c.05-.05.117-.067.168-.117l6.706-7.092a.885.885,0,0,0,.1-.168c.034-.034.084-.05.1-.084l5.818-8.467a1.022,1.022,0,0,0,.084-.2c.017-.05.067-.05.084-.1l4.426-9.255a.832.832,0,0,0,.05-.218c.017-.034.067-.05.067-.1l2.548-8.484,11.1,6.388c.067.034.117.017.168.05a1.387,1.387,0,0,0,.268.151l6.019,1.844a1.978,1.978,0,0,0,.62.084h.034a.816.816,0,0,0,.2-.017l7.008-.671a1.772,1.772,0,0,0,.319-.1c.1-.034.218-.017.3-.067L307.4,248.2a.172.172,0,0,0,.1-.084c.034-.017.067-.017.1-.034l1.14-.637c.05-.034.084-.084.134-.117.034-.017.067-.017.084-.034l7.226-5.281a.84.84,0,0,0,.117-.134c.05-.05.117-.067.151-.1l6.74-7.092a1.772,1.772,0,0,0,.117-.184c.034-.034.084-.05.1-.084l5.785-8.5a.9.9,0,0,0,.084-.184c.017-.034.067-.05.084-.084l4.443-9.238c.034-.067.034-.151.067-.218.017-.034.067-.05.067-.1l2.783-9.406a.349.349,0,0,0,.017-.184c.017-.067.05-.117.067-.2l.939-8.9c.017-.034-.017-.05-.017-.084a.282.282,0,0,0,.034-.084l.034-1.291c0-.05-.034-.1-.034-.151s.034-.1.017-.151l-.721-5.8,30.967-17.873c.084-.05.117-.117.2-.168a2.735,2.735,0,0,0,.335-.285c.084-.1.151-.218.235-.335a1.47,1.47,0,0,0,.168-.369,1.829,1.829,0,0,0,.084-.436,1.272,1.272,0,0,0,.05-.268V154.59c0-.05-.034-.084-.034-.134l-.05-.3c-.017-.067,0-.117-.017-.184l-5.583-18.745a8.748,8.748,0,0,0-.386-.721,1.781,1.781,0,0,0-.5-.436c-.05-.034-.067-.084-.117-.1l-.017-.017a.016.016,0,0,1-.017-.017l-2.213-1.241h-.017a1.473,1.473,0,0,0-.386-.117,1.788,1.788,0,0,0-.453-.134h-.017l-13.7-1.375.034-48.69L361.973,72.9c.067-.034.084-.084.134-.117a1.284,1.284,0,0,0,.151-.151,2.042,2.042,0,0,0,.7-1.056l3.487-12.927a2.5,2.5,0,0,0,.034-.352,1.7,1.7,0,0,0,.034-.419c0-.034.017-.05,0-.084a1.767,1.767,0,0,0-.1-.319,3.776,3.776,0,0,0-.134-.4,2.783,2.783,0,0,0-.268-.352c-.084-.084-.1-.184-.2-.251L324.769,20.057c-.017-.017-.05-.017-.067-.034s-.034-.05-.05-.067a2.331,2.331,0,0,0-.352-.184,1.567,1.567,0,0,0-.335-.168c-.034,0-.05-.017-.084-.034L282.836,8.622A2.037,2.037,0,0,0,282,8.555a2.091,2.091,0,0,0-.822.285L169.344,73.407c-.034.017-.034.034-.067.05a1.877,1.877,0,0,0-.335.285c-.017.017-.034.017-.034.034-.05.067-.134.1-.184.168-.017.034-.034.05-.05.084a1.36,1.36,0,0,0-.168.352,1.7,1.7,0,0,0-.168.4,2.5,2.5,0,0,0-.034.352,1.721,1.721,0,0,0-.017.419c0,.034.017.05.017.084V75.7l3.471,16.967a2.328,2.328,0,0,0,.168.436c.034.084.05.151.084.235a2.123,2.123,0,0,0,.5.587.337.337,0,0,0,.134.067,2.589,2.589,0,0,0,.57.285c.034.017.05.034.067.034l15.861,4.259v5.13l-.771-.184a.562.562,0,0,0-.168,0c-.067,0-.1-.05-.168-.05l-3.286-.251c-.067,0-.1.017-.168.017-.05,0-.1-.034-.151-.017l-3.286.251c-.067,0-.1.034-.168.05s-.117-.017-.168,0l-3.051.721c-.067.017-.117.067-.184.084a.885.885,0,0,0-.2.05l-2.616,1.157a2.092,2.092,0,0,0-.2.134c-.084.05-.151.067-.235.117l-2.029,1.526c-.084.067-.134.168-.218.251-.067.084-.168.134-.235.218l-1.241,1.744a12635.85,12635.85,0,0,0-.335.771l-.4,1.861v.067a1.27,1.27,0,0,0-.017.251c0,.067-.034.117-.034.184v5.181a1.666,1.666,0,0,0,.05.251c.017.084-.017.168.017.251l.436,1.844v.034a2.549,2.549,0,0,0,.319.721c0,.017,0,.017.017.034l1.241,1.76c.05.067.117.084.168.134a.392.392,0,0,0,.117.117l-.034.034a1.672,1.672,0,0,0-.251.235l-1.241,1.76a2.279,2.279,0,0,0-.218.5,1.3,1.3,0,0,0-.117.268v.034l-.235,1.006-2.565,2.364v.017c-.084.084-.134.2-.218.3a2.843,2.843,0,0,0-.285.386l-.788,1.76L156.6,137.2l-1.962-.184a1.983,1.983,0,0,0-.7.084c-.05.017-.084,0-.134.017h-.034l-.972.3V123.957c0-.067-.034-.117-.034-.184a1.268,1.268,0,0,0-.017-.251v-.05l-1.19-5.2a2.037,2.037,0,0,0-.151-.335,3.7,3.7,0,0,0-.2-.453l-3.487-4.829c-.067-.084-.168-.134-.235-.218a.956.956,0,0,0-.218-.235l-5.533-4.158a1.263,1.263,0,0,0-.218-.1,2.1,2.1,0,0,0-.2-.134l-3.454-1.543-.972-.754a.367.367,0,0,1-.084-.05c-.034-.017-.034-.05-.067-.067l-.872-.57a.534.534,0,0,0-.151-.05c-.05-.034-.084-.067-.134-.1l-5.533-2.465c-.017,0-.017,0-.034-.017-.017,0-.017-.017-.034-.017l-.687-.285c-.05-.017-.1-.017-.151-.034s-.1-.067-.151-.067l-6.086-1.475a.562.562,0,0,0-.168,0,.492.492,0,0,0-.168-.05l-6.522-.5c-.067,0-.117.017-.184.017-.05,0-.1-.034-.151-.017l-6.555.5c-.067,0-.1.034-.168.05s-.117-.017-.168,0l-6.07,1.475c-.05.017-.084.05-.134.067s-.1.017-.151.034l-.7.285c-.017,0-.017.017-.034.017a.062.062,0,0,0-.05.017l-5.5,2.465c-.05.017-.084.067-.134.084l-.151.05-.889.57c-.034.017-.05.05-.084.067l-.1.05-.939.738-3.5,1.543a1.7,1.7,0,0,0-.218.151,1.263,1.263,0,0,0-.218.1l-5.533,4.158a1.352,1.352,0,0,0-.2.235,1.668,1.668,0,0,0-.251.235l-3.487,4.829a2.252,2.252,0,0,0-.218.453,1.072,1.072,0,0,0-.134.319l-1.157,5.214v.05a1.106,1.106,0,0,0-.017.235c0,.067-.034.117-.034.184v15.492a1.174,1.174,0,0,0,.05.235c.017.084-.017.151,0,.235l1.157,5.214.05.1a1.911,1.911,0,0,0,.285.62c.017.017.017.034.034.05l3.487,4.829c.05.067.117.084.168.151a1.508,1.508,0,0,0,.268.3l4.56,3.437.822,1.123,2.481,3.487c.017.017.034.017.05.034s.017.05.034.067l1.123,1.408c.017.017.017.017.034.017a.052.052,0,0,1,.017.034l1.157,1.341c.017.017.034.017.05.034s.017.034.034.05l1.241,1.274c.017.017.034.017.05.034s.017.034.034.05l1.308,1.19a.059.059,0,0,0,.034.017l.017.017,1.341,1.174c.017.017.034.017.05.034s.017.034.034.034l1.291,1.006.319.319.252.486.3.788.084.251.067.754.017.788-.034.738-.1.822c0,.05.017.084.017.134s-.034.084-.034.134V183.9l-8.266,4.745a1.013,1.013,0,0,0-.134.134,2.089,2.089,0,0,0-.2.134c-.017.017-.034.017-.05.034l-3.538,3.3a2.3,2.3,0,0,0-.285.386,1.978,1.978,0,0,0-.218.3l-1.174,2.616-2.85,1.626c-.067.034-.084.084-.151.117-.067.05-.151.084-.218.134-.017.017-.034.017-.034.034l-3.2,2.968a2.085,2.085,0,0,0-.5.687l-2.012,4.46a1.083,1.083,0,0,0-.067.319,2.125,2.125,0,0,0-.1.3l-.687,5.633a1.357,1.357,0,0,0,.017.251,1.188,1.188,0,0,0-.017.251l.687,6.4c.017.067.05.134.067.2s0,.117.017.184l1.492,5.013.285,2.632c.017.067.05.134.067.2s0,.117.017.184l.905,3.035c.017.034.05.05.067.084.034.084.017.151.05.218l1.425,2.951c.017.05.067.05.084.084.034.067.034.134.084.184l1.844,2.7c.034.034.067.05.1.084a.888.888,0,0,0,.1.168l.587.62L49.733,257.769c-.034.017-.05.05-.084.084a1.689,1.689,0,0,0-.268.218,1.141,1.141,0,0,0-.2.2c-.05.067-.084.117-.134.184a.445.445,0,0,0-.084.1L35.549,281.812,22.136,305.033,8.69,328.3c-.034.05-.034.117-.067.168a1.89,1.89,0,0,0-.134.4,1.683,1.683,0,0,0-.067.4,3.255,3.255,0,0,0,.034.4,1.7,1.7,0,0,0,.1.419.755.755,0,0,0,.05.184L22.79,360.815c.017.05.067.067.1.1a2,2,0,0,0,.134.268c.05.084.151.117.218.2a2.088,2.088,0,0,0,.352.319.016.016,0,0,1,.017.017.052.052,0,0,0,.034.017.016.016,0,0,1,.017.017c.034.017.067.017.1.034a2.076,2.076,0,0,0,.637.235L77.331,370.2a.574.574,0,0,0,.3.067ZM105.3,348.055v1.626L83.486,362.273l9.138-15.811,12.675-7.327Zm-15.375-5.516-48.386-7.495,11.133-19.231,48.373,7.478Zm15.375-8.383L96.916,339l8.383-14.52ZM103.338,319.3l-48.355-7.478L66.1,292.559l48.373,7.461Zm14.8,3.3c-.034.05-.084.067-.117.117l-2.8,4.057c-.034.05-.034.1-.067.151s-.084.084-.1.134l-2.129,4.443c-.034.05-.017.117-.05.168-.017.05-.067.1-.084.151l-1.325,4.527c-.017.067,0,.117-.017.184a.757.757,0,0,1-.05.184l-.386,3.487-.084.721a1.534,1.534,0,0,0,.017.268,1.355,1.355,0,0,0-.017.268l.486,3.739a2.377,2.377,0,0,0,.117.369c.034.084.017.168.05.235l1.291,2.884-3.286-1.878V321.146l17.772-10.261,5.516,3.2-3.152.319a1.592,1.592,0,0,0-.3.1,2.162,2.162,0,0,0-.319.067l-3.454,1.475a1.283,1.283,0,0,0-.184.134c-.067.034-.151.05-.218.084l-.62.436a.016.016,0,0,1-.017.017.016.016,0,0,0-.017.017l-2.884,2.1c-.05.05-.084.1-.134.151s-.117.067-.168.117l-3.2,3.42c-.017-.017-.034.05-.067.084Zm13.513-14.2,1.241-.7-.151.5c-.017.067,0,.134-.017.2s-.05.117-.067.2l-.05.4Zm-4.309,32.007-1.928,1.425-.3.134-1.442.6-1.425.134-.922-.268-.721-.687-.57-1.291-.235-1.895.268-2.414.52-1.777-.117,1.09a1.535,1.535,0,0,0,.017.268,1.355,1.355,0,0,0-.017.268l.134,1.073a1.771,1.771,0,0,0,.1.319c.034.084.017.168.05.268l.386.872.017.017a2.088,2.088,0,0,0,.5.7l.637.587.017.017a1.249,1.249,0,0,0,.251.151,2.613,2.613,0,0,0,.469.268c.017.017.034.017.05.034l.8.268a2.215,2.215,0,0,0,.654.1h.017a1.538,1.538,0,0,0,.268-.017l.939-.117c.084-.017.151-.067.251-.084.1-.034.2-.017.285-.067l1.023-.419c.067-.034.117-.084.184-.117.034-.017.084-.017.117-.033l.7-.436Zm-.235-5.466.084-.268.285-.62.386-.553.2-.235-.084.268-.319.671-.352.52Zm5.835-4.208-.419,1.392v-.905c0-.034-.017-.067-.017-.1,0-.05.017-.084.017-.117l-.117-1.107c-.017-.117-.084-.235-.1-.352a1.878,1.878,0,0,0-.1-.386l-.419-.838a2.8,2.8,0,0,0-.2-.268,2.4,2.4,0,0,0-.235-.335l-.62-.587c-.017-.017-.034-.017-.05-.034a2.569,2.569,0,0,0-.352-.235,2.659,2.659,0,0,0-.369-.218c-.017,0-.034-.017-.05-.034l-.8-.268a2.491,2.491,0,0,0-.855-.1h-.017l-.972.084a2.539,2.539,0,0,0-.335.1,1.95,1.95,0,0,0-.3.067l-.989.419a1.4,1.4,0,0,0-.2.134c-.084.05-.168.05-.235.1l-.905.671,1.308-1.375,1.928-1.425,1.777-.738,1.375-.151.956.3.738.687.57,1.274.184,1.559c0,.017.017.017.017.033v.034l.05.3Zm30.213-10.982L161.2,321.2l-.251.1h-.017l-1.492.62-1.408.151-.939-.285-.738-.687-.57-1.274-.235-1.895.251-2.448.52-1.744-.117,1.09a1.268,1.268,0,0,0,.017.251,1.355,1.355,0,0,0-.017.268l.134,1.073a3.123,3.123,0,0,0,.117.369c.034.084.017.151.05.235l.386.872a2.089,2.089,0,0,0,.5.7l.637.587c.017.017.034.017.05.034.084.067.184.1.268.168a2.391,2.391,0,0,0,.453.251c.017,0,.034.017.05.034l.8.252a2.661,2.661,0,0,0,.62.1h.017a1.535,1.535,0,0,0,.268-.017l.939-.117c.084-.017.151-.067.251-.084a1.438,1.438,0,0,0,.285-.05l1.023-.419a1.439,1.439,0,0,0,.168-.117c.034-.017.084-.017.117-.034l.754-.453Zm-.251-5.449.084-.285.3-.654.386-.553.2-.218-.1.285-.3.671-.369.553Zm6.019-6.958c0,.017.017.034.017.05v.05l.05.285-.251,2.347-.419,1.408v-.956c0-.034-.017-.067-.017-.1,0-.05.017-.084.017-.117l-.1-1.073a3.64,3.64,0,0,0-.117-.4,2.23,2.23,0,0,0-.084-.319l-.05-.084v-.017l-.369-.771a3.871,3.871,0,0,0-.235-.319,1.482,1.482,0,0,0-.2-.285l-.6-.587c-.017-.034-.05-.034-.084-.05-.1-.084-.235-.151-.352-.235a2.6,2.6,0,0,0-.369-.2c-.034-.017-.05-.033-.084-.05l-.8-.235a2.116,2.116,0,0,0-.637-.067c-.05,0-.1-.017-.151-.017l-.067.034a.062.062,0,0,0-.05.017l-.889.084a2.553,2.553,0,0,0-.335.1,1.951,1.951,0,0,0-.3.067l-.989.419c-.067.034-.117.084-.184.117-.067.05-.151.05-.218.1l-.872.6,1.224-1.274,1.945-1.442,1.76-.738,1.375-.151.956.3.754.687.57,1.241Zm-.218-13.933-3.186.319a2.543,2.543,0,0,0-.335.1,1.947,1.947,0,0,0-.3.067l-3.471,1.475a1.707,1.707,0,0,0-.218.151c-.084.05-.151.05-.235.1l-.6.453-2.85,2.046c-.067.05-.084.1-.151.151-.05.05-.117.067-.168.117l-3.2,3.437a.928.928,0,0,1-.084.134c-.034.05-.084.067-.117.1L151,306.106c-.034.05-.034.1-.067.151s-.084.084-.1.134l-2.129,4.443c-.034.05-.017.1-.05.168-.017.067-.067.1-.084.151l-1.325,4.493c-.017.067,0,.117-.017.184s-.05.117-.067.184l-.386,3.5-.084.754a1.268,1.268,0,0,0,.017.251,1.355,1.355,0,0,0-.017.268l.469,3.739a2.168,2.168,0,0,0,.117.352c.034.084.017.168.067.251l1.291,2.884-5.516-3.169v-1.107a.242.242,0,0,0-.034-.117c0-.05.017-.084.017-.134l-.52-4.359c-.017-.117-.084-.218-.1-.319a1.949,1.949,0,0,0-.067-.3l-1.559-3.454a1.7,1.7,0,0,0-.151-.218,2.571,2.571,0,0,0-.352-.486l-2.481-2.28a1.257,1.257,0,0,0-.2-.117c-.067-.05-.1-.117-.184-.151l-.8-.469.218-2.1,1.358-4.544.067-.134,24.8-14.352Zm3.722-20.052v6.572l-10.345,5.952-26.457,15.291-9.322,5.349-15.945,9.2,9.121-15.811,52.965-30.565ZM158.767,220.5a2.124,2.124,0,0,0-2.532.319,2.23,2.23,0,0,0-.838.268l-8.065,4.661.285-2.431a1.269,1.269,0,0,0-.017-.251,1.107,1.107,0,0,0,.017-.235l-.754-7.143c0-.067-.05-.117-.067-.184s0-.134-.017-.2l-2.23-7.495c-.017-.05-.067-.1-.084-.151a.492.492,0,0,0-.05-.168l-3.571-7.411c-.034-.05-.067-.084-.1-.134a.439.439,0,0,1-.05-.134l-4.611-6.79a.775.775,0,0,0-.117-.117c-.034-.05-.05-.1-.084-.151l-5.214-5.5V172.229a.394.394,0,0,0-.034-.134c0-.034.017-.067,0-.084l.469-.453,3.756-1.157,4.627.453,5.248,2.247,5.432,3.957,5.147,5.432,4.46,6.505,3.387,7.109,2.146,7.176.721,6.673-.7,5.684-1.928,4.259-2.2,2.045Zm.235,7.578v28.6l-9.121,5.265v-28.6Zm-24.831,2.75a1.27,1.27,0,0,0,.017-.252l-.771-7.109c0-.067-.05-.117-.05-.184-.017-.067,0-.117-.017-.184l-2.213-7.545c-.017-.067-.067-.1-.084-.151a.639.639,0,0,0-.05-.168l-3.571-7.411c-.034-.05-.067-.084-.1-.134s-.034-.1-.067-.134l-4.627-6.773a.775.775,0,0,0-.117-.117.788.788,0,0,0-.1-.151l-1.107-1.157,1.04-.1c.084-.017.151-.05.235-.067a2.374,2.374,0,0,0,.335-.067l2.616-1.023c.067-.034.117-.084.168-.1a2.633,2.633,0,0,0,.419-.235l2.012-1.677a2.419,2.419,0,0,0,.369-.453c.034-.05.084-.067.117-.117l1.291-2.18v-.017a2.85,2.85,0,0,0,.151-.4l2.548,2.683,4.409,6.505,3.437,7.126,2.129,7.126.7,6.706-.687,5.667-.117.251c-.017.034-.017.084-.034.117l-.017.017c-.017.034-.017.067-.034.1s-.05.05-.067.084l-1.677,3.689-3.085,2.884-4.644,2.683.268-.6c.034-.084.034-.168.067-.268a1.219,1.219,0,0,0,.1-.352l.771-6.22a.454.454,0,0,0,.034-.285Zm5.818,8.584c.067-.034.1-.1.168-.151s.151-.084.218-.134l3.588-3.336a2.481,2.481,0,0,0,.469-.654.016.016,0,0,1,.017-.017V235.1l.855-1.895.251.151v28.6l-23.238-13.43,3.806-1.157c.034-.017.034-.034.067-.034.084-.034.168-.084.268-.134.034-.017.084-.017.117-.034Zm20-75.332,7.293,7.7,6.321,9.2,4.829,10.06,3.018,10.211,1.04,9.506-1.006,8.2-2.817,6.237-4.292,3.957-5.382,1.677h-.017a.016.016,0,0,0-.017.017l-.2.05-5.466-.52v-4.527l3.353-3.118a2.029,2.029,0,0,0,.469-.671l.017-.017,2.247-4.946c.034-.084.034-.168.067-.251a2.372,2.372,0,0,0,.117-.369l.771-6.27a1.355,1.355,0,0,0-.017-.251,1.269,1.269,0,0,0,.017-.251l-.771-7.092c-.017-.067-.05-.117-.067-.184s0-.134-.017-.2l-2.247-7.528c-.017-.05-.067-.084-.084-.151-.017-.05-.017-.1-.034-.168l-3.538-7.411c-.034-.05-.067-.084-.1-.134s-.034-.1-.067-.151l-4.661-6.773c-.034-.05-.084-.067-.117-.117a.937.937,0,0,0-.084-.134l-5.4-5.684c-.05-.05-.117-.067-.168-.117s-.084-.1-.134-.151l-5.785-4.208a1.265,1.265,0,0,0-.218-.1,2.09,2.09,0,0,0-.2-.134l-5.785-2.481a1.083,1.083,0,0,0-.319-.067,2.123,2.123,0,0,0-.3-.1l-5.4-.52c-.1,0-.184.034-.268.034a2.188,2.188,0,0,0-.57.05l-2.113.654.905-.7c.017-.017.017-.034.034-.034.017-.017.034-.017.05-.034l1.358-1.174a.016.016,0,0,0,.017-.017l.017-.017,1.325-1.19c.017-.017.034-.05.05-.067s.05-.017.067-.034l1.224-1.274c.017-.017.017-.034.034-.05s.034-.017.05-.034l1.174-1.341c.017-.017.017-.034.034-.05s.034-.017.034-.034l1.107-1.408a.062.062,0,0,0,.017-.05c.017-.017.034-.017.034-.034l2.515-3.487h.017l.553-.771,2.2.218,7.595,3.219Zm-5.03-8.987,1.744.738,7.763,5.667,7.293,7.7,6.321,9.2,4.829,10.077,3.018,10.16,1.006,9.557L186.716,210l-1.023-9.406a1.739,1.739,0,0,0-.067-.168c-.017-.067,0-.134-.017-.2l-3.118-10.546c-.017-.05-.067-.1-.084-.151a.491.491,0,0,0-.05-.168l-4.98-10.378c-.034-.05-.067-.084-.1-.134s-.034-.1-.067-.151l-6.505-9.49c-.034-.05-.084-.067-.117-.117s-.05-.1-.084-.151l-7.545-7.964c-.05-.05-.1-.067-.151-.117a1.014,1.014,0,0,0-.134-.134Zm8.333,79.572,5.466.52c.067,0,.134.017.2.017a2.492,2.492,0,0,0,.6-.084l.235-.067,4.544.469a1.032,1.032,0,0,0,.218.017h.017a2,2,0,0,0,.62-.1l6.941-2.163a.087.087,0,0,1,.067-.034c.084-.034.168-.084.251-.117a1.079,1.079,0,0,0,.117-.034l2.515-1.459,3.32,1.911c-.017.034-.017.05-.034.084a1.468,1.468,0,0,0-.168.369,1.154,1.154,0,0,0-.067.168,1.651,1.651,0,0,0-.034.285,1.175,1.175,0,0,0-.05.235v1.341l-15.878,9.171-.822-.62-.017-.017a.052.052,0,0,0-.034-.017,2.267,2.267,0,0,0-.7-.335,2.741,2.741,0,0,0-.369-.034,2.06,2.06,0,0,0-.453-.034,2,2,0,0,0-.671.235c-.034.017-.084.017-.117.034h-.017l-4.477,2.582a2.122,2.122,0,0,0-.218.184,1.567,1.567,0,0,0-.3.268c-.034.05-.084.067-.117.1a.016.016,0,0,1-.017.017,1.265,1.265,0,0,0-.1.218,1.468,1.468,0,0,0-.168.369c-.017.067-.05.1-.067.168a.841.841,0,0,0-.017.285,1.176,1.176,0,0,0-.05.235v1.341l-.184.1Zm2.18,19.348,1.325.972,2.18,2.28,1.878,2.766.654,1.375-1.291-.738h.017a1.183,1.183,0,0,0-.117-.151c-.034-.05-.034-.117-.067-.168l-2.113-3.052c-.034-.05-.084-.067-.117-.1a.938.938,0,0,0-.084-.134l-2.414-2.582a.693.693,0,0,0-.184-.117c-.034-.033-.05-.067-.084-.084Zm14.536,15.425-.352-3.387c0-.067-.05-.117-.067-.184s0-.134-.017-.2l-1.241-4.158c-.017-.067-.067-.1-.084-.151s-.017-.1-.034-.151l-1.928-4.057c-.017-.05-.067-.084-.1-.117-.034-.05-.034-.1-.067-.151l-2.532-3.722c-.034-.05-.1-.084-.134-.134s-.05-.1-.084-.151l-2.984-3.119a.786.786,0,0,0-.151-.1,1.012,1.012,0,0,0-.134-.134l-.537-.4.419-.235.838.62c.017,0,.017,0,.034.017s.017.034.034.034l1.023.7,2.683,2.867,2.347,3.471,1.828,3.772,1.14,3.756.369,3.471Zm17.856-12.525-.687,1.542-1.107,1.023-4.695,2.7h-.017l-6.958,4.007-.285-2.75c-.017-.067-.05-.117-.067-.184s0-.134-.017-.218l-1.241-4.124c-.017-.067-.067-.1-.084-.151a.533.533,0,0,0-.05-.151L180.7,254.55c-.017-.05-.067-.084-.1-.117-.034-.05-.034-.1-.067-.134L178,250.56c-.034-.05-.084-.067-.117-.117s-.05-.1-.084-.151l-2.062-2.2,14.335-8.266,1.325.956,2.2,2.3,1.878,2.766,1.459,3.035.889,3.018.3,2.766ZM189.4,229.149l6.522-3.772v4.963a1.921,1.921,0,0,0-.386-.168,2.035,2.035,0,0,0-.335-.151,2.293,2.293,0,0,0-.486-.034,2.368,2.368,0,0,0-.335-.017,2.791,2.791,0,0,0-.486.168,1.926,1.926,0,0,0-.285.1l-.034.017h-.017l-1.107.654ZM204.606,255.2l-.386-3.387c-.017-.067-.05-.117-.067-.184s0-.117-.017-.184l-1.207-4.124c-.017-.067-.067-.1-.084-.151a.493.493,0,0,0-.05-.168l-1.978-4.091c-.034-.05-.067-.084-.1-.134s-.034-.1-.067-.151l-2.548-3.722c-.034-.05-.084-.067-.117-.117a.933.933,0,0,0-.084-.134l-2.951-3.135c-.05-.05-.1-.067-.151-.117s-.084-.1-.134-.151l-.5-.369.4-.235.838.62h.017l1.04.771,2.716,2.867,2.364,3.471,1.828,3.772,1.107,3.789.369,3.471ZM271.233,196l-3.135,6.505c-.034.05-.017.1-.05.151-.017.067-.067.1-.084.168l-2.3,7.763-.788.453-9.121-5.265,3.705-2.129h.017l.017-.017c.084-.05.117-.117.2-.168a2.743,2.743,0,0,0,.335-.285,2.039,2.039,0,0,0,.168-.235c.034-.034.067-.05.084-.084.034-.034.034-.084.05-.117a.739.739,0,0,0,.1-.268,1.827,1.827,0,0,0,.084-.285c.017-.1.034-.184.05-.285,0-.05.034-.084.034-.117l-.017-70.336,9.154-5.282v67.82A2.108,2.108,0,0,0,271.233,196Zm-24.6-3.554,1.475-.855c.067-.034.1-.1.168-.134.084-.05.151-.084.235-.134l4.963-4.627a1.914,1.914,0,0,0,.486-.687h.017l2.3-5.114v17.152Zm7.495,9.305-3.454,1.978-2.8-.838a1.842,1.842,0,0,0-.6-.05c-.034,0-.067-.017-.1-.017V197.7Zm-7.008-23.238a1.188,1.188,0,0,0,.017-.251L246,167.6c-.017-.067-.05-.117-.067-.184s.017-.134-.017-.2l-3.353-11.284c-.017-.05-.067-.1-.084-.151-.034-.05-.017-.117-.05-.168L237.1,144.479c-.034-.05-.084-.084-.1-.134-.034-.05-.034-.1-.067-.151L230,134.033a.773.773,0,0,0-.117-.117c-.034-.05-.05-.1-.084-.151l-8.115-8.551a.786.786,0,0,0-.151-.1c-.05-.05-.084-.1-.134-.151l-8.685-6.338a1.414,1.414,0,0,0-.235-.1c-.084-.034-.117-.1-.2-.134l-8.266-3.538,5.415-1.677,6.773.654,7.595,3.236,6.17,4.51,3.068,2.716,5.8,6.153,6.321,9.2,4.829,10.077,3.018,10.194,1.023,9.523-1.006,8.148-2.817,6.237-4.175,3.873,1.09-8.97c.034-.067,0-.134,0-.218Zm-13.212,19.952-2.9,1.693h-.017l-.335.2,1.76-3.856c.034-.084.034-.168.067-.268a1.356,1.356,0,0,0,.117-.369l1.14-9.372c.017-.084-.034-.151-.017-.235a1.272,1.272,0,0,0,.017-.251l-1.14-10.68c-.017-.067-.05-.117-.067-.184s0-.134-.017-.2l-3.37-11.284c-.017-.05-.067-.084-.084-.134-.034-.05-.017-.117-.05-.168l-5.3-11.082c-.034-.05-.084-.084-.1-.134-.034-.05-.034-.1-.067-.151L216.558,141.8c-.034-.05-.084-.067-.117-.117a.936.936,0,0,0-.084-.134l-8.065-8.551c-.05-.05-.1-.067-.151-.117s-.084-.1-.134-.151l-8.685-6.338a1.412,1.412,0,0,0-.235-.1c-.017-.017-.034-.017-.05-.034l-.1-.436V125.8l-.017-.034a2.949,2.949,0,0,0-.151-.335,4.093,4.093,0,0,0-.168-.4l-.034-.034h-.017l-1.19-1.727a1.669,1.669,0,0,0-.252-.235l-.05-.05a.839.839,0,0,0,.117-.134c.05-.05.117-.084.168-.134l1.224-1.76c0-.017,0-.017.017-.034a2.671,2.671,0,0,0,.319-.7l.017-.05v-.017l.4-1.643,2.917.285,8.148,3.471,8.35,6.086,7.83,8.266,6.74,9.875,5.2,10.831,3.253,10.932,1.09,10.227-1.056,8.8-2.113,4.695a.016.016,0,0,0-.017.017l-.905,2.029Zm.436,7.343-2.465,1.04c-.05.017-.084.067-.134.084a.534.534,0,0,1-.151.05l-1.107.671c-.034.017-.05.05-.067.067s-.05.017-.084.034l-7.243,5.281c-.05.05-.084.1-.117.134a1.45,1.45,0,0,0-.168.117l-6.723,7.109a.42.42,0,0,0-.084.134c-.034.05-.084.067-.117.117l-2.247,3.286v-11.8l.972.117c.067,0,.117.017.2.017h.017a2.492,2.492,0,0,0,.6-.084l6.991-2.129c.034-.017.05-.034.067-.034.084-.034.168-.084.268-.117a1.069,1.069,0,0,0,.117-.034l9.2-5.332Zm2.1-3.89c.067-.05.151-.084.218-.134l5.332-4.929a1.914,1.914,0,0,0,.486-.687l.386-.838v7.914l-2.834.285a1.773,1.773,0,0,0-.319.1c-.1.034-.218.017-.3.067l-.1.05-2.951-1.71a.194.194,0,0,1,.084-.117ZM256.294,155.8l-2.213-7.444c-.017-.05-.067-.1-.084-.151-.034-.05-.017-.117-.05-.168l-4.929-10.261h.05a2.073,2.073,0,0,0,.972-.268c.034-.017.067-.017.1-.034l6.153-3.554Zm-8.4-24.093-11.921-10.546-3.2-2.85L213.625,101.34V91.029l36.5,32.359Zm-31.47-22.131-6.975-.671a2.742,2.742,0,0,0-.369.034,2.235,2.235,0,0,0-.469.05L202.14,111c-.084.034-.134.084-.218.117a2.03,2.03,0,0,0-.235.084l-2.3,1.325c0-.017,0-.017-.017-.034a1.108,1.108,0,0,0-.017-.235c-.017-.034,0-.05-.017-.067l-.453-1.895a2.21,2.21,0,0,0-.369-.8l-1.19-1.693a3,3,0,0,0-.235-.218,3.359,3.359,0,0,0-.235-.268l-2.029-1.526a1.359,1.359,0,0,1-.436-.235l-.972-.419V99.747l16.934,4.544Zm-19.449,35.7a2.563,2.563,0,0,0,.436-.52c.034-.034.067-.05.084-.084l.721-1.291.436-.654a.016.016,0,0,0,.017-.017,2.123,2.123,0,0,0,.3-.721l.453-2.129a.945.945,0,0,0,0-.218,1.025,1.025,0,0,0,.05-.218v-5.063l5.315,3.873,7.277,7.713,6.3,9.238,4.829,10.043,3.018,10.194,1.023,9.54-1.006,8.165-2.817,6.237-4.477,4.158-7.813,4.493h-.017l-1.945,1.123h-.017l-3.37,1.945,1.107-9.054c.017-.084-.034-.151-.017-.235a1.27,1.27,0,0,0,.017-.251l-1.14-10.714c-.017-.067-.05-.117-.067-.184s.017-.134-.017-.2l-3.353-11.284c-.017-.067-.067-.1-.084-.168a.532.532,0,0,0-.05-.151l-5.332-11.1c-.034-.05-.067-.084-.084-.117-.034-.05-.034-.1-.067-.151l-6.941-10.177c-.034-.05-.084-.067-.117-.117-.05-.05-.05-.1-.084-.151l-8.1-8.551a1.45,1.45,0,0,0-.168-.117.016.016,0,0,0-.017-.017l3,.52a2.5,2.5,0,0,0,.352.034h.034l3.286-.05h.034a2.5,2.5,0,0,0,.352-.034l1.107-.218,1.727-.184c.084-.017.151-.05.235-.067a1.887,1.887,0,0,0,.3-.05l2.6-.989.05-.017c.05-.017.084-.067.134-.084a2.61,2.61,0,0,0,.469-.268Zm12.357,70.151v12.206l-7.058,4.091-1.828-1.341c-.05-.034-.1-.034-.134-.067a.283.283,0,0,0-.084-.034V221.5l1.526-1.408a1.848,1.848,0,0,0,.335-.469Zm-3.37,19.918c-.034-.05-.084-.067-.117-.117s-.05-.1-.084-.151l-.268-.268,2.532-1.459-1.392,2.934Zm7.495,40.96-4.141-3.839-2.582-5.7-.6-4.98.687-.637a1.915,1.915,0,0,0,.486-.687.016.016,0,0,0,.017-.017l1.207-2.733c.05-.084.034-.184.067-.268a1.332,1.332,0,0,0,.1-.369l.05-.419.57-.52a1.852,1.852,0,0,0,.453-.637c.017-.017.034-.017.034-.034l.017-.017,1.023-2.2c.034-.084.034-.168.067-.268a1.694,1.694,0,0,0,.117-.386l.335-2.817c.017-.084-.034-.151-.017-.235a1.187,1.187,0,0,0,.017-.252l-.335-3.219c-.017-.067-.05-.117-.067-.184-.017-.084,0-.151-.017-.218l-1.023-3.37c-.017-.05-.067-.084-.084-.134-.034-.05-.017-.1-.05-.151l-.553-1.157.134-.453,4.292-8.987,1.844-2.666,3.772-5.5,6.488-6.858,7.008-5.1.905-.553,6.3-2.666.788-.335,4.46-.436h.017l1.794-.184,3.286.989h.017l2.1.671,7.713,4.443-1.04-.319a2.268,2.268,0,0,0-.486-.067,1.7,1.7,0,0,0-.419-.034l-6.421.654c-.1.017-.2.067-.3.084a1.082,1.082,0,0,0-.319.067l-6.941,2.934a2.194,2.194,0,0,0-.453.319c-.034.017-.05.017-.067.034l-6.841,4.929a1.085,1.085,0,0,0-.134.151,1.449,1.449,0,0,0-.168.117l-6.472,6.841a.42.42,0,0,0-.084.134c-.034.05-.084.067-.117.117l-5.567,8.115a.6.6,0,0,0-.067.151c-.034.05-.084.084-.1.134l-4.242,8.9a.532.532,0,0,0-.05.151,1.5,1.5,0,0,0-.084.151l-2.7,9c-.017.067,0,.134-.017.2s-.05.117-.067.184l-.872,8.35-.017.017c0,.017.017.034,0,.05a1.82,1.82,0,0,0,.017.3.981.981,0,0,0-.034.319l.922,7.495a2.375,2.375,0,0,0,.117.369c.034.084.017.168.067.251l2.683,5.918.017.017v.017a2.082,2.082,0,0,0,.486.671l.838.788Zm30.481,1.174-.788.352h-.017l-5.3,2.247-5.516.537-4.443-1.341-3.42-3.2-2.28-5.013-.8-6.64.251-2.263.687,5.868c.017.134.084.252.1.369.034.084.034.184.067.268l2.129,4.695a.016.016,0,0,1,.017.017,2.081,2.081,0,0,0,.486.671l2.85,2.632.453.453a.365.365,0,0,0,.084.05,2.032,2.032,0,0,0,.369.251,3.757,3.757,0,0,0,.352.2.363.363,0,0,1,.084.05l4.409,1.341a1.976,1.976,0,0,0,.62.084h.034a.817.817,0,0,0,.2-.017l5.147-.486a1.779,1.779,0,0,0,.319-.1c.1-.034.218-.017.3-.067l5.332-2.28Zm18.476-33.6-1.911,6.455-3.068,6.371-3.99,5.818-4.611,4.879-4.862,3.554-.285.117a.016.016,0,0,0-.017.017l-4.393,1.861-4.141.4-3.286-.989-2.532-2.364-1.693-3.756-.6-5.08.62-5.985,1.911-6.388,3.068-6.422,3.974-5.835,4.627-4.862,4.862-3.521,4.712-2.012,4.091-.4,3.3,1.023,2.532,2.314,1.71,3.772.57,4.745c0,.017.017.034.017.05.017.017,0,.034,0,.05l.05.268Zm6.053-7.042-.738-5.818c-.017-.1-.084-.2-.1-.3-.034-.1-.034-.218-.067-.319l-2.113-4.678a.016.016,0,0,1-.017-.017c-.084-.151-.2-.268-.285-.4-.084-.084-.1-.2-.2-.268-.017,0-.017,0-.017-.017l-3.353-3.135c-.017-.017-.034-.017-.05-.034a2.951,2.951,0,0,0-.386-.235,1.777,1.777,0,0,0-.352-.184c-.034-.017-.05-.034-.067-.034l-.6-.168H260.1l-3.789-1.174a1.709,1.709,0,0,0-.587-.067c-.1,0-.2-.034-.285-.034l-5.1.52a2.123,2.123,0,0,0-.3.1,1.949,1.949,0,0,0-.3.067l-5.466,2.314,1.827-1.341,6.17-2.632,5.466-.536,4.443,1.375,3.437,3.169,2.28,5.03.7,5.768.1.855Zm7.595,3.32-1.492-1.392.553-5.13c.017-.034-.017-.084-.017-.117s.034-.067.034-.117v-1.308c0-.05-.034-.084-.034-.134-.017-.05.017-.084.017-.134l-.989-8.132c-.017-.1-.067-.184-.084-.268a2.685,2.685,0,0,0-.084-.352l-2.9-6.4a2.347,2.347,0,0,0-.5-.7l-1.341-1.257.134-1.442.2-.6v-.017a.016.016,0,0,1,.017-.017l2.515-8.45,4.275-8.9,1.861-2.7v-.017l1.442-2.113,32.476-18.761.8.251h.017l2.113.637,7.662,4.426-.989-.3a1.94,1.94,0,0,0-.872-.084l-6.422.62a1.272,1.272,0,0,0-.3.1,2.159,2.159,0,0,0-.319.067L306.9,180.36a.366.366,0,0,0-.084.067l-.05.017c-.05.017-.067.05-.1.084-.05.017-.1.017-.134.05a.2.2,0,0,0-.084.084c-.034.017-.067.017-.084.05l-6.807,4.98c-.067.034-.084.1-.134.134-.05.05-.1.067-.151.117l-6.472,6.824c-.05.05-.05.1-.084.151s-.084.067-.117.117l-5.566,8.148c-.034.05-.034.1-.067.151s-.084.084-.1.134l-4.259,8.869a.638.638,0,0,0-.05.168.44.44,0,0,0-.084.151l-2.683,9.02c-.017.067,0,.134-.017.2s-.05.117-.067.184l-.922,8.383c-.017.084.034.151.034.235a.737.737,0,0,0-.034.168c0,.034.017.05.017.084l.017.067c0,.05-.017.084-.017.117l.922,7.461c.017.117.084.235.1.352.034.084.034.168.067.268l2.683,5.952a2.2,2.2,0,0,0,.5.687l.788.738Zm70.821-87v10.546l-19.348,11.183-9.154-5.281,12.675-7.327Zm-.2-11.468.1-.067.553-.235.822-.184.889-.084.889.084.822.184.536.235.1.084-.1.067-.587.268-.771.184-.905.067-.922-.067-.754-.184-.6-.268Zm-5.365-8.651v16.867l-12.39,7.126-18.158,10.5h-.017l-33.684,19.5-3.035,1.744V123.707l67.3-38.847ZM306.611,241.306l-.771.319a.016.016,0,0,0-.017.017h-.034l-5.382,2.314-5.466.52-4.46-1.375-3.437-3.169-2.263-5.03-.822-6.623.251-2.23.738,5.852a2.378,2.378,0,0,0,.117.369c.034.084.017.168.05.252l2.1,4.695a1.881,1.881,0,0,0,.5.7l2.917,2.7c.017.017.034.017.05.034s.017.034.034.034l.486.419a2.078,2.078,0,0,0,.7.386.059.059,0,0,1,.034.017l4.393,1.392a2.809,2.809,0,0,0,.62.1h.034a.957.957,0,0,0,.218-.017l5.147-.52a2.123,2.123,0,0,0,.3-.1c.1-.034.218-.017.3-.067l5.449-2.314ZM325.02,207.74l-1.878,6.4-3.068,6.388-4.024,5.835-4.594,4.862-4.879,3.554-.3.134-4.359,1.861-4.125.4-3.286-1.006-2.548-2.364-1.693-3.756-.62-5.063.637-5.969,1.911-6.472,3.051-6.355,4.007-5.852,4.611-4.9,4.862-3.554,4.661-1.978,4.125-.419,3.336,1.006,2.515,2.347,1.693,3.772.6,4.745.034.285Zm6.053-7.058-.687-5.818c-.017-.1-.067-.168-.084-.268a2.917,2.917,0,0,0-.084-.369l-2.129-4.728a2.554,2.554,0,0,0-.184-.268,2.082,2.082,0,0,0-.319-.436l-3.4-3.135a.016.016,0,0,1-.017-.017,2.189,2.189,0,0,0-.469-.285,1.25,1.25,0,0,0-.251-.151.016.016,0,0,1-.017-.017l-.62-.218h-.05c-.017,0-.017-.017-.034-.017l-3.789-1.157a2.239,2.239,0,0,0-.872-.084l-5.1.5a1.272,1.272,0,0,0-.3.1,2.16,2.16,0,0,0-.319.067L307,186.664l1.744-1.274,6.153-2.616,5.466-.553,4.477,1.375,3.42,3.186,2.263,5,.7,5.818-.017.067.1.838Zm33.717-31.806-28.838,16.649-2.263-5c-.034-.05-.067-.084-.084-.117a1.916,1.916,0,0,0-.436-.587l-2.129-1.978L350.1,166.813h.017l14.687-8.467ZM358.452,136.7l1.107.62,4.862,16.28-13.212,7.628V149.443c0-.05-.034-.084-.034-.134a1.508,1.508,0,0,0-.05-.268,2.029,2.029,0,0,0-.084-.3c-.034-.084-.067-.168-.1-.268-.017-.034-.017-.084-.05-.117-.017-.034-.067-.05-.084-.084-.067-.084-.1-.151-.168-.235a1.342,1.342,0,0,0-.218-.218,1.077,1.077,0,0,0-.218-.168l-.084-.084-1.828-1.056.6.05h.285l1.224-.084a.727.727,0,0,0,.084-.017c.084-.017.168-.017.268-.034l1.157-.285a1.265,1.265,0,0,0,.218-.1.756.756,0,0,0,.184-.05l.972-.453a2.849,2.849,0,0,1,.235-.168c.05-.034.084-.017.117-.05l.754-.553c.1-.084.168-.184.252-.268.067-.067.134-.084.2-.151l.5-.654c.034-.034.034-.067.05-.1.084-.134.151-.3.235-.453a1.749,1.749,0,0,0,.1-.268c.017-.034.034-.05.034-.084l.134-.738a1.689,1.689,0,0,0-.017-.5c-.017-.1.017-.2,0-.3l-.017-.034a.016.016,0,0,0-.017-.017l-.117-.62a.052.052,0,0,1-.017-.034,2.422,2.422,0,0,0-.184-.436c-.067-.117-.084-.235-.151-.335-.017-.017-.017-.034-.034-.05l-.5-.671a2.378,2.378,0,0,0-.218-.2c-.084-.067-.1-.151-.2-.218l-.754-.587c-.084-.05-.151-.067-.251-.117a1.7,1.7,0,0,0-.218-.151l-.972-.419a.842.842,0,0,0-.2-.034c-.067-.017-.1-.067-.168-.084l-1.157-.268a.361.361,0,0,0-.134,0c-.05-.017-.084-.034-.134-.05l-1.224-.117c-.067,0-.117.017-.2.017-.067,0-.117-.034-.2-.017l-1.224.117c-.05,0-.084.034-.134.05s-.1-.017-.151,0l-1.14.268a1.556,1.556,0,0,0-.168.084c-.067.017-.117.017-.184.034l-.218.084v-2.045Zm.587-67.065-16.666,9.657-71.559,41.312-13.446,7.746-4.9,2.817,1.895-7.109L360.95,62.544Zm1.677-11.9L252.789,120.02l-37.674-33.4L323.042,24.3ZM282.585,13l35.176,9.406-106.6,61.55-35.176-9.423ZM175.719,90.494l-2.5-12.273,36.1,9.674V99.5L191.882,94.82Zm1.744,21.595.2-.3.251-.352.386-.3a2.013,2.013,0,0,0,.654-.972l.2-.168.8-.587a1.263,1.263,0,0,0,.1.218l.3.419c.05.067.117.084.168.151a1.508,1.508,0,0,0,.268.3l.453.335c.034.034.084.017.134.05.084.05.151.134.251.184l.6.285c.067.034.117.017.184.05a1.264,1.264,0,0,0,.218.1l.721.168a1.2,1.2,0,0,0,.335.034c.034,0,.05.017.067.017l.771.034h.184l.754-.034c.034,0,.05-.017.084-.017.1-.017.218-.017.335-.034l.7-.168c.067-.017.117-.067.2-.084a.884.884,0,0,0,.2-.05l.62-.285c.084-.05.151-.117.235-.168.034-.034.084-.017.117-.05l.469-.335a2.291,2.291,0,0,0,.386-.419c.05-.05.1-.067.134-.134l.268-.419c.034-.05.034-.1.067-.151l.788.587.369.335.3.335.855,1.174.184.268.117.537-.117.5-.5.721-1.056.788-1.542.687-1.978.469-2.079.168-2.113-.168-1.962-.469-1.559-.687-1.056-.788-.5-.7-.117-.52Zm0,8.836c.05.017.117.017.168.034s.1.067.151.084l3.051.754c.084.017.184.017.268.034.034,0,.05.017.084.017l3.286.251h.3l3.286-.251c.034,0,.05-.017.084-.017.084-.017.184-.017.268-.034l3.018-.754a.44.44,0,0,0,.151-.084c.067-.017.117-.017.168-.034l2.247-.972h-.017l-1.157.872-.335.235-2.28,1.006-2.683.671-2.934.218-2.951-.218-2.683-.671-2.28-1.006-.319-.218-1.107-.872ZM192,126v1.878l-.184.754-.5.721-1.073.788-1.543.7-1.928.419-2.113.184-2.129-.184-1.928-.419-1.542-.7-1.073-.788-.5-.7-.184-.771v-1.861l.151.067c.067.034.117.017.184.034a1.557,1.557,0,0,1,.168.084l3.051.754c.084.017.184.017.268.034.034,0,.05.017.084.017l3.286.251h.3l3.286-.251c.034,0,.05-.017.084-.017.1-.017.184-.017.285-.034l3.035-.754a1.557,1.557,0,0,0,.168-.084c.067-.017.117-.017.168-.034Zm-17.873,8.819.268.2c.034.034.1.017.134.05a2.965,2.965,0,0,0,.285.2l2.616,1.157c.067.034.117.017.184.034s.117.067.184.084l3.051.738c.084.017.184.017.268.034.034,0,.05.017.084.017l3.286.251h.3l3.286-.251c.034,0,.05-.017.084-.017.084-.017.168-.017.251-.034l3.035-.738c.067-.017.1-.067.168-.084s.117-.017.184-.034l2.632-1.157a1.891,1.891,0,0,0,.3-.2c.034-.034.084-.017.117-.05l.268-.2V139.2l-.319,1.509-.268.4c-.017.017-.017.05-.034.067-.017.034-.05.034-.067.067l-.553.972-1.442,1.19-2.045.771-1.542.151c-.034,0-.067.034-.1.034h-.084l-1.006.2-2.9.05-2.917-.5-2.683-.922-4.175-2.4-.671-.771-.235-.872Zm-5.147.184h0l.838-.486v4.912c0,.1.05.184.05.268.017.1,0,.184.017.285l.235.855-6.505-2.75Zm-17.772,10.9a.062.062,0,0,0,.017-.05,1.955,1.955,0,0,0,.3-.687c0-.017.017-.034.017-.05l.687-3.068,2.4-.738,2.213.2,5.114.52,8.148,3.437,8.333,6.086,7.846,8.283,6.757,9.909,5.181,10.764,3.253,10.948,1.09,10.261-1.056,8.786-2.113,4.695a.016.016,0,0,0-.017.017l-.855,1.928-.017.05-1.911,1.777-2.951,2.766-3.236,1.861,1.744-3.873a1,1,0,0,0,.067-.285,2.546,2.546,0,0,0,.1-.335l1.123-9.339c.017-.084-.034-.151-.017-.235a1.188,1.188,0,0,0,.017-.251l-1.123-10.7c-.017-.067-.05-.117-.067-.184s.017-.134-.017-.218L188.9,186.917c-.017-.067-.067-.1-.084-.168a.532.532,0,0,0-.05-.151l-5.332-11.1a.728.728,0,0,0-.1-.117c-.034-.05-.034-.1-.067-.151l-6.908-10.194a.772.772,0,0,0-.117-.117.786.786,0,0,0-.1-.151l-8.1-8.5c-.05-.05-.117-.067-.168-.117a1.011,1.011,0,0,0-.134-.134l-8.685-6.338a1.264,1.264,0,0,0-.218-.1.842.842,0,0,0-.2-.134l-7.612-3.253ZM87.782,119.919l.419-1.09.57-1.006,2.934-4.091.654-.838.754-.738,3.169-2.347.034-.034h.017l1.073-.838.654-.419,5.365-2.4.486-.2,5.751-1.392,6.237-.486,6.187.486,5.785,1.392.469.2,5.382,2.4.654.419,1.107.855h.017l.017.017,3.135,2.347.754.738.654.838,2.934,4.091.587,1.006.419,1.09.939,4.007-.872,3.756L141.4,131.4l-4.527,3.387-6.036,2.683-7.176,1.71-7.746.6-7.763-.6-7.143-1.71-6.07-2.683L90.447,131.4l-2.683-3.722-.838-3.756Zm4.544,31.839-.52-.369-4.527-3.42-3.035-4.225L83.221,139.2v-5.03l.754,1.056c.05.067.117.084.168.151a2.576,2.576,0,0,0,.285.319l5.533,4.158c.05.034.1.017.134.05a1.74,1.74,0,0,0,.285.2l7.226,3.186c.067.034.117.017.184.034s.117.067.184.084l8.366,2.029c.084.017.168.017.251.034.034,0,.05.017.084.034l9.02.7h.335l8.987-.7c.034,0,.05-.017.084-.017.084-.017.168-.017.251-.034l8.416-2.029c.067-.017.117-.067.184-.084s.117-.017.184-.034l7.193-3.186a2.968,2.968,0,0,0,.285-.2c.05-.034.1-.017.134-.05l5.533-4.158a1.688,1.688,0,0,0,.285-.319c.05-.05.117-.084.168-.134l.788-1.09v5.047l-.168.687v.017l-.872,3.839-1.828,2.515-1.207,1.693-.5.386h-.017l-3.554,2.683a.016.016,0,0,1-.017.017h-.017l-.436.335-.52.369-6.807,3.051-8.031,1.911-8.668.671-8.685-.671-8.014-1.911Zm7.981,9.892-1.241-1.14-1.157-1.19-.52-.6.2.084c.067.034.134.017.184.034.067.017.117.067.184.084l8.366,2c.084.017.168.017.251.034.034,0,.05.017.084.017l9.02.687h.335l8.987-.687c.034,0,.05-.017.084-.017.084-.017.168-.017.251-.034l8.416-2c.067-.017.117-.067.184-.084a.884.884,0,0,0,.2-.05l.168-.084-.553.62-1.107,1.157-1.224,1.123-1.341,1.157-1.341,1.056c-.034.034-.05.084-.084.1-.034.034-.084.05-.117.084l-.587.6a.016.016,0,0,1-.017.017.016.016,0,0,0-.017.017l-.134.151c-.017.017-.017.034-.034.067-.017.017-.05.034-.067.05l-.486.6a2.111,2.111,0,0,0-.469,1.509l-.05.134v.05a.059.059,0,0,1-.017.034l-.168.5-.1.319c-.017.017,0,.05-.017.067,0,.017-.034.034-.034.067l-.218.838a2.15,2.15,0,0,0,.117,1.341v.034c0,.017.017.034.017.05v.05l.034.671v.151a.394.394,0,0,0,.034.134c0,.05-.017.1-.017.134l.1.754v17.118l-.319,2.012-.889,1.509-1.459,1.207-2.029.788-2.515.251-2.7-.352c-.05-.017-.084.017-.117.017a.4.4,0,0,0-.134-.034h-.034c-.1,0-.184.05-.285.05a1.72,1.72,0,0,0-.4.084c-.034.017-.067.017-.1.034a2,2,0,0,0-.251.151,1.716,1.716,0,0,0-.369.235.367.367,0,0,1-.084.05.016.016,0,0,1-.017.017,1.7,1.7,0,0,0-.151.218,2.854,2.854,0,0,0-.251.369.732.732,0,0,0-.067.117.968.968,0,0,0-.05.235c0,.034-.017.05-.017.067a.718.718,0,0,0-.084.268c0,.05.017.067.017.1,0,.017-.017.034-.017.05l-.956-.151-2.666-.922-4.158-2.414-.687-.788-.05-.151c-.017-.05-.05-.084-.067-.134s-.017-.1-.034-.151l-.084-.218V172.364l.084-.738c0-.034-.017-.05,0-.084,0-.034.017-.05.017-.067l.05-.922c0-.034-.017-.05-.017-.084s.017-.05.017-.084v-.05a2.015,2.015,0,0,0,.1-1.257l-.218-.838c0-.034-.034-.05-.034-.067,0-.034-.034-.067-.034-.1v-.134l-.05-.1c-.017-.034,0-.067-.017-.1l-.034-.084c-.017-.05-.017-.084-.034-.134,0-.034.017-.084,0-.117a2.089,2.089,0,0,0-.2-.57,2.148,2.148,0,0,0-.5-1.341l-.52-.6c-.017-.017-.05-.034-.067-.05a.223.223,0,0,0-.05-.084c-.017-.017-.034-.017-.05-.034s-.017-.034-.034-.05l-.587-.6c-.034-.034-.084-.05-.117-.084s-.05-.084-.1-.117l-1.358-1.056Zm-3.957,33.566,3.487-1.107,1.744.184a2.046,2.046,0,0,0,.436.788l1.241,1.425c.067.084.151.1.235.168a1.684,1.684,0,0,0,.319.268l4.644,2.683c.05.034.1.017.151.034a1.529,1.529,0,0,0,.218.134l3.051,1.056a1.131,1.131,0,0,0,.235.034.4.4,0,0,0,.151.05l1.107.168,1.693.57,3.051,3.2,3.99,5.851,3.068,6.355,1.878,6.438.637,5.952-.62,5.08-1.677,3.722-2.733,2.532-1.593.922c.017-.05.017-.117.034-.168a2.887,2.887,0,0,0,.117-.352l.687-5.633a1.355,1.355,0,0,0-.017-.251,1.188,1.188,0,0,0,.017-.252l-.687-6.4c0-.067-.05-.117-.067-.184s0-.117-.017-.184l-2-6.79c-.017-.067-.067-.1-.084-.151a.638.638,0,0,0-.05-.168l-3.2-6.656c-.034-.05-.067-.084-.1-.134s-.034-.1-.067-.151l-4.192-6.1c-.034-.05-.084-.067-.117-.117s-.05-.084-.084-.134l-4.829-5.147a1.02,1.02,0,0,0-.168-.117c-.05-.05-.084-.1-.134-.151l-5.231-3.772a.866.866,0,0,0-.218-.1.843.843,0,0,0-.2-.134l-5.2-2.23a2.155,2.155,0,0,0-.319-.067c-.067-.017-.134-.05-.218-.067ZM83.154,216.174c-.067.05-.151.084-.218.134-.017.017-.034.017-.05.034l-.7.671-.52-4.912.62-5.047,1.71-3.772,2.532-2.347,3.269-1.006,4.091.419,4.695,2.012,4.862,3.5,4.577,4.879,4.007,5.835,3.051,6.338,1.895,6.422.637,5.985-.62,5.047-1.693,3.756-2.532,2.314-3.3,1.006-4.091-.4-4.678-1.978-3.974-2.917.922-.285c.017-.017.034-.034.05-.034.084-.034.168-.084.251-.117.034-.017.084-.017.117-.034l8.936-5.13c.067-.05.117-.117.184-.168s.151-.084.235-.134l1.408-1.341a1.9,1.9,0,0,0,.436-.62c.017-.017.034-.017.034-.034l.017-.034V234.2l.889-1.962c.034-.084.034-.168.067-.252a2.373,2.373,0,0,0,.117-.369l.3-2.465a1.27,1.27,0,0,0-.017-.252,1.188,1.188,0,0,0,.017-.251l-.3-2.867c-.017-.067-.05-.117-.067-.184s0-.134-.017-.2l-.905-3c-.017-.05-.067-.084-.084-.151-.017-.05-.017-.1-.034-.151l-1.408-2.968c-.034-.05-.067-.084-.1-.134s-.034-.117-.067-.168l-1.811-2.716a.774.774,0,0,0-.117-.117.936.936,0,0,0-.084-.134l-2.163-2.263a.787.787,0,0,0-.151-.1c-.05-.05-.084-.1-.134-.151l-2.331-1.693a1.264,1.264,0,0,0-.218-.1c-.067-.034-.117-.1-.184-.134l-2.28-.989a1.949,1.949,0,0,0-.3-.067,2.327,2.327,0,0,0-.319-.1l-2.163-.235h-.017c-.067,0-.134.017-.218.017a2.343,2.343,0,0,0-.687.084l-1.811.57a2.135,2.135,0,0,0-.2.117c-.067.034-.151.034-.218.067l-8.953,5.164c-.1.034-.134.1-.184.134Zm18.577,17.873a1.107,1.107,0,0,0,.017-.235l-.3-2.85c0-.067-.05-.117-.05-.184-.017-.067,0-.134-.017-.2l-.872-3c-.017-.067-.067-.1-.084-.151a.492.492,0,0,0-.05-.168l-1.425-2.951c-.034-.05-.067-.084-.1-.134s-.034-.1-.067-.151l-1.861-2.733a.452.452,0,0,0-.134-.117.787.787,0,0,0-.1-.151l-2.146-2.247c-.05-.05-.117-.067-.168-.117s-.067-.1-.117-.134l-2.331-1.693a1.266,1.266,0,0,0-.218-.1,2.1,2.1,0,0,0-.2-.134l-.335-.134,2.984-1.727,1.19-.386,1.392.151,1.76.771,1.978,1.442,1.895,2,1.677,2.431L105.3,223.8l.8,2.666.268,2.414-.184,1.878-.6,1.324-.922.872-2.951,1.693.05-.352c0-.1-.034-.168-.034-.252Zm-16.783-5.265-.8-2.683-.251-2.381.235-1.928.587-1.274.754-.7.956-.3,1.392.134,1.811.771,1.978,1.425,1.895,2,1.66,2.448,1.274,2.649.788,2.649L97.472,234l-.235,1.928-.57,1.274-.738.687-.972.3-1.408-.134-1.811-.771-1.777-1.274c-.017-.017-.05-.017-.067-.034l-2.012-2.146-1.66-2.414Zm3.638,11.535.671.486,3.622,3.789a.788.788,0,0,0,.151.1c.05.05.084.1.134.151l5.2,3.823c.05.034.1.017.151.05a1.741,1.741,0,0,0,.285.2l5.231,2.213a1.951,1.951,0,0,0,.3.067,2.544,2.544,0,0,0,.335.1l4.829.469c.067,0,.134.017.2.017h.017a2.75,2.75,0,0,0,.62-.084l4.192-1.274c.034-.017.034-.034.067-.034a1.335,1.335,0,0,0,.268-.134c.034-.017.084-.017.134-.034l.855-.5,30.833,17.806c.034.017.067.017.1.034a1.942,1.942,0,0,0,1.911,0c.034-.017.067-.017.1-.034h.017l12.34-7.126,6.355,3.672,2.766,1.593-52.815,30.481-51.038-7.88L53.542,260.521ZM50.577,264.31l11.971,25.8L51.768,308.808,39.8,283ZM37.164,287.565l11.971,25.8L38.321,332.046l-11.955-25.8ZM12.937,329.514l10.831-18.728,11.955,25.8L24.925,355.3ZM28.127,358.3l11.116-19.264,48.386,7.495L76.513,365.779Z" transform="translate(0 0)"/>
        <path id="路径_1210" data-name="路径 1210" d="M74.3,67.664l-.134-1.107c-.017-.117-.084-.218-.1-.319-.034-.084-.017-.184-.067-.268l-.386-.872h-.017a2.058,2.058,0,0,0-.386-.553c-.05-.05-.067-.1-.1-.134a.016.016,0,0,1-.017-.017l-.637-.587c-.017-.017-.034-.017-.05-.034a2.67,2.67,0,0,0-.369-.218,2.792,2.792,0,0,0-.386-.2c-.017,0-.034-.034-.067-.034l-.8-.235a1.247,1.247,0,0,0-.436-.034,1.632,1.632,0,0,0-.4-.034h-.05l-.905.084c-.1.017-.184.067-.285.084-.1.034-.218.017-.3.067l-1.023.419c-.084.034-.134.1-.218.134-.084.05-.151.05-.235.1l-.989.7c-.05.034-.084.1-.134.134-.05.05-.117.067-.168.117l-.972,1.04c-.05.05-.05.1-.084.151s-.084.067-.117.117l-.8,1.174c-.034.05-.034.1-.067.151s-.084.084-.1.134l-.62,1.291c-.034.05-.017.1-.034.151a.588.588,0,0,0-.084.134l-.419,1.341a.886.886,0,0,0-.017.218c-.017.084-.067.134-.067.218l-.117,1.241a.46.46,0,0,0,.034.218c0,.067-.034.134-.034.218l.117,1.073a3.638,3.638,0,0,0,.117.4c.034.084.034.184.067.268l.419.872c.017.034.05.05.084.084a1.825,1.825,0,0,0,.386.553l.62.587c.017.017.05.017.067.05a2.05,2.05,0,0,0,.319.2,1.991,1.991,0,0,0,.419.218c.034.017.05.034.067.034l.8.251a1.941,1.941,0,0,0,.6.084h.034a1.268,1.268,0,0,0,.252-.017l.972-.117c.1-.017.168-.067.268-.084.1-.034.218-.017.3-.067l.989-.419c.05-.017.084-.067.134-.084.034-.017.084-.017.1-.034l1.14-.654c.05-.034.084-.084.117-.1s.067-.017.084-.034l.7-.52c.067-.05.084-.1.134-.134.05-.05.1-.067.151-.117l.671-.721c.034-.05.05-.084.084-.134.034-.034.067-.05.084-.084l.587-.822a.849.849,0,0,0,.117-.251c.034-.05.067-.067.084-.1l.436-.956a.833.833,0,0,0,.05-.218c.017-.034.05-.05.067-.084l.268-.939c.017-.067,0-.117.017-.168.017-.067.05-.117.067-.2l.084-.872c.017-.034-.017-.067-.017-.084a.283.283,0,0,0,.034-.084l.034-1.274c0-.05-.034-.1-.034-.151.05-.05.084-.1.067-.151ZM69.753,70.3l-.268.587-.419.57-.218.235.084-.285.3-.637.4-.587.2-.218Z" transform="translate(176.784 179.345)"/>
        <path id="路径_1211" data-name="路径 1211" d="M88.822,59.269,88.688,58.2c-.017-.1-.084-.2-.1-.3a2.285,2.285,0,0,0-.067-.285l-.386-.872-.017-.017c-.05-.084-.117-.151-.168-.235a1.939,1.939,0,0,0-.3-.453l-.62-.587c-.017-.017-.05-.017-.067-.034-.084-.084-.218-.134-.319-.218-.134-.084-.268-.168-.4-.235-.034,0-.034-.017-.05-.034l-.822-.268h-.017a1.959,1.959,0,0,0-.62-.067c-.084,0-.151-.017-.235-.017h-.05l-.939.117c-.1.017-.184.067-.268.084a1.509,1.509,0,0,0-.268.05l-.989.419c-.084.034-.117.1-.2.134-.084.05-.168.067-.252.117l-1.023.754c-.05.05-.084.1-.134.151s-.1.067-.151.117l-.939.989c-.05.05-.05.1-.084.151s-.084.067-.117.117l-.8,1.19c-.034.05-.034.1-.067.134-.034.05-.084.084-.1.117l-.637,1.325c-.034.05-.017.1-.05.168-.017.05-.067.1-.084.151l-.386,1.291c-.017.067,0,.134-.017.2a1.748,1.748,0,0,1-.067.168l-.134,1.257c-.017.084.034.168.034.268a1.357,1.357,0,0,0-.017.268l.134,1.09a2.167,2.167,0,0,0,.117.352,2.084,2.084,0,0,0,.067.268l.386.838.017.017a1.727,1.727,0,0,0,.486.671l.637.587a.062.062,0,0,0,.05.017.95.95,0,0,0,.218.134,2.982,2.982,0,0,0,.5.285c.017,0,.034.017.05.034l.8.268a2.189,2.189,0,0,0,.637.1h.034a.956.956,0,0,0,.218-.017l.939-.1c.084-.017.168-.067.268-.084a2.374,2.374,0,0,0,.335-.067l1.023-.419c.067-.034.117-.084.184-.117a1.067,1.067,0,0,0,.117-.034l1.107-.687c.05-.017.067-.067.084-.084a.1.1,0,0,1,.067-.017l.7-.52c.05-.034.067-.084.1-.117s.084-.05.117-.084l.671-.671a1.4,1.4,0,0,0,.134-.2c.034-.05.084-.067.117-.117l.587-.872a1.027,1.027,0,0,0,.084-.2c.017-.034.067-.05.084-.084l.436-.922c.034-.067.034-.134.067-.218.017-.034.05-.05.067-.084l.268-.939a.517.517,0,0,0,.017-.168c.017-.067.05-.117.067-.184l.1-.872c0-.05-.017-.084-.017-.134s.034-.084.034-.134V59.537c0-.05-.034-.084-.034-.134-.05-.034-.017-.084-.017-.134ZM84.278,61.9l-.285.62-.386.587-.2.2.084-.268.3-.62.4-.57.168-.184Z" transform="translate(224.882 151.557)"/>
      </g>
    </g>
  </g>
</svg>
