<svg xmlns="http://www.w3.org/2000/svg" xmlns:xlink="http://www.w3.org/1999/xlink" width="2849.525" height="3505.099" viewBox="0 0 2849.525 3505.099">
  <defs>
    <style>
      .cls-1 {
        clip-path: url(#clip-Artboard_45);
      }

      .cls-2, .cls-6, .cls-7 {
        fill: #fff;
      }

      .cls-2 {
        stroke: #000;
        stroke-width: 2px;
        fill-rule: evenodd;
      }

      .cls-3, .cls-4 {
        font-size: 64px;
      }

      .cls-3 {
        font-family: Helvetica-Bold, Helvetica;
        font-weight: 700;
        letter-spacing: 0.1em;
      }

      .cls-4 {
        fill: #797777;
        font-family: PingFangSC-Regular, PingFang SC;
        letter-spacing: 0.05em;
      }

      .cls-5 {
        fill: #ca3136;
      }

      .cls-6 {
        font-size: 71px;
        font-family: Helvetica;
      }
    </style>
    <clipPath id="clip-Artboard_45">
      <rect width="2849.526" height="3505.099"/>
    </clipPath>
  </defs>
  <g id="Artboard_45" data-name="Artboard – 45" class="cls-1">
    <rect class="cls-7" width="2849.526" height="3505.099"/>
    <path id="path2427" class="cls-2" d="M-32.705,436.919C400.671,165.76,770.636,193.2,1137.011-40.432c196.537,50.319,342.849,30.2,478.1-5.425,414.964,223.263,779.818,259.059,1169.711,488.2-32.406,239.264-103.771,446.008-222.794,612.963-144.416-90.452-281.057-126.392-413.115-130.187l-9.291,1627.336c-568.927,123.832-1051.144,70.328-1522.482-5.42L612.5,930.545c-165.972-5.635-292.253,66.039-422.4,130.187C64.929,861.294,6.445,650.72-32.706,436.919h0Z" transform="translate(43.705 168.857)"/>
    <g id="组_48" data-name="组 48">
      <g id="组_4" data-name="组 4" transform="translate(1218.365 628.533)">
        <text id="Gateway_Timeout" data-name="Gateway Timeout" class="cls-3" transform="translate(206.445 725.003)"><tspan x="-309.191" y="0">Gateway Timeout</tspan></text>
        <text id="猪一般的队友" class="cls-4" transform="translate(206 847.008)"><tspan x="-200" y="0">猪一般的队友</tspan></text>
        <g id="icon" transform="translate(489.4 0)">
          <rect id="矩形_1" data-name="矩形 1" class="cls-5" width="69.914" height="204.365" rx="10" transform="translate(0 13.445)"/>
          <text id="_5_0_4" data-name="5
0
4" class="cls-6" transform="translate(34.756 75)"><tspan x="-19.743" y="0">5</tspan><tspan x="-19.743" y="61">0</tspan><tspan x="-19.743" y="122">4</tspan></text>
        </g>
      </g>
      <g id="np_time_2132020_000000" transform="translate(1227.678 765.678)">
        <path id="路径_1162" data-name="路径 1162" d="M2.856,191.733c0,104.149,84.726,188.878,188.878,188.878s188.878-84.726,188.878-188.878S295.886,2.855,191.734,2.855,2.855,87.581,2.855,191.733ZM191.734,14.313c97.827,0,177.42,79.594,177.42,177.42s-79.594,177.42-177.42,177.42S14.314,289.56,14.314,191.733s79.594-177.42,177.42-177.42Z" transform="translate(0 0)"/>
        <path id="路径_1163" data-name="路径 1163" d="M165.052,318.374c84.542,0,153.322-68.781,153.322-153.322S249.594,11.73,165.052,11.73,11.73,80.511,11.73,165.052,80.511,318.374,165.052,318.374Zm0-295.2c78.232,0,141.88,63.649,141.88,141.88s-63.649,141.88-141.88,141.88-141.88-63.649-141.88-141.88S86.821,23.172,165.052,23.172Z" transform="translate(26.68 26.681)"/>
        <path id="路径_1164" data-name="路径 1164" d="M54.3,43.311a5.731,5.731,0,0,0,5.728-5.728V24.954a5.728,5.728,0,1,0-11.456,0V37.583A5.731,5.731,0,0,0,54.3,43.311Z" transform="translate(137.434 49.218)"/>
        <path id="路径_1165" data-name="路径 1165" d="M54.3,74.762A5.731,5.731,0,0,0,48.57,80.49V93.119a5.728,5.728,0,1,0,11.456,0V80.49A5.731,5.731,0,0,0,54.3,74.762Z" transform="translate(137.434 216.176)"/>
        <path id="路径_1166" data-name="路径 1166" d="M72.809,48.2a5.75,5.75,0,0,0,4.053-1.675L85.8,37.592A5.721,5.721,0,0,0,77.708,29.5l-8.936,8.936A5.72,5.72,0,0,0,72.809,48.2Z" transform="translate(193.12 75.062)"/>
        <path id="路径_1167" data-name="路径 1167" d="M33.539,87.473A5.75,5.75,0,0,0,37.592,85.8l8.936-8.936a5.721,5.721,0,1,0-8.091-8.091L29.5,77.708a5.72,5.72,0,0,0,4.038,9.765Z" transform="translate(75.061 193.121)"/>
        <path id="路径_1168" data-name="路径 1168" d="M80.489,60.026H93.134a5.728,5.728,0,1,0,0-11.456H80.489a5.728,5.728,0,1,0,0,11.456Z" transform="translate(216.173 137.436)"/>
        <path id="路径_1169" data-name="路径 1169" d="M24.95,60.026H37.595a5.728,5.728,0,0,0,0-11.456H24.95a5.728,5.728,0,1,0,0,11.456Z" transform="translate(49.204 137.436)"/>
        <path id="路径_1170" data-name="路径 1170" d="M77.7,85.8A5.727,5.727,0,1,0,85.8,77.708l-8.936-8.936a5.721,5.721,0,0,0-8.091,8.091Z" transform="translate(193.13 193.121)"/>
        <path id="路径_1171" data-name="路径 1171" d="M38.422,46.528a5.727,5.727,0,0,0,8.106-8.091L37.593,29.5A5.721,5.721,0,0,0,29.5,37.592Z" transform="translate(75.062 75.062)"/>
        <path id="路径_1172" data-name="路径 1172" d="M66.708,136.213a22.681,22.681,0,0,0,15.133-5.853l37.434,18.873a5.622,5.622,0,0,0,2.567.61,5.721,5.721,0,0,0,2.582-10.83l-36.2-18.248a22.2,22.2,0,0,0,1.362-7.434A22.856,22.856,0,0,0,72.436,91.267V34.661a5.728,5.728,0,1,0-11.456,0V91.267a22.832,22.832,0,0,0,5.728,44.946Zm0-34.32a11.44,11.44,0,1,1-11.44,11.44A11.441,11.441,0,0,1,66.708,101.893Z" transform="translate(123.177 78.4)"/>
      </g>
    </g>
  </g>
</svg>
